<svg width="445" height="693" viewBox="0 0 445 693" fill="none" xmlns="http://www.w3.org/2000/svg">
<g clip-path="url(#clip0)">
<path d="M24.9667 547.199H422.512L422.512 9.74695H24.9667L24.9667 547.199Z" fill="#CBE1FD"/>
<path opacity="0.35" d="M27.6094 337.966V286.869L416.948 12.6055H419.876V61.6416L27.6094 337.966Z" fill="white"/>
<path opacity="0.35" d="M27.6094 264.336V12.6055H384.962L27.6094 264.336Z" fill="white"/>
<path d="M431.19 1.11328H16.2812V555.832H431.19V1.11328Z" stroke="#CBE1FD" stroke-width="0.480034" stroke-miterlimit="10"/>
<path d="M443.877 9.74609H1.10547V20.228H443.877V9.74609Z" fill="white" stroke="#CBE1FD" stroke-width="0.480034" stroke-miterlimit="10"/>
<path d="M443.877 27.2227H1.10547V37.7046H443.877V27.2227Z" fill="white" stroke="#CBE1FD" stroke-width="0.480034" stroke-miterlimit="10"/>
<path d="M443.877 44.6914H1.10547V55.1733H443.877V44.6914Z" fill="white" stroke="#CBE1FD" stroke-width="0.480034" stroke-miterlimit="10"/>
<path d="M443.877 62.168H1.10547V72.6499H443.877V62.168Z" fill="white" stroke="#CBE1FD" stroke-width="0.480034" stroke-miterlimit="10"/>
<path d="M443.877 79.6445H1.10547V90.1265H443.877V79.6445Z" fill="white" stroke="#CBE1FD" stroke-width="0.480034" stroke-miterlimit="10"/>
<path d="M401.619 556.815C390.09 574.295 368.37 583.843 358.774 578.438C349.497 573.212 348.699 547.463 360.215 529.983C371.731 512.503 391.013 504.345 402.21 511.747C413.407 519.149 413.151 539.327 401.619 556.815Z" fill="#F2BF33"/>
<path d="M360.063 637.328C360.063 637.328 348.451 542.995 402.134 512.176" stroke="#6562CE" stroke-width="0.400028" stroke-miterlimit="10" stroke-linecap="round"/>
<path d="M409.728 533.227L377.582 536.516" stroke="#6562CE" stroke-width="0.400028" stroke-miterlimit="10" stroke-linecap="round"/>
<path d="M409.297 536.625L375.559 540.075" stroke="#6562CE" stroke-width="0.400028" stroke-miterlimit="10" stroke-linecap="round"/>
<path d="M360.59 530.172L368.759 554.353" stroke="#6562CE" stroke-width="0.400028" stroke-miterlimit="10" stroke-linecap="round"/>
<path d="M444.223 604.998C440.658 614.209 425.042 616.726 409.338 610.636C393.634 604.545 387.581 592.428 388.267 588.405C389.136 583.334 407.666 574.672 422.248 577.285C438.823 580.252 447.787 595.782 444.223 604.998Z" fill="#F2BF33"/>
<path d="M350.451 637.326C350.451 637.326 349.04 595.889 392.731 587.382C416.653 582.727 435.159 594.768 443.653 604.977" stroke="#6562CE" stroke-width="0.400028" stroke-miterlimit="10" stroke-linecap="round"/>
<path d="M416.617 588.036L431.537 581.188" stroke="#6562CE" stroke-width="0.400028" stroke-miterlimit="10" stroke-linecap="round"/>
<path d="M420.34 589.221L434.233 582.711" stroke="#6562CE" stroke-width="0.400028" stroke-miterlimit="10" stroke-linecap="round"/>
<path d="M410.449 586.836L416.263 612.212" stroke="#6562CE" stroke-width="0.400028" stroke-miterlimit="10" stroke-linecap="round"/>
<path d="M341.709 575.762C348.789 586.481 347.7 601.673 341.924 605.191C338.428 607.332 323.726 603.459 316.638 592.74C309.55 582.022 309.571 569.162 316.439 564.605C323.306 560.047 334.613 565.044 341.709 575.762Z" fill="#F2BF33"/>
<path d="M345.229 637.329C345.229 637.329 349.202 583.739 316.637 565.168" stroke="#6562CE" stroke-width="0.400028" stroke-miterlimit="10" stroke-linecap="round"/>
<path d="M312.105 580.809H332.659" stroke="#6562CE" stroke-width="0.400028" stroke-miterlimit="10" stroke-linecap="round"/>
<path d="M313.141 584.367H334.688" stroke="#6562CE" stroke-width="0.400028" stroke-miterlimit="10" stroke-linecap="round"/>
<path d="M342.189 577.238L338.496 591.999" stroke="#6562CE" stroke-width="0.400028" stroke-miterlimit="10" stroke-linecap="round"/>
<path d="M382.289 646.479V683.746C382.29 684.948 382.054 686.138 381.596 687.248C381.137 688.359 380.464 689.368 379.615 690.218C378.767 691.067 377.759 691.741 376.65 692.2C375.541 692.659 374.353 692.895 373.153 692.893H335.956C334.756 692.896 333.567 692.66 332.458 692.202C331.349 691.743 330.341 691.069 329.492 690.219C328.644 689.369 327.971 688.36 327.512 687.249C327.054 686.138 326.819 684.948 326.82 683.746V646.479C326.821 644.052 327.784 641.725 329.497 640.009C331.21 638.293 333.533 637.329 335.956 637.328H373.164C375.587 637.328 377.911 638.292 379.624 640.008C381.337 641.724 382.3 644.052 382.3 646.479H382.289Z" fill="white" stroke="#88BED7" stroke-width="0.400028" stroke-miterlimit="10"/>
<path d="M345.049 649.849C346.592 649.849 347.844 648.595 347.844 647.049C347.844 645.503 346.592 644.25 345.049 644.25C343.505 644.25 342.254 645.503 342.254 647.049C342.254 648.595 343.505 649.849 345.049 649.849Z" fill="#CBE1FD"/>
<path d="M357.494 649.837C359.038 649.837 360.289 648.584 360.289 647.038C360.289 645.492 359.038 644.238 357.494 644.238C355.951 644.238 354.699 645.492 354.699 647.038C354.699 648.584 355.951 649.837 357.494 649.837Z" fill="#CBE1FD"/>
<path d="M369.936 649.818C371.479 649.818 372.73 648.564 372.73 647.018C372.73 645.472 371.479 644.219 369.936 644.219C368.392 644.219 367.141 645.472 367.141 647.018C367.141 648.564 368.392 649.818 369.936 649.818Z" fill="#CBE1FD"/>
<path d="M381.648 646.472V649.803H381.615C380.893 649.81 380.196 649.536 379.67 649.04C379.145 648.543 378.831 647.863 378.796 647.14C378.761 646.417 379.007 645.709 379.481 645.164C379.956 644.618 380.623 644.278 381.343 644.215C381.546 644.95 381.648 645.709 381.648 646.472Z" fill="#CBE1FD"/>
<path d="M332.596 649.868C334.139 649.868 335.391 648.615 335.391 647.069C335.391 645.523 334.139 644.27 332.596 644.27C331.052 644.27 329.801 645.523 329.801 647.069C329.801 648.615 331.052 649.868 332.596 649.868Z" fill="#CBE1FD"/>
<path d="M354.177 638.669C354.18 639.068 354.098 639.464 353.936 639.829C353.775 640.193 353.537 640.519 353.239 640.785C352.941 641.05 352.59 641.249 352.209 641.367C351.828 641.485 351.427 641.521 351.031 641.471C350.635 641.421 350.255 641.287 349.915 641.078C349.576 640.869 349.284 640.59 349.061 640.259C348.838 639.928 348.688 639.553 348.621 639.16C348.555 638.766 348.573 638.363 348.674 637.977H354.09C354.147 638.203 354.176 638.435 354.177 638.669Z" fill="#CBE1FD"/>
<path d="M366.621 638.653C366.622 639.05 366.539 639.442 366.377 639.804C366.214 640.167 365.977 640.49 365.681 640.753C365.384 641.017 365.035 641.214 364.657 641.332C364.279 641.45 363.879 641.486 363.486 641.438C363.093 641.389 362.714 641.258 362.375 641.052C362.037 640.846 361.746 640.57 361.521 640.243C361.297 639.915 361.145 639.544 361.075 639.153C361.005 638.763 361.019 638.362 361.116 637.977H366.539C366.595 638.198 366.622 638.425 366.621 638.653Z" fill="#CBE1FD"/>
<path d="M378.69 640.038C378.383 640.572 377.908 640.99 377.34 641.226C376.772 641.463 376.142 641.505 375.548 641.346C374.953 641.187 374.428 640.837 374.053 640.348C373.677 639.86 373.474 639.261 373.473 638.645C373.472 638.424 373.499 638.203 373.552 637.988C375.446 638.074 377.256 638.796 378.69 640.038Z" fill="#CBE1FD"/>
<path d="M339.481 641.43C339.015 641.524 338.533 641.499 338.08 641.355C337.628 641.212 337.219 640.955 336.892 640.61C336.566 640.264 336.332 639.841 336.214 639.381C336.095 638.92 336.095 638.437 336.215 637.977H341.625C341.625 638.026 341.652 638.077 341.663 638.129C341.81 638.857 341.663 639.613 341.254 640.232C340.844 640.851 340.207 641.282 339.481 641.43Z" fill="#CBE1FD"/>
<path d="M371.229 667.357C372.772 667.357 374.023 666.103 374.023 664.557C374.023 663.011 372.772 661.758 371.229 661.758C369.685 661.758 368.434 663.011 368.434 664.557C368.434 666.103 369.685 667.357 371.229 667.357Z" fill="#CBE1FD"/>
<path d="M381.648 661.922V667.164C381.116 666.962 380.659 666.604 380.336 666.135C380.013 665.667 379.84 665.112 379.84 664.543C379.84 663.974 380.013 663.418 380.336 662.95C380.659 662.482 381.116 662.123 381.648 661.922Z" fill="#CBE1FD"/>
<path d="M358.772 667.372C360.315 667.372 361.566 666.119 361.566 664.573C361.566 663.027 360.315 661.773 358.772 661.773C357.228 661.773 355.977 663.027 355.977 664.573C355.977 666.119 357.228 667.372 358.772 667.372Z" fill="#CBE1FD"/>
<path d="M346.322 667.388C347.866 667.388 349.117 666.135 349.117 664.589C349.117 663.042 347.866 661.789 346.322 661.789C344.779 661.789 343.527 663.042 343.527 664.589C343.527 666.135 344.779 667.388 346.322 667.388Z" fill="#CBE1FD"/>
<path d="M335.053 667.884C336.596 667.884 337.848 666.631 337.848 665.085C337.848 663.538 336.596 662.285 335.053 662.285C333.509 662.285 332.258 663.538 332.258 665.085C332.258 666.631 333.509 667.884 335.053 667.884Z" fill="#CBE1FD"/>
<path d="M377.561 658.978C379.104 658.978 380.356 657.724 380.356 656.178C380.356 654.632 379.104 653.379 377.561 653.379C376.017 653.379 374.766 654.632 374.766 656.178C374.766 657.724 376.017 658.978 377.561 658.978Z" fill="#CBE1FD"/>
<path d="M365.111 658.993C366.655 658.993 367.906 657.74 367.906 656.194C367.906 654.648 366.655 653.395 365.111 653.395C363.568 653.395 362.316 654.648 362.316 656.194C362.316 657.74 363.568 658.993 365.111 658.993Z" fill="#CBE1FD"/>
<path d="M352.67 659.005C354.214 659.005 355.465 657.752 355.465 656.206C355.465 654.66 354.214 653.406 352.67 653.406C351.126 653.406 349.875 654.66 349.875 656.206C349.875 657.752 351.126 659.005 352.67 659.005Z" fill="#CBE1FD"/>
<path d="M328.167 659.055C327.934 659.103 327.695 659.121 327.457 659.107V653.516C328.162 653.477 328.857 653.706 329.4 654.159C329.943 654.611 330.295 655.253 330.385 655.954C330.475 656.656 330.297 657.366 329.885 657.942C329.474 658.517 328.86 658.915 328.167 659.055Z" fill="#CBE1FD"/>
<path d="M340.064 659.091C341.608 659.091 342.859 657.838 342.859 656.292C342.859 654.746 341.608 653.492 340.064 653.492C338.521 653.492 337.27 654.746 337.27 656.292C337.27 657.838 338.521 659.091 340.064 659.091Z" fill="#CBE1FD"/>
<path d="M373.221 685.165C374.764 685.165 376.016 683.912 376.016 682.366C376.016 680.82 374.764 679.566 373.221 679.566C371.677 679.566 370.426 680.82 370.426 682.366C370.426 683.912 371.677 685.165 373.221 685.165Z" fill="#CBE1FD"/>
<path d="M360.779 685.177C362.323 685.177 363.574 683.924 363.574 682.378C363.574 680.831 362.323 679.578 360.779 679.578C359.236 679.578 357.984 680.831 357.984 682.378C357.984 683.924 359.236 685.177 360.779 685.177Z" fill="#CBE1FD"/>
<path d="M348.322 685.193C349.866 685.193 351.117 683.939 351.117 682.393C351.117 680.847 349.866 679.594 348.322 679.594C346.779 679.594 345.527 680.847 345.527 682.393C345.527 683.939 346.779 685.193 348.322 685.193Z" fill="#CBE1FD"/>
<path d="M337.061 685.696C338.604 685.696 339.856 684.443 339.856 682.897C339.856 681.351 338.604 680.098 337.061 680.098C335.517 680.098 334.266 681.351 334.266 682.897C334.266 684.443 335.517 685.696 337.061 685.696Z" fill="#CBE1FD"/>
<path d="M381.654 672.12V675.846C381.277 676.27 380.781 676.568 380.231 676.703C379.68 676.837 379.102 676.801 378.573 676.599C378.044 676.397 377.588 676.039 377.267 675.571C376.946 675.104 376.773 674.55 376.773 673.983C376.773 673.416 376.946 672.862 377.267 672.395C377.588 671.927 378.044 671.569 378.573 671.367C379.102 671.165 379.68 671.129 380.231 671.263C380.781 671.398 381.277 671.696 381.654 672.12Z" fill="#CBE1FD"/>
<path d="M367.107 676.798C368.651 676.798 369.902 675.545 369.902 673.999C369.902 672.453 368.651 671.199 367.107 671.199C365.564 671.199 364.312 672.453 364.312 673.999C364.312 675.545 365.564 676.798 367.107 676.798Z" fill="#CBE1FD"/>
<path d="M354.666 676.814C356.21 676.814 357.461 675.56 357.461 674.014C357.461 672.468 356.21 671.215 354.666 671.215C353.122 671.215 351.871 672.468 351.871 674.014C351.871 675.56 353.122 676.814 354.666 676.814Z" fill="#CBE1FD"/>
<path d="M330.163 676.857C329.665 676.959 329.148 676.924 328.669 676.754C328.189 676.584 327.765 676.287 327.441 675.895V672.332C327.726 671.987 328.089 671.716 328.5 671.54C328.911 671.365 329.358 671.291 329.803 671.324C330.248 671.357 330.679 671.497 331.06 671.731C331.44 671.966 331.759 672.288 331.99 672.671C332.22 673.054 332.356 673.487 332.385 673.934C332.414 674.38 332.335 674.827 332.156 675.237C331.978 675.647 331.703 676.008 331.356 676.29C331.009 676.572 330.6 676.766 330.163 676.857Z" fill="#CBE1FD"/>
<path d="M342.061 676.9C343.604 676.9 344.856 675.646 344.856 674.1C344.856 672.554 343.604 671.301 342.061 671.301C340.517 671.301 339.266 672.554 339.266 674.1C339.266 675.646 340.517 676.9 342.061 676.9Z" fill="#CBE1FD"/>
<path d="M370.129 691.548C370.129 691.782 370.1 692.016 370.042 692.243H364.623C364.568 692.017 364.539 691.786 364.539 691.553C364.539 690.811 364.834 690.099 365.358 689.574C365.882 689.049 366.593 688.754 367.334 688.754C368.075 688.754 368.786 689.049 369.31 689.574C369.834 690.099 370.129 690.811 370.129 691.553V691.548Z" fill="#CBE1FD"/>
<path d="M380.02 688.743C379.233 689.826 378.201 690.707 377.008 691.313C377.062 690.611 377.378 689.956 377.894 689.478C378.41 689 379.087 688.734 379.789 688.734C379.865 688.734 379.944 688.737 380.02 688.743Z" fill="#CBE1FD"/>
<path d="M357.616 692.246H352.192C352.18 692.206 352.171 692.165 352.165 692.124C352.018 691.396 352.165 690.64 352.574 690.022C352.984 689.403 353.622 688.973 354.348 688.825C355.074 688.678 355.829 688.825 356.446 689.235C357.064 689.645 357.493 690.284 357.641 691.011C357.726 691.42 357.717 691.842 357.616 692.246Z" fill="#CBE1FD"/>
<path d="M345.163 692.246H339.737C339.737 692.213 339.718 692.175 339.71 692.139C339.622 691.727 339.629 691.3 339.729 690.891C339.829 690.481 340.02 690.099 340.289 689.774C340.557 689.449 340.895 689.189 341.277 689.013C341.66 688.837 342.077 688.75 342.498 688.758C342.919 688.767 343.332 688.87 343.708 689.061C344.083 689.251 344.411 689.525 344.666 689.86C344.921 690.195 345.098 690.584 345.182 690.997C345.266 691.41 345.256 691.837 345.152 692.246H345.163Z" fill="#CBE1FD"/>
<path d="M332.647 691.563C331.3 690.994 330.122 690.086 329.227 688.928L329.3 688.911C330.025 688.764 330.779 688.911 331.397 689.32C332.014 689.729 332.444 690.366 332.593 691.092C332.625 691.247 332.643 691.405 332.647 691.563Z" fill="#CBE1FD"/>
<path d="M251.111 677.082H310.566C311.101 677.082 311.535 676.646 311.535 676.109V674.551C311.535 674.014 311.101 673.578 310.566 673.578H251.111C250.576 673.578 250.142 674.014 250.142 674.551V676.109C250.142 676.646 250.576 677.082 251.111 677.082Z" fill="#88BED7"/>
<path d="M303.752 654.246H282.339C282.339 654.246 279.775 659.767 265.777 661.205C250.149 662.816 251.259 673.581 251.259 673.581H309.829C309.829 673.581 312.653 665.433 303.752 654.246Z" fill="#40465C"/>
<path d="M208.968 654.246H187.562C187.562 654.246 184.999 660.117 171.001 661.567C155.45 663.174 156.483 673.581 156.483 673.581H215.053C215.053 673.581 217.869 665.433 208.968 654.246Z" fill="#40465C"/>
<path d="M155.988 677.082H216.155C216.691 677.082 217.125 676.646 217.125 676.109V674.551C217.125 674.014 216.691 673.578 216.155 673.578H155.988C155.452 673.578 155.018 674.014 155.018 674.551V676.109C155.018 676.646 155.452 677.082 155.988 677.082Z" fill="#88BED7"/>
<path d="M285.18 350.203C285.707 367.495 287.892 501.308 303.268 538.889C318.852 576.977 309.925 654.444 309.925 654.444C288.572 657.828 279.897 654.071 279.897 654.071C279.897 654.071 249.123 525.541 227.468 435.564C225.284 470.499 223.01 522.458 226.677 547.817C232.52 588.149 219.808 654.585 219.808 654.585C201.374 657.456 180.236 654.585 180.236 654.585C180.236 654.585 176.072 590.62 173.675 517.653C172.561 483.754 166.015 359.175 166.294 350.915L285.18 350.203Z" fill="#88BED7"/>
<path d="M246.228 182.911C251.031 182.911 296.584 192.018 296.543 211.923C296.498 233.726 273.425 305.511 275.319 318.673C277.214 331.835 289.581 349.239 283.89 351.74C268.554 358.487 217.359 363.844 166.189 350.749C166.189 350.749 171.527 338.657 162.329 286.131C157.306 257.47 156.136 202.634 160.416 196.923C164.695 191.213 190.466 185.308 199.909 183.552C209.353 181.797 246.228 182.911 246.228 182.911Z" fill="#88BED7"/>
<path d="M244.711 182.75C243.571 189.348 230.966 338.984 247.23 413.438C247.23 413.438 273.606 417.05 300.566 406.881C300.566 406.881 285.256 313.297 284.301 297.708C283.347 282.12 295.261 201.858 288.05 197.437C264.096 182.75 244.711 182.75 244.711 182.75Z" fill="white"/>
<path d="M198.174 183.77C198.174 183.77 201.789 325.902 202.592 412.706C202.592 412.706 176.587 419.236 154.148 409.068C154.148 409.068 162.964 303.999 163.09 290.617C163.217 277.235 156.303 198.054 163.878 194.024C180.175 185.35 198.174 183.77 198.174 183.77Z" fill="white"/>
<path d="M317.917 315.982C337.041 291.444 314.83 199.585 282.528 195.552C279.114 195.127 271.929 197.722 271.446 219.252C271.045 237.182 278.535 271.375 282.22 287.045C255.052 290.136 213.965 300.696 207.832 301.259C200.922 301.892 205.131 324.507 212.159 325.368C223.453 326.751 295.2 332.753 317.917 315.982Z" fill="white"/>
<path d="M205.034 304.456C204.38 299.766 254.012 291.812 281.19 287.633C277.331 270.937 273.608 242.902 273.608 242.902" stroke="#E4EFFD" stroke-width="0.400028" stroke-miterlimit="10"/>
<path d="M167.598 319.852L196.597 279.684" stroke="black" stroke-width="0.400028" stroke-miterlimit="10"/>
<path d="M209.033 306.123C205.663 303.141 185.473 298.407 183.307 299.82C181.141 301.232 163.926 305.083 163.926 305.083C163.926 305.083 164.394 309.235 171.248 308.315C179.213 307.241 180.951 308.874 180.951 308.874C180.951 308.874 179.974 313.291 182.504 314.886C185.034 316.482 181.824 318.942 185.372 322.084C187.453 323.922 187.601 326.278 190.261 326.699C192.921 327.12 207.406 319.852 209.928 314.771C212.061 310.454 211.017 307.901 209.033 306.123Z" fill="#E18C32"/>
<path d="M98.0887 301.42C92.494 296.458 82.0921 269.105 99.6304 269.135C103.527 269.135 113.134 270.511 124.053 273.03C127.872 249.99 135.665 213.896 148.241 203.276C155.106 197.476 165.125 193.357 168.535 192.209C190.13 184.948 184.298 334.569 150.741 328.702C139.499 326.719 108.439 310.589 98.0887 301.42Z" fill="white"/>
<path d="M160.404 294.652C161.976 284.781 158.868 268.63 158.227 245.18" stroke="#E4EFFD" stroke-width="0.400028" stroke-miterlimit="10"/>
<path d="M137.366 350.103H200.178C200.702 350.102 201.216 349.963 201.669 349.699C202.122 349.436 202.498 349.056 202.758 348.6C203.017 348.144 203.152 347.626 203.149 347.101C203.145 346.575 203.004 346.06 202.738 345.607L153.098 260.95C152.622 260.139 151.943 259.466 151.128 258.999C150.312 258.531 149.39 258.285 148.451 258.285H85.6385C85.1145 258.285 84.5996 258.423 84.1461 258.687C83.6926 258.951 83.3167 259.33 83.0564 259.786C82.7962 260.243 82.6608 260.76 82.6641 261.286C82.6674 261.812 82.8093 262.327 83.0752 262.781L132.718 347.434C133.194 348.247 133.873 348.921 134.688 349.389C135.503 349.857 136.426 350.103 137.366 350.103Z" fill="#6562CE"/>
<path d="M128.347 300.588L132.485 307.782C132.638 308.039 132.849 308.257 133.102 308.418C133.354 308.578 133.64 308.677 133.938 308.706H139.688C139.986 308.736 140.272 308.835 140.524 308.995C140.776 309.156 140.988 309.374 141.141 309.631L144.447 315.379C144.601 315.636 144.812 315.853 145.064 316.014C145.316 316.175 145.602 316.274 145.9 316.303H153.062C153.571 316.303 153.746 315.889 153.434 315.379L150.124 309.631C149.83 309.12 150.005 308.706 150.514 308.706H156.246C156.755 308.706 156.929 308.293 156.617 307.782L152.479 300.588C152.326 300.33 152.114 300.113 151.862 299.952C151.61 299.792 151.324 299.693 151.026 299.663H145.316C145.019 299.633 144.733 299.534 144.481 299.373C144.229 299.213 144.018 298.996 143.864 298.739L140.558 292.991C140.404 292.735 140.192 292.518 139.94 292.358C139.688 292.198 139.402 292.1 139.105 292.07H131.935C131.426 292.07 131.252 292.484 131.545 292.991L134.859 298.739C135.152 299.25 134.978 299.663 134.469 299.663H128.733C128.224 299.663 128.053 300.073 128.347 300.588Z" fill="#8281D8"/>
<path d="M103.41 290.454C102.853 292.862 102.641 293.972 100.668 294.666C98.5507 296.216 94.7243 296.6 89.8949 296.731C86.1539 296.835 86.9229 290.1 86.9229 290.1C85.645 289.183 85.2363 286.372 85.9905 283.893C85.9905 283.893 83.4977 281.634 84.7794 277.642C84.7794 277.642 82.7733 275.152 83.5497 272.185C83.9881 270.522 89.0293 270.321 92.6402 270.258C95.1441 270.097 97.1613 270.041 98.2127 269.989C99.3271 269.933 100.687 272.248 100.527 275.517C101.229 276.322 101.659 277.33 101.753 278.395C101.983 281.206 103.287 285.477 102.789 288.31C102.578 289.272 103.514 290.018 103.41 290.454Z" fill="#E18C32"/>
<path d="M85.7203 271.405C88.1684 271.114 96.2336 270.107 98.1691 269.981C100.903 269.802 102.129 275.408 98.6446 275.826C94.2445 276.899 89.745 277.51 85.2188 277.648" stroke="#D97802" stroke-width="0.160011" stroke-miterlimit="10" stroke-linecap="round"/>
<path d="M86.6289 283.787C98.3125 282.859 100.619 281.89 100.619 281.89C102.325 281.745 102.774 275.438 98.6542 275.822" stroke="#D97802" stroke-width="0.160011" stroke-miterlimit="10" stroke-linecap="round"/>
<path d="M87.4453 290.008C98.4936 289.326 102.023 288.029 102.023 288.029C103.613 287.776 103.88 281.36 100.619 281.886" stroke="#D97802" stroke-width="0.160011" stroke-miterlimit="10" stroke-linecap="round"/>
<path d="M99.0828 288.796C99.0828 288.796 102.705 287.387 103.307 289.724C104.377 293.88 99.5918 295.293 89.6914 296.255" stroke="#D97802" stroke-width="0.160011" stroke-miterlimit="10" stroke-linecap="round"/>
<path d="M192.943 247.715H165.564C164.739 247.715 164.07 248.386 164.07 249.213V264.325C164.07 265.152 164.739 265.823 165.564 265.823H192.943C193.768 265.823 194.436 265.152 194.436 264.325V249.213C194.436 248.386 193.768 247.715 192.943 247.715Z" fill="#E4EFFD"/>
<path d="M181.067 241.191H177.434V249.593H181.067V241.191Z" fill="#85C3D3"/>
<path d="M174.341 251.258H167.762V259.178H174.341V251.258Z" fill="white"/>
<path d="M190.535 251.258H176.422V253.089H190.535V251.258Z" fill="white"/>
<path d="M190.535 254.305H176.422V256.135H190.535V254.305Z" fill="white"/>
<path d="M190.535 257.352H176.422V259.182H190.535V257.352Z" fill="white"/>
<path d="M190.546 260.449H167.762V262.28H190.546V260.449Z" fill="white"/>
<path d="M229.436 250.091C227.901 249.569 226.61 248.502 225.804 247.091C224.999 245.68 224.735 244.023 225.063 242.43L229.566 221.795C231.869 211.585 242.739 205.766 252.847 209.337C262.959 212.904 267.804 224.27 263.227 233.678L253.858 252.599C253.119 254.042 251.882 255.165 250.377 255.758C248.873 256.351 247.204 256.373 245.685 255.82" stroke="#6562CE" stroke-width="0.400028" stroke-miterlimit="10"/>
<path d="M232.035 248.087L230.705 247.619C229.845 247.316 228.904 247.77 228.602 248.632L228.601 248.636C228.299 249.498 228.751 250.443 229.611 250.746L230.941 251.214C231.8 251.517 232.742 251.063 233.044 250.201L233.045 250.197C233.347 249.335 232.894 248.39 232.035 248.087Z" stroke="#6562CE" stroke-width="0.398525" stroke-miterlimit="10"/>
<path d="M245.205 253.925L243.871 253.454C243.008 253.149 242.062 253.604 241.759 254.47L241.758 254.473C241.454 255.339 241.907 256.287 242.77 256.592L244.104 257.063C244.967 257.368 245.912 256.913 246.216 256.048L246.217 256.044C246.521 255.179 246.068 254.23 245.205 253.925Z" stroke="#6562CE" stroke-width="0.400028" stroke-miterlimit="10"/>
<path d="M229.008 224.307C229.008 224.307 237.274 212.823 250.034 217.329C262.595 221.761 262.071 235.967 262.071 235.967" stroke="#6562CE" stroke-width="0.400028" stroke-miterlimit="10"/>
<path d="M187.512 218.33C187.512 218.33 179.258 180.074 204.768 175.758" stroke="#6562CE" stroke-width="0.400028" stroke-miterlimit="10" stroke-linecap="round"/>
<path d="M190.34 234.18C194.778 234.18 198.376 230.57 198.376 226.117C198.376 221.665 194.778 218.055 190.34 218.055C185.902 218.055 182.305 221.665 182.305 226.117C182.305 230.57 185.902 234.18 190.34 234.18Z" fill="white"/>
<path d="M190.25 234.215C194.688 234.215 198.286 230.606 198.286 226.153C198.286 221.7 194.688 218.09 190.25 218.09C185.812 218.09 182.215 221.7 182.215 226.153C182.215 230.606 185.812 234.215 190.25 234.215Z" stroke="#EFAF00" stroke-width="0.320022" stroke-miterlimit="10"/>
<path d="M190.217 231.459C193.166 231.459 195.556 229.061 195.556 226.103C195.556 223.144 193.166 220.746 190.217 220.746C187.269 220.746 184.879 223.144 184.879 226.103C184.879 229.061 187.269 231.459 190.217 231.459Z" fill="#EFAF00"/>
<path d="M253.193 209.186C253.193 209.186 266.566 176.223 240.699 173.613" stroke="#6562CE" stroke-width="0.400028" stroke-miterlimit="10" stroke-linecap="round"/>
<path d="M236.599 151.512C236.599 151.512 233.297 167.045 244.709 182.745C244.709 182.745 224.99 192.869 198.168 183.77C198.168 183.77 213.971 178.309 207.218 152.157L236.599 151.512Z" fill="#E18C32"/>
<path d="M235.96 151.527C235.978 152.56 235.978 153.421 235.96 154.043C235.96 154.043 234.797 165.826 228.749 171.63C224.05 176.137 209.487 180.74 204.758 178.448C208.635 170.249 209.506 160.941 207.217 152.161L235.96 151.527Z" fill="#D97802"/>
<path d="M236.349 153.856L236.304 152.532L236.111 146.632C236.111 146.632 229.922 146.87 232.125 137.529C234.532 127.33 230.498 122.559 220.007 126.607C212.417 129.533 205.199 131.867 200.154 127.759C199.227 126.992 198.424 126.085 197.773 125.071C194.949 120.774 196.194 120.39 200.745 117.568C206.447 114.042 212.737 106.814 226.865 109.807C238.151 112.2 238.73 121.717 238.73 121.717C238.73 121.717 245.499 120.196 247.018 127.308C248.946 136.236 236.349 153.856 236.349 153.856Z" fill="#40465C"/>
<path d="M238.406 122.053C238.406 122.053 241.978 118.568 245.683 120.866" stroke="#40465C" stroke-width="0.320022" stroke-miterlimit="10"/>
<path d="M235.772 154.577C234.2 157.149 229.56 164.492 227.25 165.365C220.288 168.004 209.143 170.307 205.428 168.384C202.887 167.072 202.746 166.99 199.763 154.007C198.098 146.753 199.02 133.572 200.171 127.753C205.216 131.854 212.431 129.528 220.024 126.602C230.515 122.553 234.549 127.325 232.142 137.523C230.24 145.586 234.59 146.511 235.816 146.615C236.047 146.354 238.874 143.26 241.504 145.56C243.343 147.174 237.005 153.388 235.772 154.577Z" fill="#E18C32"/>
<path d="M203.271 145.066C204.337 145.066 205.201 144.199 205.201 143.129C205.201 142.059 204.337 141.191 203.271 141.191C202.204 141.191 201.34 142.059 201.34 143.129C201.34 144.199 202.204 145.066 203.271 145.066Z" fill="#40465C"/>
<path d="M219.259 145.066C220.325 145.066 221.189 144.199 221.189 143.129C221.189 142.059 220.325 141.191 219.259 141.191C218.193 141.191 217.328 142.059 217.328 143.129C217.328 144.199 218.193 145.066 219.259 145.066Z" fill="#40465C"/>
<path d="M210.647 141.391L207.961 152.551H212.434" stroke="#40465C" stroke-width="0.384827" stroke-linecap="round" stroke-linejoin="round"/>
<path d="M210.699 159.872C210.699 159.872 216.046 161.165 218.422 155.949" stroke="#40465C" stroke-width="0.384827" stroke-linecap="round" stroke-linejoin="round"/>
</g>
<defs>
<clipPath id="clip0">
<rect width="445" height="693" fill="white"/>
</clipPath>
</defs>
</svg>
