<svg width="16" height="16" viewBox="0 0 16 16" fill="none" xmlns="http://www.w3.org/2000/svg">
<path d="M14.1668 12.3133L13.0668 12.5733C12.8202 12.6333 12.6268 12.82 12.5735 13.0666L12.3402 14.0466C12.2135 14.58 11.5335 14.7466 11.1802 14.3266L9.18683 12.0333C9.02683 11.8466 9.11349 11.5533 9.35349 11.4933C10.5335 11.2066 11.5935 10.5466 12.3735 9.60664C12.5002 9.4533 12.7268 9.4333 12.8668 9.5733L14.3468 11.0533C14.8535 11.56 14.6735 12.1933 14.1668 12.3133Z" fill="#FBB6B6"/>
<path d="M1.80011 12.3133L2.90011 12.5733C3.14678 12.6333 3.34011 12.82 3.39344 13.0666L3.62678 14.0466C3.75344 14.58 4.43344 14.7466 4.78678 14.3266L6.78011 12.0333C6.94011 11.8466 6.85344 11.5533 6.61344 11.4933C5.43344 11.2066 4.37344 10.5466 3.59344 9.60664C3.46678 9.4533 3.24011 9.4333 3.10011 9.5733L1.62011 11.0533C1.11344 11.56 1.29344 12.1933 1.80011 12.3133Z" fill="#FBB6B6"/>
<path d="M8.00065 1.33334C5.42065 1.33334 3.33398 3.42001 3.33398 6.00001C3.33398 6.96668 3.62065 7.85334 4.11398 8.59334C4.83398 9.66001 5.97398 10.4133 7.30065 10.6067C7.52732 10.6467 7.76065 10.6667 8.00065 10.6667C8.24065 10.6667 8.47398 10.6467 8.70065 10.6067C10.0273 10.4133 11.1673 9.66001 11.8873 8.59334C12.3807 7.85334 12.6673 6.96668 12.6673 6.00001C12.6673 3.42001 10.5807 1.33334 8.00065 1.33334ZM10.0407 5.85334L9.48732 6.40668C9.39398 6.50001 9.34065 6.68001 9.37398 6.81334L9.53398 7.50001C9.66065 8.04001 9.37398 8.25334 8.89398 7.96668L8.22732 7.57334C8.10732 7.50001 7.90732 7.50001 7.78732 7.57334L7.12065 7.96668C6.64065 8.24668 6.35398 8.04001 6.48065 7.50001L6.64065 6.81334C6.66732 6.68668 6.62065 6.50001 6.52732 6.40668L5.96065 5.85334C5.63398 5.52668 5.74065 5.20001 6.19398 5.12668L6.90732 5.00668C7.02732 4.98668 7.16732 4.88001 7.22065 4.77334L7.61398 3.98668C7.82732 3.56001 8.17398 3.56001 8.38732 3.98668L8.78065 4.77334C8.83398 4.88001 8.97398 4.98668 9.10065 5.00668L9.81398 5.12668C10.2607 5.20001 10.3673 5.52668 10.0407 5.85334Z" fill="#FBB6B6"/>
</svg>
