<svg width="24" height="24" viewBox="0 0 24 24" fill="none" xmlns="http://www.w3.org/2000/svg">
<g clip-path="url(#clip0)">
<path d="M11 7.99997L9.42229 7.21112C9.14458 7.07226 8.83835 6.99997 8.52786 6.99997H7.82843C7.29799 6.99997 6.78929 7.21068 6.41421 7.58576L5.58579 8.41418C5.21071 8.78926 5 9.29796 5 9.8284V14.9296C5 15.5983 5.3342 16.2228 5.8906 16.5937L9.75746 19.1716C10.4944 19.663 11.4668 19.611 12.1472 19.044L17 15" stroke="#B0B7C3" stroke-width="2" stroke-linecap="round"/>
<path d="M14.4541 12.9142C13.8507 12.1062 12.7402 11.8739 11.8635 12.3721L10.0082 13.4266C9.41216 13.7653 8.6633 13.6641 8.17855 13.1794C7.54523 12.546 7.59242 11.5056 8.28048 10.9323L12.4429 7.46353C12.8024 7.164 13.2554 6.99997 13.7233 6.99997H14.5271C14.8376 6.99997 15.1438 7.07226 15.4215 7.21112L17.8936 8.44718C18.5712 8.78597 18.9992 9.47849 18.9992 10.2361V12.9796C18.9992 14.9037 16.5481 15.718 15.3968 14.1764L14.4541 12.9142Z" stroke="#B0B7C3" stroke-width="2" stroke-linecap="square"/>
<path d="M1 17V8.00003" stroke="#B0B7C3" stroke-width="3" stroke-linecap="square"/>
<path d="M1 17V8.00003" stroke="#B0B7C3" stroke-width="3" stroke-linecap="square"/>
<path d="M23 17V8.00003" stroke="#B0B7C3" stroke-width="3" stroke-linecap="square"/>
</g>
<defs>
<clipPath id="clip0">
<rect width="24" height="24" fill="white"/>
</clipPath>
</defs>
</svg>
