<svg width="29" height="29" viewBox="0 0 29 29" fill="none" xmlns="http://www.w3.org/2000/svg">
<path d="M6.81017 9.05922L14.5 1.36938L22.1898 9.05922C23.7107 10.5801 24.7465 12.5179 25.1661 14.6274C25.5857 16.7369 25.3703 18.9235 24.5472 20.9107C23.7241 22.8978 22.3302 24.5962 20.5418 25.7912C18.7534 26.9862 16.6509 27.624 14.5 27.624C12.3491 27.624 10.2466 26.9862 8.45819 25.7912C6.66981 24.5962 5.27593 22.8978 4.45283 20.9107C3.62972 18.9235 3.41435 16.7369 3.83396 14.6274C4.25356 12.5179 5.28929 10.5801 6.81017 9.05922Z" fill="url(#paint0_linear)"/>
<path d="M14.5061 15.197C14.0631 15.197 13.6558 15.0941 13.2844 14.8882C12.9174 14.6824 12.6243 14.3959 12.405 14.029C12.1902 13.6575 12.0827 13.2413 12.0827 12.7803C12.0827 12.3194 12.1902 11.9054 12.405 11.5384C12.6243 11.1715 12.9174 10.8851 13.2844 10.6792C13.6558 10.4733 14.0631 10.3704 14.5061 10.3704C14.9492 10.3704 15.3542 10.4733 15.7212 10.6792C16.0926 10.8851 16.3835 11.1715 16.5939 11.5384C16.8087 11.9054 16.9161 12.3194 16.9161 12.7803C16.9161 13.2413 16.8087 13.6575 16.5939 14.029C16.379 14.3959 16.0881 14.6824 15.7212 14.8882C15.3542 15.0941 14.9492 15.197 14.5061 15.197ZM14.5061 14.1498C14.882 14.1498 15.1819 14.0245 15.4057 13.7739C15.6339 13.5232 15.748 13.1921 15.748 12.7803C15.748 12.3641 15.6339 12.033 15.4057 11.7868C15.1819 11.5362 14.882 11.4109 14.5061 11.4109C14.1257 11.4109 13.8214 11.534 13.5932 11.7801C13.3694 12.0263 13.2575 12.3597 13.2575 12.7803C13.2575 13.1966 13.3694 13.53 13.5932 13.7806C13.8214 14.0267 14.1257 14.1498 14.5061 14.1498ZM13.1623 20.3176H11.4036L11.1216 21.15H9.91999L11.6251 16.4375H12.9542L14.6593 21.15H13.4443L13.1623 20.3176ZM12.867 19.4315L12.283 17.7063L11.7056 19.4315H12.867ZM18.0313 18.7334C18.3043 18.7915 18.5236 18.928 18.6892 19.1428C18.8548 19.3532 18.9375 19.5949 18.9375 19.8678C18.9375 20.2617 18.7988 20.5749 18.5213 20.8077C18.2483 21.0359 17.8657 21.15 17.3734 21.15H15.1783V16.4375H17.2996C17.7784 16.4375 18.1521 16.5472 18.4206 16.7665C18.6936 16.9857 18.8301 17.2834 18.8301 17.6593C18.8301 17.9368 18.7563 18.1672 18.6086 18.3507C18.4654 18.5342 18.273 18.6618 18.0313 18.7334ZM16.3262 18.344H17.0781C17.266 18.344 17.4092 18.3037 17.5077 18.2232C17.6106 18.1381 17.6621 18.0151 17.6621 17.854C17.6621 17.6928 17.6106 17.5698 17.5077 17.4847C17.4092 17.3997 17.266 17.3572 17.0781 17.3572H16.3262V18.344ZM17.172 20.2236C17.3645 20.2236 17.5122 20.1811 17.6151 20.0961C17.7225 20.0066 17.7762 19.879 17.7762 19.7135C17.7762 19.5479 17.7203 19.4181 17.6084 19.3241C17.501 19.2301 17.351 19.1831 17.1586 19.1831H16.3262V20.2236H17.172Z" fill="white"/>
<defs>
<linearGradient id="paint0_linear" x1="7.975" y1="32.3498" x2="25.7133" y2="-7.74995" gradientUnits="userSpaceOnUse">
<stop stop-color="#F65555"/>
<stop offset="1" stop-color="#FBB6B6"/>
</linearGradient>
</defs>
</svg>
