<svg width="446" height="432" viewBox="0 0 446 432" fill="none" xmlns="http://www.w3.org/2000/svg">
<path d="M164.925 189.129H383.129C416.818 189.129 444.129 216.399 444.129 250.039V350.532C444.129 384.171 416.818 411.442 383.129 411.442H164.925C131.235 411.442 103.925 384.171 103.925 350.532V250.039C103.925 216.399 131.235 189.129 164.925 189.129Z" fill="white"/>
<path d="M161.229 193.898H379.433C413.123 193.898 440.434 221.169 440.434 254.808V355.301C440.434 388.941 413.123 416.211 379.433 416.211H161.229C127.54 416.211 100.229 388.941 100.229 355.301V254.808C100.229 221.169 127.54 193.898 161.229 193.898Z" fill="#D9D9F4"/>
<path d="M165.796 189.348H384C417.689 189.348 445 216.618 445 250.258V350.751C445 384.39 417.689 411.661 384 411.661H165.796C132.106 411.661 104.796 384.39 104.796 350.751V250.258C104.796 216.618 132.106 189.348 165.796 189.348Z" stroke="#6562CE" stroke-width="1.15913" stroke-miterlimit="10"/>
<path d="M83.7971 298.983C83.7971 334.004 91.2329 362.388 100.406 362.388C101.282 362.377 102.138 362.134 102.889 361.684C110.891 357.118 117.016 330.783 117.016 298.983C117.016 267.184 110.885 240.857 102.889 236.285C102.138 235.835 101.282 235.592 100.406 235.58C91.2329 235.58 83.7971 263.968 83.7971 298.983Z" fill="#6562CE"/>
<path d="M100.406 362.387C91.2333 362.387 83.7971 334 83.7971 298.983C83.7971 263.967 91.2333 235.58 100.406 235.58C109.579 235.58 117.016 263.967 117.016 298.983C117.016 334 109.579 362.387 100.406 362.387Z" fill="#8281D8"/>
<path d="M100.406 362.387C91.2333 362.387 83.7971 334 83.7971 298.983C83.7971 263.967 91.2333 235.58 100.406 235.58C109.579 235.58 117.016 263.967 117.016 298.983C117.016 334 109.579 362.387 100.406 362.387Z" fill="#6562CE"/>
<path d="M105.704 340.664C96.836 331.837 93.3326 320.99 97.8786 316.437C102.425 311.883 113.299 315.347 122.166 324.174C131.034 333.001 134.537 343.848 129.991 348.401C125.445 352.955 114.571 349.491 105.704 340.664Z" fill="#B4B3E8"/>
<path d="M106.094 341.289C97.2266 332.462 93.7232 321.615 98.2692 317.062C102.815 312.508 113.689 315.972 122.557 324.799C131.425 333.626 134.928 344.473 130.382 349.026C125.836 353.58 114.962 350.116 106.094 341.289Z" stroke="#EFAF00" stroke-width="1.15913" stroke-miterlimit="10"/>
<g opacity="0.7">
<path opacity="0.7" d="M232.177 225.167C232.176 226.126 232.365 227.075 232.732 227.96C233.099 228.846 233.638 229.651 234.316 230.328C234.995 231.006 235.801 231.544 236.688 231.91C237.575 232.277 238.525 232.465 239.485 232.465H248.737C249.706 232.479 250.668 232.301 251.568 231.941C252.467 231.581 253.286 231.045 253.976 230.366C254.667 229.687 255.215 228.878 255.589 227.985C255.964 227.092 256.156 226.134 256.156 225.166C256.156 224.199 255.964 223.241 255.589 222.348C255.215 221.455 254.667 220.646 253.976 219.967C253.286 219.287 252.467 218.752 251.568 218.392C250.668 218.032 249.706 217.854 248.737 217.868H239.485C238.525 217.868 237.575 218.057 236.688 218.424C235.801 218.79 234.995 219.328 234.317 220.006C233.638 220.684 233.1 221.488 232.733 222.374C232.365 223.26 232.176 224.209 232.177 225.167Z" fill="white"/>
<path opacity="0.7" d="M268.787 225.167C268.787 226.126 268.976 227.075 269.343 227.96C269.71 228.845 270.248 229.65 270.926 230.328C271.605 231.005 272.411 231.543 273.297 231.91C274.184 232.276 275.134 232.465 276.094 232.465H397.339C398.308 232.479 399.27 232.301 400.169 231.941C401.069 231.581 401.888 231.045 402.578 230.366C403.268 229.687 403.817 228.878 404.191 227.985C404.565 227.092 404.758 226.134 404.758 225.166C404.758 224.199 404.565 223.241 404.191 222.348C403.817 221.455 403.268 220.646 402.578 219.967C401.888 219.287 401.069 218.752 400.169 218.392C399.27 218.032 398.308 217.854 397.339 217.868H276.101C275.14 217.867 274.189 218.055 273.302 218.422C272.414 218.788 271.608 219.326 270.929 220.004C270.249 220.682 269.711 221.487 269.343 222.373C268.976 223.259 268.787 224.208 268.787 225.167Z" fill="white"/>
</g>
<path d="M117.013 298.983C117.013 330.783 110.882 357.113 102.886 361.684V375.193H127.64C140.256 375.193 150.484 341.074 150.484 298.983C150.484 256.892 140.256 222.773 127.64 222.773H102.889V236.284C110.882 240.857 117.013 267.187 117.013 298.983Z" fill="#6562CE"/>
<path d="M102.89 222.773C115.506 222.773 125.734 256.895 125.734 298.983C125.734 341.071 115.506 375.193 102.89 375.193C90.2735 375.193 80.045 341.074 80.045 298.983C80.045 256.892 90.2718 222.773 102.89 222.773ZM100.407 362.388C101.283 362.376 102.139 362.133 102.89 361.684C110.892 357.117 117.017 330.783 117.017 298.983C117.017 267.184 110.886 240.857 102.89 236.284C102.139 235.835 101.283 235.591 100.407 235.58C91.2338 235.58 83.798 263.968 83.798 298.983C83.798 333.998 91.2338 362.388 100.407 362.388Z" fill="#8281D8"/>
<path d="M61.4096 389.68C61.1385 383.811 70.1849 378.626 81.6151 378.1C93.0454 377.574 102.531 381.905 102.802 387.775C103.073 393.644 94.0269 398.829 82.5967 399.355C71.1664 399.881 61.6806 395.55 61.4096 389.68Z" fill="white" stroke="#EFAF00" stroke-width="1.15913" stroke-miterlimit="10"/>
<path opacity="0.5" d="M195.284 397.712C183.328 397.712 173.635 392.735 173.635 386.595C173.635 380.456 183.328 375.479 195.284 375.479C207.241 375.479 216.934 380.456 216.934 386.595C216.934 392.735 207.241 397.712 195.284 397.712Z" fill="white"/>
<path d="M195.284 397.712C183.328 397.712 173.635 392.735 173.635 386.595C173.635 380.456 183.328 375.479 195.284 375.479C207.241 375.479 216.934 380.456 216.934 386.595C216.934 392.735 207.241 397.712 195.284 397.712Z" stroke="#EFAF00" stroke-width="1.15913" stroke-miterlimit="10"/>
<path opacity="0.5" d="M181.436 351.601C174.622 341.791 173.195 331.001 178.248 327.503C183.3 324.004 192.92 329.121 199.733 338.931C206.547 348.742 207.974 359.532 202.922 363.03C197.869 366.529 188.249 361.412 181.436 351.601Z" fill="white"/>
<path d="M181.436 351.601C174.622 341.791 173.195 331.001 178.248 327.503C183.3 324.004 192.92 329.121 199.733 338.931C206.547 348.742 207.974 359.532 202.922 363.03C197.869 366.529 188.249 361.412 181.436 351.601Z" stroke="#EFAF00" stroke-width="1.15913" stroke-miterlimit="10"/>
<path opacity="0.5" d="M259.755 385.487C255.741 380.836 259.828 370.747 268.884 362.953C277.941 355.158 288.537 352.609 292.551 357.259C296.566 361.91 292.479 371.999 283.422 379.793C274.366 387.588 263.769 390.137 259.755 385.487Z" fill="white"/>
<path d="M259.755 385.487C255.741 380.836 259.828 370.747 268.884 362.953C277.941 355.158 288.537 352.609 292.551 357.259C296.566 361.91 292.479 371.999 283.422 379.793C274.366 387.588 263.769 390.137 259.755 385.487Z" stroke="#EFAF00" stroke-width="1.15913" stroke-miterlimit="10"/>
<path opacity="0.5" d="M352.789 333C350.999 327.126 358.82 319.547 370.258 316.07C381.696 312.593 392.421 314.536 394.211 320.41C396.002 326.283 388.181 333.863 376.742 337.34C365.304 340.817 354.58 338.873 352.789 333Z" fill="white"/>
<path d="M352.789 333C350.999 327.126 358.82 319.547 370.258 316.07C381.696 312.593 392.421 314.536 394.211 320.41C396.002 326.283 388.181 333.863 376.742 337.34C365.304 340.817 354.58 338.873 352.789 333Z" stroke="#EFAF00" stroke-width="1.15913" stroke-miterlimit="10"/>
<path d="M344.479 390.72C335.57 382.758 331.672 372.595 335.773 368.02C339.874 363.445 350.42 366.191 359.33 374.153C368.239 382.116 372.137 392.279 368.036 396.854C363.935 401.429 353.389 398.682 344.479 390.72Z" fill="#F5CF66"/>
<path d="M344.479 390.72C335.57 382.758 331.672 372.595 335.773 368.02C339.874 363.445 350.42 366.191 359.33 374.153C368.239 382.116 372.137 392.279 368.036 396.854C363.935 401.429 353.389 398.682 344.479 390.72Z" stroke="#EFAF00" stroke-width="1.15913" stroke-miterlimit="10"/>
<path opacity="0.5" d="M386.048 399.061C382.034 394.41 386.121 384.322 395.177 376.527C404.234 368.732 414.83 366.183 418.844 370.833C422.859 375.484 418.772 385.573 409.715 393.368C400.659 401.162 390.062 403.711 386.048 399.061Z" fill="white"/>
<path d="M386.048 399.061C382.034 394.41 386.121 384.322 395.177 376.527C404.234 368.732 414.83 366.183 418.844 370.833C422.859 375.484 418.772 385.573 409.715 393.368C400.659 401.162 390.062 403.711 386.048 399.061Z" stroke="#EFAF00" stroke-width="1.15913" stroke-miterlimit="10"/>
<g style="mix-blend-mode:multiply">
<path d="M289.311 389.989C288.518 383.901 297.487 377.717 309.343 376.178C321.2 374.638 331.455 378.325 332.248 384.414C333.041 390.502 324.072 396.686 312.215 398.225C300.358 399.765 290.104 396.078 289.311 389.989Z" fill="#E8E8F8"/>
</g>
<path d="M289.311 389.989C288.518 383.901 297.487 377.717 309.343 376.178C321.2 374.638 331.455 378.325 332.248 384.414C333.041 390.502 324.072 396.686 312.215 398.225C300.358 399.765 290.104 396.078 289.311 389.989Z" stroke="#EFAF00" stroke-width="1.15913" stroke-miterlimit="10"/>
<g style="mix-blend-mode:multiply">
<path d="M408.682 359.635C396.965 357.366 388.413 350.65 389.581 344.633C390.749 338.616 401.195 335.577 412.913 337.846C424.63 340.114 433.182 346.831 432.014 352.848C430.845 358.864 420.399 361.903 408.682 359.635Z" fill="#E8E8F8"/>
</g>
<path d="M408.682 359.635C396.965 357.366 388.413 350.65 389.581 344.633C390.749 338.616 401.195 335.577 412.913 337.846C424.63 340.114 433.182 346.831 432.014 352.848C430.845 358.864 420.399 361.903 408.682 359.635Z" stroke="#EFAF00" stroke-width="1.1571" stroke-miterlimit="10"/>
<path opacity="0.5" d="M357.118 366.556C347.829 359.04 343.437 349.08 347.308 344.31C351.179 339.54 361.848 341.766 371.137 349.283C380.427 356.799 384.819 366.759 380.948 371.529C377.076 376.3 366.408 374.073 357.118 366.556Z" fill="white"/>
<path d="M357.118 366.556C347.829 359.04 343.437 349.08 347.308 344.31C351.179 339.54 361.848 341.766 371.137 349.283C380.427 356.799 384.819 366.759 380.948 371.529C377.076 376.3 366.408 374.073 357.118 366.556Z" stroke="#EFAF00" stroke-width="1.15913" stroke-miterlimit="10"/>
<g style="mix-blend-mode:multiply">
<path d="M225.523 384.193C218.389 374.612 216.606 363.876 221.54 360.212C226.475 356.549 236.258 361.347 243.392 370.928C250.525 380.508 252.308 391.245 247.374 394.908C242.44 398.571 232.656 393.774 225.523 384.193Z" fill="#E8E8F8"/>
</g>
<path d="M225.523 384.193C218.389 374.612 216.606 363.876 221.54 360.212C226.475 356.549 236.258 361.347 243.392 370.928C250.525 380.508 252.308 391.245 247.374 394.908C242.44 398.571 232.656 393.774 225.523 384.193Z" stroke="#EFAF00" stroke-width="1.15913" stroke-miterlimit="10"/>
<path d="M18.354 401.329C8.21742 396.028 2.21311 387.512 4.94299 382.306C7.67288 377.101 18.1032 377.178 28.2398 382.479C38.3764 387.779 44.3807 396.296 41.6509 401.501C38.921 406.706 28.4906 406.629 18.354 401.329Z" fill="#F5CF66"/>
<path d="M18.5493 401.329C8.41273 396.028 2.40842 387.512 5.13831 382.306C7.86819 377.101 18.2985 377.178 28.4351 382.479C38.5717 387.779 44.5761 396.296 41.8462 401.501C39.1163 406.706 28.6859 406.629 18.5493 401.329Z" stroke="#EFAF00" stroke-width="1.15913" stroke-miterlimit="10"/>
<path d="M304.351 354.506C293.759 348.967 287.485 340.068 290.337 334.629C293.19 329.19 304.089 329.271 314.681 334.809C325.273 340.348 331.547 349.247 328.694 354.686C325.842 360.125 314.943 360.044 304.351 354.506Z" fill="#F5CF66"/>
<path d="M304.562 354.506C293.97 348.967 287.696 340.068 290.548 334.629C293.401 329.19 304.3 329.271 314.892 334.809C325.484 340.348 331.758 349.247 328.905 354.686C326.053 360.125 315.154 360.044 304.562 354.506Z" stroke="#EFAF00" stroke-width="1.15913" stroke-miterlimit="10"/>
<path d="M147.429 386.319C143.197 381.865 146.799 371.593 155.473 363.376C164.147 355.159 174.61 352.109 178.842 356.564C183.073 361.018 179.472 371.29 170.798 379.506C162.123 387.723 151.661 390.773 147.429 386.319Z" fill="#F5CF66"/>
<path d="M147.491 386.123C143.26 381.669 146.861 371.397 155.536 363.181C164.21 354.964 174.672 351.914 178.904 356.368C183.136 360.823 179.534 371.094 170.86 379.311C162.186 387.528 151.723 390.578 147.491 386.123Z" stroke="#EFAF00" stroke-width="1.15913" stroke-miterlimit="10"/>
<path d="M99.8913 430.387C88.4514 430.144 79.2792 425.185 79.4045 419.31C79.5298 413.436 88.9051 408.871 100.345 409.114C111.785 409.357 120.957 414.317 120.832 420.191C120.706 426.066 111.331 430.631 99.8913 430.387Z" fill="#D9D9F4"/>
<path d="M100.544 430.561C89.1038 430.318 79.9315 425.359 80.0568 419.484C80.1821 413.61 89.5575 409.045 100.997 409.288C112.437 409.531 121.609 414.491 121.484 420.365C121.359 426.239 111.983 430.804 100.544 430.561Z" stroke="#EFAF00" stroke-width="1.15913" stroke-miterlimit="10"/>
<path d="M71.6416 370.987C68.2328 366.198 73.0305 356.95 82.3575 350.331C91.6846 343.713 102.009 342.23 105.418 347.019C108.826 351.809 104.029 361.057 94.7018 367.675C85.3747 374.294 75.0503 375.777 71.6416 370.987Z" fill="#F5CF66"/>
<path d="M71.6416 370.987C68.2328 366.198 73.0305 356.95 82.3575 350.331C91.6846 343.713 102.009 342.23 105.418 347.019C108.826 351.809 104.029 361.057 94.7018 367.675C85.3747 374.294 75.0503 375.777 71.6416 370.987Z" stroke="#EFAF00" stroke-width="1.15913" stroke-miterlimit="10"/>
<path d="M249.513 111.271C250.412 111.76 251.486 111.803 252.737 111.239C253.739 110.983 254.611 110.369 255.187 109.512C256.312 108.428 257.327 107.238 258.22 105.957C281.589 73.3417 282.688 54.3305 283.215 49.4334C284.171 40.5523 273.116 41.2796 267.145 48.618C261.708 55.2959 250.541 87.1215 247.258 95.36L247.18 95.3519C236.466 94.0473 200.507 90.4384 199.514 94.5854C197.794 101.784 231.648 109.804 249.513 111.271Z" fill="#E4EFFD"/>
<path d="M196.8 94.426C196.8 94.426 196.727 98.3773 197.862 98.829C198.997 99.2807 197.88 100.507 199.539 101.512C200.519 102.1 201.104 102.179 202.118 101.746C204.213 100.853 208.734 98.3561 209.386 96.1285C209.936 94.245 208.553 93.609 207.8 92.823C206.957 91.9424 204.546 90.5399 200.348 90.2333C196.149 89.9267 194.601 88.9141 194.601 88.9141C194.601 88.9141 193.902 91.3276 196.157 92.0255C198.412 92.7235 197.945 93.9987 196.8 94.426Z" fill="#E18C32"/>
<path d="M269.73 7.88292C269.73 7.88292 281.489 -9.25458 297.574 7.00721C303.322 12.8175 296.037 29.5832 296.037 29.5832C296.037 29.5832 312.542 25.8439 315.442 35.9317C320.768 54.4505 290.82 52.6583 286.414 42.5395C282.008 32.4207 279.958 29.9828 279.958 29.9828C279.958 29.9828 266.47 28.0601 262.341 19.1139C260.963 16.1231 260.584 7.88292 269.73 7.88292Z" fill="#EFAF00"/>
<path d="M226.441 192.057C245.42 192.901 263.938 193.166 297.466 192.578C320.291 192.181 325.409 175.734 325.762 165.63C325.762 142.107 310.193 114.223 309.873 111.708C309.231 106.664 311.682 78.8634 315.536 63.5572C319.11 49.3616 308.974 46.909 303.438 44.3634C297.902 41.8178 289.719 42.1081 286.409 42.5467C275.957 43.9263 276.153 44.3405 273.18 45.4217C270.631 46.348 259.601 75.4861 258.903 82.0319C258.206 88.5777 259.23 91.9958 263.313 94.6947C264.481 95.4676 268.632 108.23 267.683 117.828C267.193 122.721 264.08 129.896 261.538 136.528C247.819 135.463 227.607 135.876 222.934 135.876C222.934 135.876 229.807 141.334 229.732 164.233C229.676 182.011 226.441 192.057 226.441 192.057Z" fill="#88BED7"/>
<g style="mix-blend-mode:multiply">
<path d="M294.438 125.994C299.695 144.117 283.277 186.875 250.491 193.461L295.135 206.118L297.616 192.776C304.428 159.509 302.991 140.415 298.17 123.796C297.941 123.013 297.718 122.223 297.5 121.427C285.83 120.274 274.007 118.23 267.777 115.305C267.744 115.42 267.716 115.525 267.692 115.631C266.841 118.905 294.438 125.994 294.438 125.994Z" fill="#E4EFFD"/>
</g>
<path d="M231.163 278.631C234.429 264.715 238.771 233.756 236.518 216.286C234.884 203.635 229.894 196.212 229.926 181.512C229.938 176.403 232.072 168.691 219.985 166.687C207.898 164.683 206.031 179.338 206.92 183.743C207.469 186.465 211.065 207.624 212.706 214.977C214.112 221.285 222.92 261.429 223.372 266.976C224.176 276.829 223.171 285.353 218.781 290.433C214.362 295.55 217.027 297.201 217.027 297.201C217.027 297.201 226.826 291.274 232.414 287.817C232.876 287.531 233.276 287.154 233.588 286.709C233.9 286.263 234.118 285.759 234.229 285.227C234.34 284.695 234.341 284.146 234.232 283.613C234.124 283.081 233.908 282.576 233.598 282.129L231.163 278.631Z" fill="#D97802"/>
<path d="M231.381 278.586C231.381 278.586 241.072 285.186 235.193 288.838C232.676 290.402 213.445 302.197 213.445 302.197C213.445 302.197 209.785 297.995 215.712 293.129C216.529 292.452 218.409 290.89 218.409 290.89C218.409 290.89 217.801 295.203 222.808 291.467C231.185 285.208 227.976 279.39 231.381 278.586Z" fill="#6562CE"/>
<path d="M237.511 149.81C239.384 164.392 246.387 170.963 249.647 183.298C254.033 199.887 253.047 228.067 251.388 242.698C251.043 245.739 257.127 244.963 254.847 251.872C248.706 270.479 246.158 264.002 246.139 263.729C244.391 238.71 226.165 192.466 223.902 185.279C221.638 178.092 215.661 156.751 214.766 154.132C213.314 149.877 213.485 135.98 225.729 136.404C237.973 136.828 236.859 144.745 237.511 149.81Z" fill="#E18C32"/>
<path d="M251.568 243.584C251.568 243.584 263.078 244.665 259.699 250.701C258.254 253.285 246.423 274.589 246.423 274.589C246.423 274.589 241.186 272.675 244.019 265.557C244.413 264.567 245.888 261.018 245.888 261.018C245.888 261.018 247.568 264.996 249.912 259.21C253.464 250.443 249.244 248.297 251.568 243.584Z" fill="#6562CE"/>
<path d="M301.637 43.5078C295.69 46.2051 286.146 73.7646 288.505 87.2574C289.089 90.5923 292.914 105.685 298.165 123.802C303.415 141.92 304.134 166.854 295.13 206.124H327.834C327.834 206.124 337.413 166.497 316.639 125.335C305.083 102.438 318.695 79.394 321.351 59.9033C323.319 45.4745 301.637 43.5078 301.637 43.5078Z" fill="#E4EFFD"/>
<path d="M249.996 118.133L259.434 98.5938" stroke="black" stroke-width="1.17221" stroke-miterlimit="10"/>
<path d="M324.604 122.361C308.467 124.731 260.33 119.335 263.4 109.945C264.559 106.4 297.242 105.705 312.369 107.416C310.396 97.5186 307.518 63.5795 308.034 55.2317C308.614 45.7979 317.882 47.383 320.76 54.4588C323.894 62.1379 338.55 120.308 324.604 122.361Z" fill="#E4EFFD"/>
<path d="M307.828 65.9629C307.312 74.3107 310.188 96.6454 312.164 106.542C298.042 105.815 264.353 106.167 263.195 109.714" stroke="white" stroke-width="1.70355" stroke-miterlimit="10"/>
<path d="M267.466 108.905C265.779 107.889 256.07 107.515 255.242 108.293C254.414 109.071 247.265 112.062 247.265 112.062C247.265 112.062 247.788 113.812 250.682 112.877C254.044 111.798 254.928 112.367 254.928 112.367C254.928 112.367 254.848 114.343 256.071 114.834C257.294 115.325 256.091 116.628 257.868 117.711C258.91 118.342 259.158 119.342 260.34 119.319C261.523 119.296 267.724 114.329 268.421 111.941C269.001 109.927 268.465 109.507 267.466 108.905Z" fill="#E18C32"/>
<path d="M222.237 136.239H258.348C258.649 136.238 258.945 136.158 259.205 136.007C259.465 135.856 259.681 135.639 259.83 135.378C259.979 135.117 260.057 134.821 260.055 134.521C260.053 134.22 259.971 133.926 259.818 133.667L231.279 85.2337C231.005 84.7695 230.614 84.3847 230.145 84.1173C229.677 83.8499 229.146 83.7092 228.607 83.709H192.496C192.195 83.7098 191.9 83.7899 191.64 83.9411C191.38 84.0923 191.165 84.3092 191.016 84.5701C190.867 84.8309 190.789 85.1264 190.791 85.4268C190.793 85.7271 190.874 86.0217 191.026 86.2807L219.566 134.714C219.84 135.178 220.23 135.563 220.699 135.83C221.167 136.098 221.698 136.238 222.237 136.239Z" fill="#6562CE"/>
<path d="M217.049 107.911L219.427 112.027C219.515 112.174 219.636 112.298 219.781 112.39C219.926 112.482 220.09 112.539 220.261 112.555H223.559C223.729 112.572 223.894 112.629 224.039 112.72C224.184 112.812 224.305 112.937 224.393 113.084L226.296 116.373C226.384 116.52 226.506 116.645 226.651 116.737C226.796 116.829 226.961 116.886 227.132 116.903H231.252C231.545 116.903 231.646 116.665 231.476 116.373L229.573 113.084C229.41 112.792 229.505 112.555 229.797 112.555H233.093C233.385 112.555 233.485 112.319 233.317 112.027L230.937 107.911C230.849 107.764 230.728 107.639 230.583 107.548C230.438 107.456 230.273 107.399 230.103 107.383H226.807C226.636 107.366 226.472 107.31 226.327 107.218C226.182 107.126 226.06 107.002 225.972 106.854L224.07 103.564C223.981 103.416 223.86 103.292 223.714 103.2C223.569 103.108 223.405 103.052 223.234 103.035H219.113C218.821 103.035 218.721 103.272 218.889 103.564L220.792 106.854C220.955 107.146 220.861 107.383 220.568 107.383H217.273C216.977 107.383 216.881 107.619 217.049 107.911Z" fill="#8281D8"/>
<path d="M196.073 98.5218C195.923 99.9161 196.727 100.611 197.184 100.886C196.879 103.659 198.98 102.336 198.98 102.336C200.596 101.234 201.335 100.175 200.689 99.3405C200.429 99.0029 199.681 99.0828 198.946 99.3617C199.599 98.2201 199.879 96.9416 199.498 96.4948C199.212 96.1589 198.437 96.3921 197.702 96.8324C198.211 95.7789 198.316 94.6635 197.952 94.233C197.355 93.5285 195.458 94.6407 195.038 95.5017C194.52 96.5633 195.662 97.9201 196.106 98.3914C196.09 98.4334 196.079 98.4772 196.073 98.5218Z" fill="#E18C32"/>
<path d="M289.687 24.6348C289.687 24.6348 290.477 40.1937 301.488 43.5889C301.488 43.5889 290.357 51.1735 275.821 44.4516C275.821 44.4516 283.987 43.7667 278.108 27.575L289.687 24.6348Z" fill="#E18C32"/>
<path d="M289.689 24.6348C289.689 24.6348 289.715 25.1566 289.826 26.0291C289.826 26.3275 289.826 26.5069 289.826 26.5069C290.287 28.3137 286.397 38.6738 280.214 39.2674H280.178C280.199 36.1967 279.645 32.3514 278.1 27.5717L289.689 24.6348Z" fill="#D97802"/>
<path d="M268.635 18.548C269.18 21.4533 269.977 24.3055 271.02 27.0719C271.969 29.5343 277.004 36.4764 279.349 35.8779C284.555 34.557 290.226 26.4196 289.767 24.6079C289.767 24.6079 289.087 20.8294 288.764 19.016C286.804 19.5297 284.082 18.7877 281.588 13.2204C280.735 11.3157 279.609 10.2606 278.434 9.72404C277.097 9.29353 275.771 9.14839 274.544 9.45986C268.363 11.0303 268.255 16.4101 268.635 18.548Z" fill="#E18C32"/>
<path d="M270.257 22.3441C270.167 21.8013 270.535 21.2888 271.079 21.1995C271.622 21.1103 272.135 21.478 272.225 22.0209C272.314 22.5638 271.946 23.0763 271.403 23.1655C270.859 23.2548 270.346 22.887 270.257 22.3441Z" fill="#40465C"/>
<path d="M277.979 19.4144C277.89 18.8716 278.258 18.3591 278.801 18.2699C279.345 18.1806 279.858 18.5483 279.947 19.0912C280.037 19.6341 279.669 20.1466 279.125 20.2358C278.582 20.3251 278.069 19.9573 277.979 19.4144Z" fill="#40465C"/>
<path d="M274.481 19.998L275.227 25.8492L277.383 25.0305" stroke="#40465C" stroke-width="0.923709" stroke-linecap="round" stroke-linejoin="round"/>
<path d="M271.048 10.5603C271.048 10.5603 276.313 7.13572 279.26 13.719C282.176 20.242 286.282 18.9521 288.859 18.0796" stroke="#EFAF00" stroke-width="0.938423" stroke-miterlimit="10"/>
<path d="M292.732 21.3887C292.845 21.1555 292.98 20.8766 292.747 20.7641C292.634 20.7114 292.506 20.7051 292.388 20.7466C292.271 20.7882 292.175 20.8741 292.121 20.9859C291.168 22.9819 289.201 25.5095 288.172 26.7701L286.474 21.6479C286.503 21.6195 286.528 21.5871 286.549 21.5517C286.562 21.5322 287.908 19.2834 289.567 18.6653C289.625 18.6439 289.678 18.6114 289.723 18.5695C289.768 18.5276 289.804 18.4773 289.829 18.4214C289.855 18.3655 289.869 18.3051 289.871 18.2437C289.873 18.1823 289.863 18.1211 289.841 18.0636C289.752 17.8206 289.454 17.6445 289.239 17.788C287.418 18.9947 285.809 20.981 285.809 20.981C284.439 22.2171 279.059 26.5858 271.036 27.0718C271.036 27.0718 274.124 36.946 279.365 35.8778C284.606 34.8097 288.305 28.1057 288.305 28.1057L292.732 21.3887Z" fill="white"/>
<path d="M288.735 19.2999C288.735 19.2999 289.724 17.2435 291.866 18.3589C293.499 19.2069 291.376 22.5989 289.773 24.6079L288.735 19.2999Z" fill="#E18C32"/>
</svg>
