<svg width="235" height="308" viewBox="0 0 235 308" fill="none" xmlns="http://www.w3.org/2000/svg">
<path d="M17.197 196.405L25.0853 222.12C26.7251 227.468 31.292 231.069 36.4321 231.069H81.0618C86.2019 231.069 90.7688 227.468 92.4098 222.12L98.8967 200.969C100.028 197.283 97.5296 193.465 93.9862 193.465H88.9894C86.6356 193.465 84.6407 191.567 84.3123 189.004L81.3954 166.316C80.7004 160.899 76.4772 156.871 71.4944 156.871H31.3059C25.2324 156.871 20.5603 162.767 21.4037 169.371L23.9033 188.944C24.2077 191.333 22.5185 193.465 20.3206 193.465H19.1146C17.7335 193.465 16.7544 194.961 17.197 196.405Z" fill="#6464C8"/>
<path d="M55.6577 230.377H62.1992V278.896H55.6577V230.377Z" fill="white" stroke="#6464C8" stroke-width="0.93848" stroke-miterlimit="10"/>
<path d="M41.0892 285.356V283.107C41.0892 280.782 43.7677 278.896 47.0714 278.896H70.385C73.6824 278.896 76.3672 280.782 76.3672 283.107V285.356" stroke="#6464C6" stroke-width="1.12618" stroke-miterlimit="10"/>
<path d="M76.2436 294.514C73.7095 294.514 71.6552 292.464 71.6552 289.936C71.6552 287.407 73.7095 285.357 76.2436 285.357C78.7777 285.357 80.832 287.407 80.832 289.936C80.832 292.464 78.7777 294.514 76.2436 294.514Z" fill="white" stroke="#E3B03D" stroke-width="0.93848" stroke-miterlimit="10"/>
<path d="M41.1733 294.514C38.6392 294.514 36.5849 292.464 36.5849 289.936C36.5849 287.407 38.6392 285.357 41.1733 285.357C43.7074 285.357 45.7617 287.407 45.7617 289.936C45.7617 292.464 43.7074 294.514 41.1733 294.514Z" fill="white" stroke="#E3B03D" stroke-width="0.93848" stroke-miterlimit="10"/>
<path d="M116.421 271.816C117.008 274.016 119.14 281.536 118.376 284.234C117.611 286.932 115.468 288.916 116.059 291.667C116.693 294.596 133.911 292.744 134.44 292.626C134.969 292.508 125.295 287.149 125.182 283.162C125.069 279.175 126.344 271.816 126.344 271.816H116.421Z" fill="#D28E46"/>
<path d="M137.191 294.727H115.905C115.399 294.727 114.988 294.317 114.988 293.812V293.81C114.988 293.305 115.399 292.895 115.905 292.895H137.191C137.697 292.895 138.108 293.305 138.108 293.81V293.812C138.108 294.317 137.697 294.727 137.191 294.727Z" fill="#94BCD3"/>
<path d="M121.949 293.011C121.949 293.011 124.186 290.291 127.337 289.491C130.792 288.614 132.467 289.081 134.33 290.021C136.135 290.931 137.145 292.895 137.145 292.895L121.949 293.011Z" fill="#CFE0F9"/>
<path d="M121.874 292.971C121.874 292.971 122.064 286.594 117.838 285.766C117.838 285.766 113.78 289.38 116.025 292.971H121.874Z" fill="#CFE0F9"/>
<path d="M116.422 271.816H126.344C126.344 271.816 126.099 273.231 125.836 275.155C122.227 275.494 118.518 274.299 116.936 273.702C116.727 272.915 116.549 272.258 116.422 271.816Z" fill="#C97C2D"/>
<path d="M93.0669 228.512C98.5482 228.504 104.168 228.458 111.583 228.347C110.674 234.717 109.727 242.632 109.872 249.123C110.009 255.24 111.267 256.065 111.216 258.642C111.13 262.783 113.896 264.156 113.002 267.12C111.498 272.08 116.426 271.821 116.426 271.821C116.426 271.821 122.878 273.007 127.769 271.821L132.766 220.572C134.203 215.809 127.898 210.069 121.673 207.285C110.955 202.496 70.2885 184.184 64.9607 200.923C63.5479 205.376 68.0958 228.555 93.0669 228.512Z" fill="#C5D7F9"/>
<path d="M86.1998 271.818C86.787 274.018 88.9176 281.538 88.1541 284.236C87.3907 286.934 85.2461 288.918 85.8359 291.669C86.47 294.598 103.689 292.746 104.217 292.628C104.746 292.51 95.0735 287.151 94.9594 283.164C94.8452 279.177 96.1198 271.818 96.1198 271.818H86.1998Z" fill="#D28E46"/>
<path d="M106.968 294.73H85.6825C85.1761 294.73 84.7656 294.321 84.7656 293.816V293.814C84.7656 293.309 85.1761 292.899 85.6825 292.899H106.968C107.475 292.899 107.885 293.309 107.885 293.814V293.816C107.885 294.321 107.475 294.73 106.968 294.73Z" fill="#94BCD3"/>
<path d="M91.7209 293.015C91.7209 293.015 93.9593 290.295 97.1109 289.495C100.564 288.618 102.241 289.085 104.104 290.025C105.908 290.935 106.918 292.899 106.918 292.899L91.7209 293.015Z" fill="#CFE0F9"/>
<path d="M91.6471 292.975C91.6471 292.975 91.8386 286.598 87.6129 285.77C87.6129 285.77 83.5546 289.384 85.7994 292.975H91.6471Z" fill="#CFE0F9"/>
<path d="M86.1971 271.818H96.1133C96.1133 271.818 95.8672 273.233 95.606 275.156C91.9954 275.496 88.2859 274.301 86.7044 273.704C86.4926 272.917 86.315 272.26 86.1971 271.818Z" fill="#C97C2D"/>
<path d="M66.6 228.514C72.0812 228.505 77.7007 228.459 85.1159 228.348C84.2066 234.718 83.2605 242.633 83.4051 249.125C83.5421 255.242 82.9257 256.067 82.8712 258.643C82.7849 262.785 83.674 264.158 82.7799 267.121C81.2758 272.082 86.204 271.822 86.204 271.822C86.204 271.822 92.6555 273.008 97.547 271.822L106.298 220.573C107.733 215.81 105.185 210.07 98.9598 207.286C88.2408 202.497 48.9134 180.057 42.4354 205.233C41.2775 209.753 41.6275 228.557 66.6 228.514Z" fill="#CFE0F9"/>
<path d="M82.0834 139.574C81.4023 143.827 78.1342 146.119 90.1239 175.59C94.6717 186.772 103.889 181.437 103.211 175.698C102.532 169.959 94.9913 147.509 92.4016 142.28C89.5938 136.608 82.6503 136.031 82.0834 139.574Z" fill="#D1E2FB"/>
<path d="M94.3951 180.379C103.075 184.698 136.898 182.198 136.996 180.029C137.109 177.498 107.134 171.816 100.753 171.12C93.1396 170.29 89.2208 177.805 94.3951 180.379Z" fill="#E38E32"/>
<path d="M131.023 178.628C131.24 177.851 137.273 177.956 139.253 178.501C141.232 179.046 143.945 181.338 144.326 181.843C144.706 182.348 145.594 184.982 145.594 184.982C145.594 184.982 144.818 185.962 143.703 184.457C142.588 182.953 139.752 181.36 139.069 181.816C137.533 182.843 141.07 183.609 141.497 184.221C141.925 184.832 141.74 185.233 141.74 185.233C141.74 185.233 138.072 184.503 137.503 184.464C136.933 184.424 135.005 183.633 133.875 182.721C132.745 181.809 130.704 179.773 131.023 178.628Z" fill="#E38E32"/>
<path d="M42.8377 209.392C37.3844 215.788 48.9746 186.937 51.1521 179.654C52.1819 176.21 49.8319 162.86 47.3246 151.988C44.7882 140.962 48.7793 137.001 55.6403 135.294C63.2927 133.389 73.1874 133.89 75.5247 134.2C82.9146 135.177 84.7028 136.046 88.1054 137.869C89.7959 138.776 89.7071 156.344 90.2018 160.968C90.6964 165.592 88.2462 168.394 85.3559 170.301C84.5303 170.846 82.7979 173.734 82.8385 180.55C82.8791 187.367 83.8708 191.03 86.6152 194.865C86.6152 194.865 58.367 191.19 42.8377 209.392Z" fill="#E7F0FD"/>
<path d="M57.6908 134.971L75.163 155.589L82.875 135.333" stroke="white" stroke-width="1.12618" stroke-miterlimit="10"/>
<path d="M49.2591 138.362C46.0886 141.29 42.0442 147.258 33.258 177.833C29.9264 189.431 37.5319 189.095 40.5452 184.16C43.5585 179.225 56.2825 156.76 57.5215 151.061C59.6775 141.137 51.8983 135.92 49.2591 138.362Z" fill="#D1E2FB"/>
<path d="M34.7699 187.311C43.7742 191.831 80.5715 186.994 80.6793 184.741C80.8061 182.108 49.2884 179.719 42.6607 178.97C34.7572 178.077 29.4041 184.622 34.7699 187.311Z" fill="#E38E32"/>
<path d="M75.6695 185.19C75.6238 185.996 81.3701 187.833 83.4221 187.947C85.474 188.061 88.7803 186.767 89.3053 186.412C89.8304 186.058 91.5234 183.847 91.5234 183.847C91.5234 183.847 91.1036 182.672 89.564 183.738C88.0244 184.805 84.8247 185.404 84.325 184.751C83.2027 183.285 86.7968 183.695 87.4005 183.253C88.0041 182.81 87.9547 182.367 87.9547 182.367C87.9547 182.367 84.2477 181.881 83.696 181.734C83.1443 181.587 81.0645 181.72 79.6999 182.22C78.3353 182.72 75.7354 184.003 75.6695 185.19Z" fill="#E38E32"/>
<path d="M65.2098 119.407C62.2042 118.816 58.1789 113.284 59.5587 108.541C60.9385 103.798 67.6854 98.2127 74.587 100.431C81.4887 102.649 85.7232 105.958 84.9027 112.75C84.2508 118.149 67.3138 135.78 55.6424 135.111C50.95 134.842 46.2171 124.998 52.3451 121.325C58.4731 117.653 65.2098 119.407 65.2098 119.407Z" fill="#E5B21A"/>
<path d="M49.5795 121.325C55.7785 115.653 65.0391 119.235 65.0391 119.235" stroke="#E5B21A" stroke-width="0.750784" stroke-miterlimit="10"/>
<path d="M66.1527 118.826C66.1527 118.826 67.1382 130.01 61.241 134.381L73.8407 149.021L79.332 134.939C79.332 134.939 73.1812 133.8 75.7189 118.826H66.1527Z" fill="#D49046"/>
<path d="M66.2114 120.987C66.2317 121.189 66.2457 121.311 66.2457 121.311C66.2457 123.368 70.4473 131.253 76.2734 131.908C75.217 129.631 74.555 125.68 75.718 118.816H66.1505C66.1505 118.816 66.2254 119.665 66.2114 120.987Z" fill="#CB7C2D"/>
<path d="M66.2337 119.749C66.2451 119.863 66.2527 119.928 66.2527 119.928C66.0739 121.461 72.2133 127.59 77.0604 128.153C79.2367 128.406 82.4745 122.137 83.0071 120.014C83.7832 116.918 83.8264 113.865 83.8657 112.754C83.9291 110.953 83.815 106.443 78.6153 106.443C73.3826 106.443 70.4403 117.94 66.5824 115.616C66.5114 115.457 65.8507 114.105 64.1728 115.175C62.935 115.967 64.8057 118.889 66.2337 119.749Z" fill="#D49046"/>
<path d="M78.8121 115.652L79.332 119.722L78.3124 120.943" stroke="#40465C" stroke-width="0.563088" stroke-linecap="round" stroke-linejoin="round"/>
<path d="M82.8233 119.982C81.0646 119.982 79.6388 118.559 79.6388 116.804C79.6388 115.05 81.0646 113.627 82.8233 113.627C84.5821 113.627 86.0078 115.05 86.0078 116.804C86.0078 118.559 84.5821 119.982 82.8233 119.982Z" stroke="#6464C8" stroke-width="0.93848" stroke-miterlimit="10"/>
<path d="M74.3311 119.982C72.5724 119.982 71.1467 118.559 71.1467 116.804C71.1467 115.05 72.5724 113.627 74.3311 113.627C76.0899 113.627 77.5156 115.05 77.5156 116.804C77.5156 118.559 76.0899 119.982 74.3311 119.982Z" stroke="#6464C8" stroke-width="0.93848" stroke-miterlimit="10"/>
<path d="M79.6406 116.805H77.5176" stroke="#6464C8" stroke-width="0.93848" stroke-miterlimit="10"/>
<path d="M71.1445 116.631C71.1445 116.631 66.0235 113.48 63.8257 115.17" stroke="#6464C8" stroke-width="0.93848" stroke-miterlimit="10"/>
<path d="M81.5468 117.546C81.1261 117.546 80.7851 117.205 80.7851 116.785C80.7851 116.366 81.1261 116.025 81.5468 116.025C81.9675 116.025 82.3086 116.366 82.3086 116.785C82.3086 117.205 81.9675 117.546 81.5468 117.546Z" fill="#40465C"/>
<path d="M75.4882 117.546C75.0675 117.546 74.7265 117.205 74.7265 116.785C74.7265 116.366 75.0675 116.025 75.4882 116.025C75.9089 116.025 76.25 116.366 76.25 116.785C76.25 117.205 75.9089 117.546 75.4882 117.546Z" fill="#40465C"/>
<path d="M78.2266 123.234C78.2266 123.234 76.5208 123.541 75.349 121.924" stroke="#40465C" stroke-width="0.563088" stroke-linecap="round" stroke-linejoin="round"/>
<path d="M96.0343 169.033H151.743C152.654 169.033 153.542 168.751 154.286 168.227C155.029 167.702 155.592 166.961 155.895 166.104L167.278 134.027C167.441 133.567 167.491 133.075 167.424 132.591C167.357 132.108 167.175 131.647 166.893 131.249C166.61 130.85 166.236 130.525 165.802 130.3C165.367 130.076 164.885 129.959 164.396 129.959H108.231C107.453 129.959 106.695 130.199 106.06 130.647C105.425 131.095 104.945 131.728 104.686 132.459L93.1453 164.964C92.9817 165.425 92.9315 165.918 92.9988 166.402C93.0662 166.886 93.2492 167.347 93.5323 167.746C93.8155 168.145 94.1906 168.47 94.626 168.694C95.0614 168.918 95.5444 169.035 96.0343 169.033Z" fill="white"/>
<path d="M97.7636 170.76H153.474C154.384 170.76 155.272 170.478 156.016 169.954C156.76 169.43 157.322 168.688 157.626 167.832L169.008 135.755C169.172 135.295 169.222 134.802 169.155 134.319C169.088 133.835 168.905 133.374 168.623 132.976C168.34 132.577 167.966 132.252 167.532 132.027C167.097 131.803 166.615 131.685 166.125 131.686H109.957C109.179 131.685 108.42 131.925 107.784 132.373C107.148 132.821 106.667 133.454 106.406 134.186L94.8733 166.692C94.7096 167.153 94.6594 167.646 94.7268 168.13C94.7942 168.614 94.9773 169.075 95.2607 169.474C95.544 169.873 95.9193 170.198 96.3549 170.422C96.7905 170.645 97.2736 170.762 97.7636 170.76Z" fill="#E7F0FD"/>
<path d="M96.0344 168.86H151.743C152.654 168.86 153.542 168.578 154.286 168.054C155.029 167.529 155.592 166.788 155.895 165.931L167.278 133.855C167.441 133.395 167.491 132.902 167.424 132.418C167.357 131.935 167.175 131.474 166.893 131.076C166.61 130.677 166.236 130.352 165.802 130.127C165.368 129.903 164.886 129.785 164.396 129.785H108.231C107.453 129.785 106.695 130.026 106.06 130.473C105.426 130.921 104.945 131.554 104.686 132.286L93.1454 164.79C92.9818 165.251 92.9316 165.744 92.9989 166.228C93.0663 166.712 93.2493 167.173 93.5324 167.572C93.8156 167.971 94.1907 168.296 94.6261 168.52C95.0615 168.744 95.5445 168.861 96.0344 168.86V168.86Z" stroke="#96BED5" stroke-width="0.93848" stroke-miterlimit="10"/>
<path d="M125.092 177.725H141.652L136.454 155.764H119.892L125.092 177.725Z" fill="white" stroke="#96BED5" stroke-width="0.93848" stroke-miterlimit="10"/>
<path d="M120.974 118.277C119.232 118.277 118.029 116.58 118.029 114.796V104.808C118.029 104.347 118.12 103.891 118.297 103.465C118.473 103.039 118.733 102.652 119.059 102.325C119.386 101.999 119.774 101.741 120.201 101.564C120.628 101.388 121.085 101.297 121.547 101.297H144.324C144.787 101.297 145.244 101.387 145.671 101.564C146.098 101.74 146.487 101.999 146.813 102.325C147.14 102.651 147.399 103.038 147.576 103.464C147.753 103.89 147.844 104.347 147.844 104.808V114.796C147.844 115.257 147.753 115.714 147.576 116.14C147.399 116.566 147.14 116.953 146.813 117.279C146.486 117.605 146.098 117.863 145.671 118.04C145.244 118.216 144.787 118.307 144.324 118.306H130.97C127.701 118.306 125.939 123.554 125.939 123.554C125.939 123.554 124.826 118.277 120.974 118.277Z" fill="white" stroke="#E5B21A" stroke-width="0.93848" stroke-miterlimit="10"/>
<path d="M139.449 111.023C138.723 111.023 138.136 110.436 138.136 109.713C138.136 108.989 138.723 108.402 139.449 108.402C140.174 108.402 140.762 108.989 140.762 109.713C140.762 110.436 140.174 111.023 139.449 111.023Z" fill="white" stroke="#E5B21A" stroke-width="0.93848" stroke-miterlimit="10"/>
<path d="M132.937 111.111C132.212 111.111 131.624 110.524 131.624 109.8C131.624 109.077 132.212 108.49 132.937 108.49C133.662 108.49 134.25 109.077 134.25 109.8C134.25 110.524 133.662 111.111 132.937 111.111Z" fill="white" stroke="#E5B21A" stroke-width="0.93848" stroke-miterlimit="10"/>
<path d="M126.425 111.111C125.7 111.111 125.112 110.524 125.112 109.8C125.112 109.077 125.7 108.49 126.425 108.49C127.15 108.49 127.738 109.077 127.738 109.8C127.738 110.524 127.15 111.111 126.425 111.111Z" fill="white" stroke="#E5B21A" stroke-width="0.93848" stroke-miterlimit="10"/>
<path d="M213.66 293.214V179.111H61.2726V303.444" fill="white"/>
<path d="M213.66 293.214V179.111H61.2726V303.444" stroke="#6464C8" stroke-width="0.939748" stroke-miterlimit="10"/>
<path d="M39.7171 69.2676H81.7344V77.3662H39.7171V69.2676Z" fill="white" stroke="#E5B21A" stroke-width="0.873801" stroke-miterlimit="10"/>
<path d="M32.7192 65.5938H75.1562V68.7649H32.7192V65.5938Z" fill="#6464C8"/>
<path d="M36.6762 60.9023H79.1133V65.0605H36.6762V60.9023Z" fill="white" stroke="#96BED5" stroke-width="0.873801" stroke-miterlimit="10"/>
<path d="M44.225 55.6328H81.6602V60.3578H44.225V55.6328Z" fill="#E7F0FD"/>
<path d="M32.5816 84.1927H111.531L127.083 61.5963H199.66V55.6426H124.019L108.467 78.2377H32.5816V84.1927Z" fill="white" stroke="#96BED5" stroke-width="0.873801" stroke-miterlimit="10"/>
<path d="M109.973 65.4277H88.4827V67.1335C88.4827 69.9768 89.6147 72.7036 91.6297 74.7141C93.6446 76.7245 96.3775 77.854 99.2271 77.854C102.077 77.854 104.809 76.7245 106.824 74.7141C108.839 72.7036 109.971 69.9768 109.971 67.1335V65.4277H109.973Z" fill="#D1E2FB"/>
<path d="M106.565 65.4285C106.565 65.4285 111.223 69.2159 113.88 66.1106C115.805 63.8607 108.182 63.8582 108.182 63.8582C108.182 63.8582 112.202 60.6466 110.927 60.062C107.795 58.6409 105.956 63.4191 105.956 63.4191C105.956 63.4191 110.268 55.3799 106.532 53.9981C103.46 52.8593 103.46 61.1451 103.46 61.1451C103.46 61.1451 102.809 57.788 101.072 58.0044C99.3346 58.2208 100.584 61.8006 100.584 61.8006C100.584 61.8006 99.0619 60.7718 98.9567 63.1002C98.9567 63.1002 98.6624 54.2423 94.9402 55.0864C91.847 55.7899 95.9713 61.855 95.9713 61.855C95.9713 61.855 93.5832 58.8763 91.4678 59.7975C89.3525 60.7187 93.3702 63.4786 93.3702 63.4786C93.3702 63.4786 87.6188 58.1183 85.5351 59.5558C83.9511 60.6516 87.9764 63.333 87.9764 63.333C87.9764 63.333 85.1001 62.5346 84.4495 63.9417C83.7989 65.3488 88.4863 65.426 88.4863 65.426L106.565 65.4285Z" fill="#91882A"/>
<path d="M104.121 65.4276C104.121 65.4276 103.955 57.7896 101.077 58.0085C98.1998 58.2274 102.219 65.4276 102.219 65.4276H104.121Z" fill="#CBC253"/>
<path d="M104.119 65.4291C104.119 65.4291 107.008 58.2162 110.927 60.0675C114.753 61.8707 106.52 65.4291 106.52 65.4291H104.119Z" fill="#CBC253"/>
<path d="M98.1797 65.4277C98.1797 65.4277 95.5862 58.9337 91.4708 59.5512C87.3555 60.1687 96.5437 65.4277 96.5437 65.4277H98.1797Z" fill="#CBC253"/>
<path d="M93.9453 65.4268C93.9453 65.4268 85.8959 61.3775 84.4464 63.821C82.9968 66.2645 93.9453 65.4268 93.9453 65.4268Z" fill="#CBC253"/>
<path d="M178.533 14.4316H189.559V55.6409H178.533V14.4316Z" fill="white" stroke="#96BED5" stroke-width="0.873801" stroke-miterlimit="10"/>
<path d="M181.512 28.5898H186.578V29.8894H181.512V28.5898Z" fill="#96BED5"/>
<path d="M181.512 32.0684H186.578V33.3679H181.512V32.0684Z" fill="#96BED5"/>
<path d="M181.512 35.5449H186.578V36.8445H181.512V35.5449Z" fill="#96BED5"/>
<path d="M181.512 39.0234H186.578V40.323H181.512V39.0234Z" fill="#96BED5"/>
<path d="M184.042 51.009C182.667 51.009 181.552 49.8969 181.552 48.525C181.552 47.1531 182.667 46.041 184.042 46.041C185.417 46.041 186.531 47.1531 186.531 48.525C186.531 49.8969 185.417 51.009 184.042 51.009Z" fill="#96BED5"/>
<path d="M166.537 14.4316H177.562V55.6409H166.537V14.4316Z" fill="white" stroke="#E5B21A" stroke-width="0.873801" stroke-miterlimit="10"/>
<path d="M169.519 28.5898H174.586V29.8894H169.519V28.5898Z" fill="#E5B21A"/>
<path d="M169.519 32.0684H174.586V33.3679H169.519V32.0684Z" fill="#E5B21A"/>
<path d="M169.519 35.5449H174.586V36.8445H169.519V35.5449Z" fill="#E5B21A"/>
<path d="M169.519 39.0234H174.586V40.323H169.519V39.0234Z" fill="#E5B21A"/>
<path d="M172.05 51.009C170.675 51.009 169.56 49.8969 169.56 48.525C169.56 47.1531 170.675 46.041 172.05 46.041C173.424 46.041 174.539 47.1531 174.539 48.525C174.539 49.8969 173.424 51.009 172.05 51.009Z" fill="#E5B21A"/>
<path d="M154.544 14.4316H165.57V55.6409H154.544V14.4316Z" fill="#E7F0FD" stroke="#96BED5" stroke-width="0.873801" stroke-miterlimit="10"/>
<path d="M157.523 28.4141H162.59V29.7136H157.523V28.4141Z" fill="white"/>
<path d="M157.523 31.8926H162.59V33.1922H157.523V31.8926Z" fill="white"/>
<path d="M157.523 35.3711H162.59V36.6707H157.523V35.3711Z" fill="white"/>
<path d="M157.523 38.8496H162.59V40.1492H157.523V38.8496Z" fill="white"/>
<path d="M160.057 50.8332C158.682 50.8332 157.568 49.7211 157.568 48.3492C157.568 46.9774 158.682 45.8652 160.057 45.8652C161.432 45.8652 162.547 46.9774 162.547 48.3492C162.547 49.7211 161.432 50.8332 160.057 50.8332Z" fill="white"/>
<path d="M142.548 14.4316H153.574V55.6409H142.548V14.4316Z" fill="white" stroke="#6464C8" stroke-width="0.873801" stroke-miterlimit="10"/>
<path d="M145.531 28.5898H150.598V29.8894H145.531V28.5898Z" fill="#6464C8"/>
<path d="M145.531 32.0684H150.598V33.3679H145.531V32.0684Z" fill="#6464C8"/>
<path d="M145.531 35.5449H150.598V36.8445H145.531V35.5449Z" fill="#6464C8"/>
<path d="M145.531 39.0234H150.598V40.323H145.531V39.0234Z" fill="#6464C8"/>
<path d="M148.061 51.009C146.686 51.009 145.572 49.8969 145.572 48.525C145.572 47.1531 146.686 46.041 148.061 46.041C149.436 46.041 150.551 47.1531 150.551 48.525C150.551 49.8969 149.436 51.009 148.061 51.009Z" fill="#6464C8"/>
</svg>
