<svg width="24" height="24" viewBox="0 0 24 24" fill="none" xmlns="http://www.w3.org/2000/svg">
<path d="M11.997 8.33164C9.97722 8.33164 8.32888 9.97997 8.32888 11.9998C8.32888 14.0196 9.97722 15.668 11.997 15.668C14.0169 15.668 15.6652 14.0196 15.6652 11.9998C15.6652 9.97997 14.0169 8.33164 11.997 8.33164ZM22.9988 11.9998C22.9988 10.4808 23.0125 8.97556 22.9272 7.45931C22.8419 5.69815 22.4402 4.13513 21.1523 2.84728C19.8617 1.55668 18.3014 1.15767 16.5403 1.07237C15.0213 0.987059 13.516 1.00082 11.9998 1.00082C10.4808 1.00082 8.97556 0.987059 7.45931 1.07237C5.69815 1.15767 4.13513 1.55944 2.84728 2.84728C1.55668 4.13788 1.15767 5.69815 1.07237 7.45931C0.987059 8.97831 1.00082 10.4835 1.00082 11.9998C1.00082 13.516 0.987059 15.024 1.07237 16.5403C1.15767 18.3014 1.55944 19.8645 2.84728 21.1523C4.13788 22.4429 5.69815 22.8419 7.45931 22.9272C8.97831 23.0125 10.4835 22.9988 11.9998 22.9988C13.5188 22.9988 15.024 23.0125 16.5403 22.9272C18.3014 22.8419 19.8645 22.4402 21.1523 21.1523C22.4429 19.8617 22.8419 18.3014 22.9272 16.5403C23.0153 15.024 22.9988 13.5188 22.9988 11.9998ZM11.997 17.6438C8.87374 17.6438 6.35309 15.1231 6.35309 11.9998C6.35309 8.87649 8.87374 6.35584 11.997 6.35584C15.1203 6.35584 17.641 8.87649 17.641 11.9998C17.641 15.1231 15.1203 17.6438 11.997 17.6438ZM17.8722 7.4428C17.1429 7.4428 16.554 6.85391 16.554 6.12468C16.554 5.39546 17.1429 4.80657 17.8722 4.80657C18.6014 4.80657 19.1903 5.39546 19.1903 6.12468C19.1905 6.29784 19.1565 6.46934 19.0904 6.62936C19.0242 6.78938 18.9271 6.93478 18.8047 7.05722C18.6822 7.17966 18.5369 7.27674 18.3768 7.34291C18.2168 7.40907 18.0453 7.44302 17.8722 7.4428Z" fill="#FBB6B6"/>
</svg>
