<svg width="24" height="25" viewBox="0 0 24 25" fill="none" xmlns="http://www.w3.org/2000/svg">
<path d="M20.6201 9.15976C19.5701 4.53976 15.5401 2.45976 12.0001 2.45976C12.0001 2.45976 12.0001 2.45976 11.9901 2.45976C8.4601 2.45976 4.4201 4.52976 3.3701 9.14976C2.2001 14.3098 5.3601 18.6798 8.2201 21.4298C9.2801 22.4498 10.6401 22.9598 12.0001 22.9598C13.3601 22.9598 14.7201 22.4498 15.7701 21.4298C18.6301 18.6798 21.7901 14.3198 20.6201 9.15976ZM12.0001 14.1698C10.2601 14.1698 8.8501 12.7598 8.8501 11.0198C8.8501 9.27976 10.2601 7.86976 12.0001 7.86976C13.7401 7.86976 15.1501 9.27976 15.1501 11.0198C15.1501 12.7598 13.7401 14.1698 12.0001 14.1698Z" fill="#FBB6B6"/>
</svg>
