<svg width="133" height="204" viewBox="0 0 133 204" fill="none" xmlns="http://www.w3.org/2000/svg">
<path d="M96.2011 189.554C96.2011 189.554 98.2582 193.844 96.845 195.391H78.7188C78.7188 195.391 78.8198 192.388 83.1846 191.914C87.1021 191.489 89.4884 189.551 89.4884 189.551L96.2011 189.554Z" fill="#6562CE"/>
<path d="M78.5472 196.473H97.0902C97.2454 196.473 97.3711 196.346 97.3711 196.191V195.676C97.3711 195.521 97.2454 195.394 97.0902 195.394H78.5472C78.3921 195.394 78.2663 195.521 78.2663 195.676V196.191C78.2663 196.346 78.3921 196.473 78.5472 196.473Z" fill="#88BED7"/>
<path d="M87.0449 192.297L86.4546 190.883C86.4381 190.846 86.4141 190.812 86.3843 190.785C86.3545 190.757 86.3193 190.736 86.2811 190.723C86.227 190.704 86.1685 190.7 86.1125 190.713C86.0565 190.725 86.0052 190.754 85.9644 190.794C85.9237 190.835 85.8952 190.886 85.8822 190.942C85.8693 190.998 85.8723 191.057 85.8911 191.112L85.8974 191.132L85.9484 191.328L85.4421 191.461L85.3938 191.274C85.3312 191.085 85.3384 190.879 85.414 190.694C85.4897 190.51 85.6289 190.359 85.8062 190.268C85.9064 190.218 86.0158 190.188 86.1278 190.181C86.2398 190.174 86.352 190.19 86.4576 190.228C86.5633 190.266 86.6601 190.325 86.7423 190.402C86.8245 190.479 86.8904 190.571 86.9358 190.674L87.5279 192.094L87.0449 192.297Z" fill="#88BED7"/>
<path d="M84.4531 193.06L84.0658 191.631C84.0536 191.592 84.0337 191.555 84.0073 191.524C83.9808 191.493 83.9484 191.467 83.912 191.449C83.8755 191.43 83.8358 191.42 83.7951 191.417C83.7544 191.414 83.7135 191.42 83.675 191.433C83.5014 191.494 83.4201 191.656 83.4451 191.889L82.9254 191.946C82.8736 191.466 83.0945 191.08 83.5023 190.937C83.6083 190.9 83.7207 190.885 83.8326 190.893C83.9446 190.9 84.0539 190.931 84.1537 190.982C84.2536 191.034 84.3419 191.105 84.4134 191.192C84.4849 191.279 84.5379 191.38 84.5694 191.488L84.9585 192.924L84.4531 193.06Z" fill="#88BED7"/>
<path d="M69.6464 189.556C69.6464 189.556 71.7035 193.846 70.2903 195.393H52.1641C52.1641 195.393 52.2651 192.39 56.629 191.916C60.5474 191.491 62.9338 189.553 62.9338 189.553L69.6464 189.556Z" fill="#6562CE"/>
<path d="M51.9925 196.475H70.5356C70.6907 196.475 70.8164 196.348 70.8164 196.193V195.678C70.8164 195.522 70.6907 195.396 70.5356 195.396H51.9925C51.8374 195.396 51.7116 195.522 51.7116 195.678V196.193C51.7116 196.348 51.8374 196.475 51.9925 196.475Z" fill="#88BED7"/>
<path d="M60.4907 192.298L59.9004 190.884C59.8684 190.812 59.8097 190.755 59.7365 190.725C59.6633 190.695 59.5814 190.695 59.5082 190.725C59.435 190.755 59.3762 190.812 59.3443 190.884C59.3123 190.957 59.3097 191.039 59.3369 191.113L59.3432 191.134L59.3942 191.33L58.8879 191.462L58.8396 191.276C58.7721 191.073 58.7849 190.852 58.8753 190.659C58.9657 190.466 59.1268 190.315 59.3251 190.238C59.5235 190.161 59.7438 190.163 59.9403 190.245C60.1369 190.326 60.2946 190.481 60.3807 190.676L60.9728 192.095L60.4907 192.298Z" fill="#88BED7"/>
<path d="M57.8954 193.062L57.5081 191.633C57.4958 191.594 57.4758 191.557 57.4493 191.526C57.4229 191.495 57.3905 191.47 57.3541 191.451C57.3177 191.433 57.278 191.422 57.2373 191.419C57.1966 191.416 57.1558 191.422 57.1172 191.435C56.9437 191.496 56.8623 191.658 56.8874 191.891L56.3668 191.948C56.3149 191.468 56.5368 191.082 56.9446 190.939C57.0505 190.902 57.1629 190.887 57.2749 190.895C57.3869 190.902 57.4962 190.933 57.596 190.984C57.6959 191.036 57.7842 191.107 57.8557 191.194C57.9271 191.281 57.9802 191.382 58.0117 191.49L58.3998 192.926L57.8954 193.062Z" fill="#88BED7"/>
<path d="M97.2062 189.507C90.6367 190.549 87.9687 189.391 87.9687 189.391C87.9687 189.391 78.8894 137.199 73.9343 109.863L72.6196 109.178C72.6196 109.178 71.963 142.149 73.7546 154.526C75.5524 166.939 71.6446 189.546 71.6446 189.546C65.9731 190.43 60.5494 189.546 60.5494 189.546C60.5494 189.546 59.341 164.121 57.4538 145.239C56.4145 134.854 55.097 96.4679 55.1838 93.926L70.8942 93.8272L77.8707 93.7832L89.5205 93.7176L91.7565 93.7051C91.9175 99.0269 92.5901 140.208 97.3207 151.775C102.108 163.5 97.2062 189.507 97.2062 189.507Z" fill="#88BED7"/>
<path d="M79.7645 42.2231C81.242 42.2231 95.2549 45.0254 95.2379 51.1508C95.2236 57.8598 88.1246 79.9532 88.7086 84.0045C89.2927 88.0557 93.0958 93.4098 91.3445 94.1811C86.6282 96.257 70.8802 97.9055 55.1393 93.8749C55.1393 93.8749 56.7824 90.1532 53.9515 73.9885C52.414 65.1686 52.0563 48.2982 53.3684 46.5347C54.6805 44.7713 62.6104 42.9602 65.5173 42.4197C68.4241 41.8792 79.7645 42.2231 79.7645 42.2231Z" fill="#88BED7"/>
<path d="M79.091 42.1738C78.7404 44.2048 75.0777 90.2557 80.0748 113.169C80.0748 113.169 88.1819 114.281 96.4812 111.152C96.4812 111.152 91.7712 82.3507 91.4778 77.5533C91.1844 72.7559 94.8497 48.055 92.6307 46.6938C85.2634 42.1738 79.091 42.1738 79.091 42.1738Z" fill="#E4EFFD"/>
<path d="M65.194 42.4902C65.194 42.4902 66.0982 86.2317 66.3433 112.946C66.3433 112.946 58.3427 114.956 51.4414 111.827C51.4414 111.827 54.1533 79.4913 54.1926 75.3727C54.232 71.2541 52.1033 46.8863 54.4341 45.6463C59.4518 42.976 65.194 42.4902 65.194 42.4902Z" fill="#E4EFFD"/>
<path d="M44.4667 86.98C54.9386 86.6603 62.5152 42.847 55.8723 45.0827C54.8232 45.4356 51.741 46.7043 49.6293 48.4884C45.5812 51.9085 42.0563 63.9132 40.2817 70.9159C32.8724 67.6924 22.5079 64.5597 20.694 64.0766C18.5188 63.4975 15.4384 70.0656 16.7263 71.9781C17.7889 73.5512 30.0263 87.4208 44.4667 86.98Z" fill="#E4EFFD"/>
<path d="M53.5975 77.7606C54.0823 74.7231 53.1234 69.7515 52.9258 62.5352" stroke="white" stroke-width="0.649173" stroke-miterlimit="10"/>
<path d="M18.2774 69.8444C17.2872 69.6469 13.3938 68.1824 12.4458 67.3195C11.4977 66.4567 10.4136 63.0887 10.411 62.717C10.4083 62.3452 10.207 60.1777 10.207 60.1777C10.207 60.1777 11.8492 60.1993 12.5755 61.5246C13.5414 63.2907 14.2248 64.0387 15.2677 64.2937C15.7014 64.3987 16.5708 64.7758 16.6656 64.0746C16.7604 63.3733 15.0494 62.8085 14.7346 62.3838C14.2525 61.7347 14.4895 60.8143 14.4895 60.8143C14.4895 60.8143 17.0323 61.653 17.5207 61.8119C18.009 61.9708 20.8667 63.851 21.4615 66.1128C21.8255 67.5018 20.0796 70.2036 18.2774 69.8444Z" fill="#E18C32"/>
<path d="M25.2948 55.4907L100.945 89.728L93.6167 106.045L17.9668 71.8089C17.7435 71.7097 17.5434 71.5646 17.3793 71.3831C17.2153 71.2015 17.0909 70.9875 17.0142 70.7548L15.1172 64.6985L18.1001 58.0541L23.8798 55.4745C24.1037 55.3779 24.3453 55.3294 24.589 55.3321C24.8327 55.3349 25.0731 55.3889 25.2948 55.4907Z" fill="white" stroke="#88BED7" stroke-width="0.541426" stroke-miterlimit="10"/>
<path d="M7.67961 55.4734L6.28516 58.5781L13.299 61.7528L14.6934 58.6481L7.67961 55.4734Z" fill="white" stroke="#88BED7" stroke-width="0.541426" stroke-miterlimit="10"/>
<path d="M12.8026 62.7714L15.1238 57.6032C15.2455 57.3323 15.4694 57.121 15.7463 57.0158C16.0232 56.9106 16.3303 56.9201 16.6002 57.0423L18.3467 57.8328L15.1078 65.0441L13.3613 64.2536C13.0914 64.1314 12.881 63.9066 12.7762 63.6287C12.6714 63.3507 12.6809 63.0424 12.8026 62.7714Z" fill="white" stroke="#88BED7" stroke-width="0.541426" stroke-miterlimit="10"/>
<path d="M26.1086 59.6641L21.6172 69.6641L102.089 106.089L106.581 96.0886L26.1086 59.6641Z" fill="#CBE1FD" stroke="#88BED7" stroke-width="0.541426" stroke-miterlimit="10"/>
<path d="M101.468 88.5726L93.0927 107.22C92.925 107.594 93.0906 108.033 93.4626 108.201L93.8229 108.364C94.1949 108.533 94.6324 108.367 94.8001 107.993L103.176 89.3454C103.343 88.972 103.178 88.5328 102.806 88.3645L102.445 88.2013C102.073 88.033 101.636 88.1992 101.468 88.5726Z" fill="white" stroke="#88BED7" stroke-width="0.541426" stroke-miterlimit="10"/>
<path d="M18.2101 67.0908L21.9309 58.8065C22.062 58.5147 22.3031 58.2871 22.6013 58.1738C22.8995 58.0606 23.2303 58.0708 23.5209 58.2024L26.2116 59.4203L21.5014 69.9073L18.8107 68.6894C18.6666 68.6242 18.5367 68.531 18.4285 68.4153C18.3203 68.2996 18.2359 68.1637 18.1801 68.0152C18.1243 67.8667 18.0982 67.7086 18.1033 67.55C18.1085 67.3914 18.1448 67.2353 18.2101 67.0908Z" fill="#88BED7"/>
<path d="M107.615 93.6931L100.987 108.45C100.794 108.881 100.985 109.388 101.414 109.582L101.83 109.77C102.259 109.965 102.764 109.773 102.957 109.342L109.585 94.5848C109.779 94.154 109.588 93.6473 109.158 93.453L108.743 93.2648C108.314 93.0705 107.809 93.2623 107.615 93.6931Z" fill="white" stroke="#88BED7" stroke-width="0.541426" stroke-miterlimit="10"/>
<path d="M30 65.2257L32.8371 58.9082" stroke="#88BED7" stroke-width="0.541426" stroke-miterlimit="10"/>
<path d="M34.5391 65.4635L36.6982 60.6562" stroke="#88BED7" stroke-width="0.541426" stroke-miterlimit="10"/>
<path d="M37.7188 68.7208L40.5558 62.4023" stroke="#88BED7" stroke-width="0.541426" stroke-miterlimit="10"/>
<path d="M42.2578 68.9566L44.4169 64.1484" stroke="#88BED7" stroke-width="0.541426" stroke-miterlimit="10"/>
<path d="M45.4414 72.214L48.2785 65.8965" stroke="#88BED7" stroke-width="0.541426" stroke-miterlimit="10"/>
<path d="M49.9805 72.4508L52.1396 67.6426" stroke="#88BED7" stroke-width="0.541426" stroke-miterlimit="10"/>
<path d="M53.1602 75.7082L55.9981 69.3906" stroke="#88BED7" stroke-width="0.541426" stroke-miterlimit="10"/>
<path d="M57.6992 75.944L59.8583 71.1367" stroke="#88BED7" stroke-width="0.541426" stroke-miterlimit="10"/>
<path d="M60.8828 79.2032L63.7199 72.8848" stroke="#88BED7" stroke-width="0.541426" stroke-miterlimit="10"/>
<path d="M65.4219 79.4381L67.581 74.6309" stroke="#88BED7" stroke-width="0.541426" stroke-miterlimit="10"/>
<path d="M68.6016 82.6964L71.4387 76.3789" stroke="#88BED7" stroke-width="0.541426" stroke-miterlimit="10"/>
<path d="M73.1367 82.9332L75.2959 78.125" stroke="#88BED7" stroke-width="0.541426" stroke-miterlimit="10"/>
<path d="M76.3242 86.1886L79.1613 79.8711" stroke="#88BED7" stroke-width="0.541426" stroke-miterlimit="10"/>
<path d="M102.176 83.4089C108.978 77.0761 101.184 47.3964 90.9319 46.116C89.8819 45.9849 87.6718 46.7831 87.5233 53.4096C87.382 59.6885 90.3855 72.4448 91.2316 75.9142C84.7918 79.126 74.6848 87.9199 72.8289 88.9542C70.973 89.9886 73.6339 95.1955 75.7528 94.7007C77.3904 94.3164 95.243 89.9706 102.176 83.4089Z" fill="#E4EFFD"/>
<path d="M72.2695 89.9712C72.2695 89.9712 80.5071 81.7223 91.2071 75.8995C91.2071 75.8995 89.0309 67.8535 88.3029 61.7129" stroke="white" stroke-width="0.649173" stroke-miterlimit="10"/>
<path d="M73.5987 94.7555C72.6658 95.1218 68.4031 96.343 67.1509 96.1786C65.8987 96.0143 63.6814 94.5005 63.4838 94.2212C63.2861 93.942 62.5625 91.5689 62.5625 91.5689C62.5625 91.5689 63.4381 90.8847 64.2699 92.0115C65.2538 93.3476 67.1008 93.08 68.1106 92.7299C68.5301 92.5862 69.3869 92.0035 69.0944 91.4243C68.802 90.8452 67.0963 91.3543 66.6071 91.1954C65.8584 90.9529 65.6608 90.0784 65.6608 90.0784C65.6608 90.0784 68.1195 89.4023 68.6123 89.2703C69.1052 89.1383 72.1596 89.2523 74.1023 90.3576C76.045 91.4629 75.757 93.9061 73.5987 94.7555Z" fill="#E18C32"/>
<path d="M76.5814 33.0215C76.5814 33.0215 75.6074 37.6007 78.9722 42.2356C78.9722 42.2356 73.1584 45.222 65.25 42.5382C65.25 42.5382 69.9099 40.9274 67.918 33.2127L76.5814 33.0215Z" fill="#E18C32"/>
<path d="M76.3914 33.0254C76.3968 33.3298 76.3968 33.583 76.3914 33.767C76.3914 33.767 76.0479 37.2419 74.2654 38.9541C72.879 40.2848 68.5849 41.6424 67.1914 40.9663C68.3337 38.5475 68.5902 35.802 67.9159 33.2122L76.3914 33.0254Z" fill="#D97802"/>
<path d="M76.4955 33.6713C76.4955 33.6713 74.6547 36.8032 73.8265 37.1156C71.7693 37.8914 68.4859 38.5711 67.3867 38.0036C66.6372 37.6166 66.5951 37.5924 65.7159 33.762C65.0898 31.0226 65.7079 25.4117 66.1238 25.1737C66.5397 24.9358 75.2907 24.336 75.7343 25.25C76.1779 26.1641 76.5303 32.2347 76.4955 33.6713Z" fill="#E18C32"/>
<path d="M66.9042 30.6585C67.2138 30.6585 67.4647 30.4066 67.4647 30.0958C67.4647 29.7851 67.2138 29.5332 66.9042 29.5332C66.5947 29.5332 66.3438 29.7851 66.3438 30.0958C66.3438 30.4066 66.5947 30.6585 66.9042 30.6585Z" fill="#40465C"/>
<path d="M71.5449 30.6585C71.8544 30.6585 72.1053 30.4066 72.1053 30.0958C72.1053 29.7851 71.8544 29.5332 71.5449 29.5332C71.2353 29.5332 70.9844 29.7851 70.9844 30.0958C70.9844 30.4066 71.2353 30.6585 71.5449 30.6585Z" fill="#40465C"/>
<path d="M69.0495 29.5918L68.2695 32.8314H69.5664" stroke="#40465C" stroke-width="0.520775" stroke-linecap="round" stroke-linejoin="round"/>
<path d="M76.4421 31.5811C76.4421 31.5811 74.8107 31.6898 75.2668 28.8955C75.6729 26.4102 75.011 25.9002 71.6891 26.8385C68.9889 27.6017 65.0195 27.4544 63.5499 25.2223C62.7172 23.9554 63.1922 23.6294 64.5338 22.798C66.2153 21.7582 69.5425 19.8349 73.7114 20.7212C77.0396 21.4269 77.2104 24.2346 77.2104 24.2346C77.2104 24.2346 79.2058 23.7857 79.6539 25.8786C80.2183 28.5175 76.5047 33.7154 76.5047 33.7154L76.4421 31.5811Z" fill="#6562CE"/>
<path d="M72.6712 26.3477C70.75 27.5544 65.7842 28.3508 64.2109 26.7786" stroke="#6562CE" stroke-width="0.432782" stroke-miterlimit="10"/>
<path d="M77.1133 24.333C77.1133 24.333 78.1669 23.1927 79.2599 23.8724" stroke="#6562CE" stroke-width="0.432782" stroke-miterlimit="10"/>
<path d="M77.0796 33.1785C76.9454 33.7173 76.5697 34.4724 76.0742 35.1728C75.8569 35.4825 75.3998 36.0805 74.8641 36.49C74.4616 37.9813 67.3975 39.3632 66.3215 37.3313C65.3376 35.4834 65.4843 32.0741 65.4843 32.0741C67.5638 30.8503 72.2819 31.4815 73.95 32.0903C74.9444 31.8636 75.9199 31.5598 76.8676 31.1816C76.6368 31.3417 76.4325 31.5371 76.2621 31.7608C75.5286 32.0153 74.7822 32.2305 74.026 32.4055C74.2183 33.1929 74.7138 35.2509 74.8444 36.0814C75.2082 35.7562 75.5316 35.3881 75.8077 34.9851C76.0896 34.588 76.3339 34.1654 76.5375 33.7227C76.6297 33.6401 76.8398 33.4371 77.0796 33.1785Z" fill="#E4EFFD"/>
<path d="M76.2422 31.7929C76.2422 31.7929 77.2422 30.3948 78.031 31.2667C78.5677 31.862 76.5025 33.7646 76.5025 33.7646L76.2422 31.7929Z" fill="#E18C32"/>
</svg>
