<svg width="610" height="1024" viewBox="0 0 610 1024" fill="none" xmlns="http://www.w3.org/2000/svg">
<rect width="610" height="1118" fill="#FAFBFC"/>
<g opacity="0.75">
<g opacity="0.75">
<rect x="6.17969" y="160.994" width="4.48634" height="4.48634" rx="2.12487" fill="#FBB6B6"/>
<rect x="24.125" y="160.994" width="4.48634" height="4.48634" rx="2.12487" fill="#FBB6B6"/>
<rect x="42.0703" y="160.994" width="4.48634" height="4.48634" rx="2.12487" fill="#FBB6B6"/>
<rect x="60.0156" y="160.994" width="4.48634" height="4.48634" rx="2.12487" fill="#FBB6B6"/>
<rect x="77.9609" y="160.994" width="4.48634" height="4.48634" rx="2.12487" fill="#FBB6B6"/>
<rect x="95.9062" y="160.994" width="4.48634" height="4.48634" rx="2.12487" fill="#FBB6B6"/>
<rect x="6.17969" y="178.94" width="4.48634" height="4.48634" rx="2.12487" fill="#FBB6B6"/>
<rect x="24.125" y="178.94" width="4.48634" height="4.48634" rx="2.12487" fill="#FBB6B6"/>
<rect x="42.0703" y="178.94" width="4.48634" height="4.48634" rx="2.12487" fill="#FBB6B6"/>
<rect x="60.0156" y="178.94" width="4.48634" height="4.48634" rx="2.12487" fill="#FBB6B6"/>
<rect x="77.9609" y="178.94" width="4.48634" height="4.48634" rx="2.12487" fill="#FBB6B6"/>
<rect x="95.9062" y="178.94" width="4.48634" height="4.48634" rx="2.12487" fill="#FBB6B6"/>
<rect x="6.17969" y="196.885" width="4.48634" height="4.48634" rx="2.12487" fill="#FBB6B6"/>
<rect x="24.125" y="196.885" width="4.48634" height="4.48634" rx="2.12487" fill="#FBB6B6"/>
<rect x="42.0703" y="196.885" width="4.48634" height="4.48634" rx="2.12487" fill="#FBB6B6"/>
<rect x="60.0156" y="196.885" width="4.48634" height="4.48634" rx="2.12487" fill="#FBB6B6"/>
<rect x="77.9609" y="196.885" width="4.48634" height="4.48634" rx="2.12487" fill="#FBB6B6"/>
<rect x="95.9062" y="196.885" width="4.48634" height="4.48634" rx="2.12487" fill="#FBB6B6"/>
<rect x="6.17969" y="214.83" width="4.48634" height="4.48634" rx="2.12487" fill="#FBB6B6"/>
<rect x="24.125" y="214.83" width="4.48634" height="4.48634" rx="2.12487" fill="#FBB6B6"/>
<rect x="42.0703" y="214.83" width="4.48634" height="4.48634" rx="2.12487" fill="#FBB6B6"/>
<rect x="60.0156" y="214.83" width="4.48634" height="4.48634" rx="2.12487" fill="#FBB6B6"/>
<rect x="77.9609" y="214.83" width="4.48634" height="4.48634" rx="2.12487" fill="#FBB6B6"/>
<rect x="95.9062" y="214.83" width="4.48634" height="4.48634" rx="2.12487" fill="#FBB6B6"/>
<rect x="6.17969" y="232.776" width="4.48634" height="4.48634" rx="2.12487" fill="#FBB6B6"/>
<rect x="24.125" y="232.776" width="4.48634" height="4.48634" rx="2.12487" fill="#FBB6B6"/>
<rect x="42.0703" y="232.776" width="4.48634" height="4.48634" rx="2.12487" fill="#FBB6B6"/>
<rect x="60.0156" y="232.776" width="4.48634" height="4.48634" rx="2.12487" fill="#FBB6B6"/>
<rect x="77.9609" y="232.776" width="4.48634" height="4.48634" rx="2.12487" fill="#FBB6B6"/>
<rect x="95.9062" y="232.776" width="4.48634" height="4.48634" rx="2.12487" fill="#FBB6B6"/>
<rect x="6.17969" y="250.721" width="4.48634" height="4.48634" rx="2.12487" fill="#FBB6B6"/>
<rect x="24.125" y="250.721" width="4.48634" height="4.48634" rx="2.12487" fill="#FBB6B6"/>
<rect x="42.0703" y="250.721" width="4.48634" height="4.48634" rx="2.12487" fill="#FBB6B6"/>
<rect x="60.0156" y="250.721" width="4.48634" height="4.48634" rx="2.12487" fill="#FBB6B6"/>
<rect x="77.9609" y="250.721" width="4.48634" height="4.48634" rx="2.12487" fill="#FBB6B6"/>
<rect x="95.9062" y="250.721" width="4.48634" height="4.48634" rx="2.12487" fill="#FBB6B6"/>
<rect x="6.17969" y="268.667" width="4.48634" height="4.48634" rx="2.12487" fill="#FBB6B6"/>
<rect x="6.17969" y="285.974" width="4.48634" height="4.48634" rx="2.12487" fill="#FBB6B6"/>
<rect x="6.17969" y="303.282" width="4.48634" height="4.48634" rx="2.12487" fill="#FBB6B6"/>
<rect x="6.17969" y="320.589" width="4.48634" height="4.48634" rx="2.12487" fill="#FBB6B6"/>
<rect x="24.125" y="268.667" width="4.48634" height="4.48634" rx="2.12487" fill="#FBB6B6"/>
<rect x="24.125" y="285.974" width="4.48634" height="4.48634" rx="2.12487" fill="#FBB6B6"/>
<rect x="24.125" y="303.282" width="4.48634" height="4.48634" rx="2.12487" fill="#FBB6B6"/>
<rect x="24.125" y="320.589" width="4.48634" height="4.48634" rx="2.12487" fill="#FBB6B6"/>
<rect x="42.0703" y="268.667" width="4.48634" height="4.48634" rx="2.12487" fill="#FBB6B6"/>
<rect x="42.0703" y="285.974" width="4.48634" height="4.48634" rx="2.12487" fill="#FBB6B6"/>
<rect x="42.0703" y="303.282" width="4.48634" height="4.48634" rx="2.12487" fill="#FBB6B6"/>
<rect x="42.0703" y="320.589" width="4.48634" height="4.48634" rx="2.12487" fill="#FBB6B6"/>
<rect x="60.0156" y="268.667" width="4.48634" height="4.48634" rx="2.12487" fill="#FBB6B6"/>
<rect x="60.0156" y="285.974" width="4.48634" height="4.48634" rx="2.12487" fill="#FBB6B6"/>
<rect x="60.0156" y="303.282" width="4.48634" height="4.48634" rx="2.12487" fill="#FBB6B6"/>
<rect x="60.0156" y="320.589" width="4.48634" height="4.48634" rx="2.12487" fill="#FBB6B6"/>
<rect x="77.9609" y="268.667" width="4.48634" height="4.48634" rx="2.12487" fill="#FBB6B6"/>
<rect x="77.9609" y="285.974" width="4.48634" height="4.48634" rx="2.12487" fill="#FBB6B6"/>
<rect x="77.9609" y="303.282" width="4.48634" height="4.48634" rx="2.12487" fill="#FBB6B6"/>
<rect x="77.9609" y="320.589" width="4.48634" height="4.48634" rx="2.12487" fill="#FBB6B6"/>
<rect x="95.9062" y="268.667" width="4.48634" height="4.48634" rx="2.12487" fill="#FBB6B6"/>
<rect x="95.9062" y="285.974" width="4.48634" height="4.48634" rx="2.12487" fill="#FBB6B6"/>
<rect x="95.9062" y="303.282" width="4.48634" height="4.48634" rx="2.12487" fill="#FBB6B6"/>
<rect x="95.9062" y="320.589" width="4.48634" height="4.48634" rx="2.12487" fill="#FBB6B6"/>
</g>
<path d="M183 858.771V858.771C231.244 830.629 290.9 830.629 339.144 858.771V858.771V858.771C387.388 886.913 447.045 886.913 495.288 858.771V858.771" stroke="#FBB6B6" stroke-linecap="round" stroke-linejoin="round"/>
<path d="M183 843.157V843.157C231.244 815.014 290.9 815.014 339.144 843.157V843.157V843.157C387.388 871.299 447.045 871.299 495.288 843.157V843.157" stroke="#FBB6B6" stroke-linecap="round" stroke-linejoin="round"/>
<path d="M183 827.542V827.542C231.244 799.4 290.9 799.4 339.144 827.542V827.542V827.542C387.388 855.684 447.045 855.684 495.288 827.542V827.542" stroke="#FBB6B6" stroke-linecap="round" stroke-linejoin="round"/>
<path d="M183 874.385V874.385C231.244 846.243 290.9 846.243 339.144 874.385V874.385V874.385C387.388 902.528 447.045 902.528 495.288 874.385V874.385" stroke="#FBB6B6" stroke-linecap="round" stroke-linejoin="round"/>
<path d="M183 890V890C231.244 861.858 290.9 861.858 339.144 890V890V890C387.388 918.142 447.045 918.142 495.288 890V890" stroke="#FBB6B6" stroke-linecap="round" stroke-linejoin="round"/>
<path d="M183 905.614V905.614C231.244 877.472 290.9 877.472 339.144 905.614V905.614V905.614C387.388 933.756 447.045 933.756 495.288 905.614V905.614" stroke="#FBB6B6" stroke-linecap="round" stroke-linejoin="round"/>
<circle cx="472.5" cy="396.5" r="33" stroke="#FBB6B6"/>
<path d="M326.477 184.616L326.477 247.836L271.727 216.226L326.477 184.616Z" stroke="#FBB6B6"/>
</g>
<path d="M-6.78494 691.133C-7.7999 724.266 -12.0063 980.677 -41.6036 1052.71C-71.6012 1125.69 -40.927 1274.15 -40.927 1274.15C0.184387 1280.63 16.8804 1273.42 16.8804 1273.42C16.8804 1273.42 73.2217 958.96 104.279 791.941L112.907 787.469C112.907 787.469 117.023 992.758 105.802 1069.82C94.564 1147.1 119.03 1274.41 119.03 1274.41C154.52 1279.91 188.459 1274.41 188.459 1274.41C188.459 1274.41 196.048 1129.58 207.861 1012C214.357 947.346 222.601 708.327 222.065 692.507L-6.78494 691.133Z" fill="#96BED5"/>
<path d="M68.2132 370.578C58.9715 370.578 -28.7151 388.038 -28.6361 426.167C-28.5459 467.934 15.9091 605.503 12.2158 630.723C8.52251 655.944 -15.2331 689.297 -4.27722 694.084C25.2411 707.038 123.788 717.271 222.289 692.18C222.289 692.18 212.01 669.01 229.721 568.359C239.38 513.441 241.635 408.409 233.397 397.426C225.159 386.444 175.556 375.169 157.377 371.801C139.198 368.433 68.2132 370.578 68.2132 370.578Z" fill="#96BED5"/>
<path d="M71.1234 370.269C73.3168 382.913 97.5461 669.635 66.2685 812.301C66.2685 812.301 15.5207 819.228 -36.3944 799.747C-36.3944 799.747 -6.92113 620.417 -5.08293 590.55C-3.24473 560.683 -26.1828 406.883 -12.3004 398.406C33.8068 370.269 71.1234 370.269 71.1234 370.269Z" fill="#E7F0FD"/>
<path d="M160.704 372.234C160.704 372.234 153.757 644.584 152.201 810.91C152.201 810.91 202.267 823.43 245.453 803.943C245.453 803.943 228.486 602.614 228.238 576.971C227.99 551.328 241.309 399.606 226.727 391.884C195.331 375.259 160.704 372.234 160.704 372.234Z" fill="#E7F0FD"/>
<path d="M271.496 647.118C215.042 617.06 179.451 375.551 217.738 388.398C224.307 390.595 243.591 398.485 256.813 409.597C287.55 435.448 318.145 540.008 326.964 572.105C377.497 574.696 462.494 594.301 475.508 597.776C489.114 601.403 486.786 653.285 472.413 653.533C465.866 653.668 304.55 661.373 271.496 647.118Z" fill="#E7F0FD"/>
<path d="M231.959 591.834C228.926 572.922 234.925 541.968 236.16 497.035" stroke="white" stroke-width="3.37133" stroke-miterlimit="10"/>
<path d="M472.561 651.247C466.212 651.247 461.064 640.089 461.064 626.325C461.064 612.561 466.212 601.403 472.561 601.403C478.911 601.403 484.059 612.561 484.059 626.325C484.059 640.089 478.911 651.247 472.561 651.247Z" fill="#D1E2FB"/>
<path d="M476.609 639.757C482.597 641.768 508.275 645.952 516.079 644.263C523.883 642.573 540.224 627.716 541.397 625.716C542.569 623.717 550.379 612.605 550.379 612.605C550.379 612.605 540.15 607.897 535.262 615.984C529.471 625.559 516.338 625.559 509.888 623.661C507.204 622.883 501.571 617.708 503.229 613.624C504.886 609.541 516.513 612.138 519.541 610.808C524.17 608.798 525.146 602.754 525.146 602.754C525.146 602.754 508.743 599.375 505.597 598.728C502.45 598.08 481.114 599.347 470.874 609.721C464.598 616.074 465.709 636.102 476.609 639.757Z" fill="#D49046"/>
<path d="M86.233 536.642L189.532 565.566C194.614 566.99 197.579 572.259 196.155 577.335L152.43 733.127C151.005 738.204 145.73 741.166 140.647 739.742L37.3484 710.818C32.2659 709.395 29.3007 704.126 30.7255 699.049L74.4504 543.257C75.8752 538.181 81.1505 535.219 86.233 536.642Z" fill="#6464C8"/>
<path d="M-72.0421 626.967C-114.563 587.508 -65.8058 402.771 -1.66054 394.802C4.91412 393.985 18.7457 398.958 19.6761 440.213C20.5557 479.311 1.76778 558.751 -3.53819 580.339C36.7612 600.327 100.016 655.088 111.631 661.519C123.247 667.951 105.778 702.87 93.3338 697.3C86.714 694.343 -36.2649 654.271 -72.0421 626.967Z" fill="#E7F0FD"/>
<path d="M115.117 667.867C115.117 667.867 63.5405 616.497 -3.39016 580.26C-3.39016 580.26 10.2272 530.163 14.7832 491.938" stroke="white" stroke-width="3.37133" stroke-miterlimit="10"/>
<path d="M106.792 697.649C112.628 699.902 139.304 707.533 147.137 706.514C154.969 705.494 168.857 696.066 170.108 694.326C171.36 692.586 175.871 677.813 175.871 677.813C175.871 677.813 170.39 673.549 165.158 680.573C158.989 688.885 147.441 687.218 141.126 685.078C138.498 684.183 133.141 680.573 134.963 676.946C136.784 673.318 147.469 676.517 150.531 675.526C155.211 674.017 156.446 668.565 156.446 668.565C156.446 668.565 141.081 664.369 137.968 663.53C134.856 662.691 115.769 663.423 103.612 670.288C91.4549 677.154 93.2649 692.366 106.792 697.649Z" fill="#D49046"/>
<path d="M171.575 463.079H224.037C225.691 463.079 227.031 464.418 227.031 466.07V494.788C227.031 496.439 225.691 497.778 224.037 497.778H171.575C169.922 497.778 168.581 496.439 168.581 494.788V466.07C168.581 464.418 169.922 463.079 171.575 463.079Z" fill="white"/>
<path d="M194.309 450.576H201.301V466.673H194.309V450.576Z" fill="#96C3D2"/>
<path d="M207.264 469.866H219.934V485.05H207.264V469.866Z" fill="#D1E2FB"/>
<path d="M176.075 469.866H203.242V473.38H176.075V469.866Z" fill="#D1E2FB"/>
<path d="M176.075 475.701H203.242V479.215H176.075V475.701Z" fill="#D1E2FB"/>
<path d="M176.075 481.536H203.242V485.05H176.075V481.536Z" fill="#D1E2FB"/>
<path d="M176.076 487.477H219.934V490.992H176.076V487.477Z" fill="#D1E2FB"/>
<path d="M86.7297 310.417C86.7297 310.417 93.0845 340.182 71.1219 370.269C71.1219 370.269 109.076 389.665 160.703 372.234C160.703 372.234 130.288 361.77 143.291 311.656L86.7297 310.417Z" fill="#D49046"/>
<path d="M87.9606 310.445C87.9268 312.422 87.9268 314.066 87.9606 315.266C87.9606 315.266 90.216 337.839 101.843 348.957C110.865 357.596 138.923 366.416 148.023 362.023C140.562 346.313 138.887 328.478 143.293 311.656L87.9606 310.445Z" fill="#CB7C2D"/>
<path d="M87.2994 314.618C87.2994 314.618 99.321 334.95 104.7 336.983C118.12 342.052 139.57 346.439 146.736 342.75C151.625 340.233 151.907 340.081 157.647 315.198C161.752 297.407 157.692 260.967 154.98 259.441C152.268 257.915 95.1315 254 92.2388 259.937C89.3462 265.873 87.0738 305.286 87.2994 314.618Z" fill="#D49046"/>
<path d="M87.6676 301.062C87.6676 301.062 98.3191 301.771 95.3362 283.602C92.6861 267.455 97.0278 264.138 118.669 270.238C136.278 275.194 162.216 274.253 171.802 259.745C177.238 251.511 174.159 249.399 165.374 243.975C154.395 237.217 132.67 224.742 105.458 230.458C83.7263 235.048 82.6154 253.279 82.6154 253.279C82.6154 253.279 69.5901 250.362 66.6637 263.98C62.976 281.141 87.2222 314.905 87.2222 314.905L87.6676 301.062Z" fill="#41465A"/>
<path d="M112.269 267.061C124.809 274.901 157.242 280.077 167.527 269.877" stroke="#41465A" stroke-width="1.68566" stroke-miterlimit="10"/>
<path d="M83.2734 253.978C83.2734 253.978 76.3943 247.974 69.2615 252.389" stroke="#41465A" stroke-width="1.68566" stroke-miterlimit="10"/>
<path d="M95.4708 289.77C97.6812 301.788 104.91 327.347 117.574 318.031C128.66 309.876 144.753 305.776 157.823 314.511C157.823 314.511 155.872 329.262 157.823 341.151C160.287 356.177 104.6 349.526 95.7979 335.096C86.996 320.667 88.8623 308.947 87.6106 301.073C86.3588 293.199 95.4708 289.77 95.4708 289.77Z" fill="#41465A"/>
<path d="M88.3008 301.101C88.3008 301.101 82.6001 294.461 77.311 299.046C73.3639 302.47 87.2915 315.277 87.2915 315.277L88.3008 301.101Z" fill="#D49046"/>
<path d="M152.812 296.387C150.675 296.387 148.943 294.657 148.943 292.523C148.943 290.39 150.675 288.66 152.812 288.66C154.948 288.66 156.68 290.39 156.68 292.523C156.68 294.657 154.948 296.387 152.812 296.387Z" fill="#40465C"/>
<path d="M120.796 296.387C118.66 296.387 116.928 294.657 116.928 292.523C116.928 290.39 118.66 288.66 120.796 288.66C122.932 288.66 124.664 290.39 124.664 292.523C124.664 294.657 122.932 296.387 120.796 296.387Z" fill="#40465C"/>
<path d="M138.031 289.054L143.41 307.516H134.462" stroke="#40465C" stroke-width="2.70302" stroke-linecap="round" stroke-linejoin="round"/>
<path d="M137.93 323.968C137.93 323.968 129.787 325.927 126.173 318.02" stroke="white" stroke-width="1.70695" stroke-linecap="round" stroke-linejoin="round"/>
</svg>
