<svg width="24" height="24" viewBox="0 0 24 24" fill="none" xmlns="http://www.w3.org/2000/svg">
<path d="M19.0712 14.2396C18.7812 14.5296 18.3212 14.5296 18.0413 14.2396C17.7513 13.9496 17.7513 13.4896 18.0413 13.2096C20.0413 11.2096 20.0413 7.95961 18.0413 5.96961C16.0413 3.97961 12.7912 3.96961 10.8012 5.96961C8.81125 7.96961 8.80125 11.2196 10.8012 13.2096C11.0912 13.4996 11.0912 13.9596 10.8012 14.2396C10.5112 14.5296 10.0512 14.5296 9.77125 14.2396C7.20125 11.6696 7.20125 7.48961 9.77125 4.92961C12.3412 2.36961 16.5212 2.35961 19.0812 4.92961C21.6412 7.49961 21.6412 11.6696 19.0712 14.2396Z" fill="#FBB6B6"/>
<path d="M4.92875 9.76047C5.21875 9.47047 5.67875 9.47047 5.95875 9.76047C6.24875 10.0505 6.24875 10.5105 5.95875 10.7905C3.95875 12.7905 3.95875 16.0405 5.95875 18.0305C7.95875 20.0205 11.2088 20.0305 13.1988 18.0305C15.1888 16.0305 15.1988 12.7805 13.1988 10.7905C12.9088 10.5005 12.9088 10.0405 13.1988 9.76047C13.4888 9.47047 13.9488 9.47047 14.2288 9.76047C16.7988 12.3305 16.7988 16.5105 14.2288 19.0705C11.6588 21.6305 7.47875 21.6405 4.91875 19.0705C2.35875 16.5005 2.35875 12.3305 4.92875 9.76047Z" fill="#FBB6B6"/>
</svg>
