<svg width="24" height="24" viewBox="0 0 24 24" fill="none" xmlns="http://www.w3.org/2000/svg">
<path d="M5.636 6.63744L12 0.273438L18.364 6.63744C19.6227 7.89611 20.4798 9.49976 20.8271 11.2456C21.1743 12.9914 20.9961 14.801 20.3149 16.4455C19.6337 18.0901 18.4802 19.4957 17.0001 20.4846C15.5201 21.4735 13.78 22.0014 12 22.0014C10.22 22.0014 8.47992 21.4735 6.99988 20.4846C5.51984 19.4957 4.36629 18.0901 3.6851 16.4455C3.00391 14.801 2.82567 12.9914 3.17293 11.2456C3.52019 9.49976 4.37734 7.89611 5.636 6.63744Z" fill="#DCDFE5"/>
<path d="M12.303 12.73H10.173V14.89H9.32301V12.73H7.20301V11.96H9.32301V9.79H10.173V11.96H12.303V12.73ZM17.7292 11.95V12.72H13.7392V11.95H17.7292Z" fill="white"/>
</svg>
