<svg width="25" height="24" viewBox="0 0 25 24" fill="none" xmlns="http://www.w3.org/2000/svg">
<path d="M11.7092 20.02C16.6853 20.02 20.7192 15.9861 20.7192 11.01C20.7192 6.03391 16.6853 2 11.7092 2C6.73313 2 2.69922 6.03391 2.69922 11.01C2.69922 15.9861 6.73313 20.02 11.7092 20.02Z" fill="#DCDFE5"/>
<path d="M22.6873 18.95C22.3573 18.34 21.6573 18 20.7173 18C20.0073 18 19.3973 18.29 19.0373 18.79C18.6773 19.29 18.5973 19.96 18.8173 20.63C19.2473 21.93 19.9973 22.22 20.4073 22.27C20.4673 22.28 20.5273 22.28 20.5973 22.28C21.0373 22.28 21.7173 22.09 22.3773 21.1C22.9073 20.33 23.0073 19.56 22.6873 18.95Z" fill="#DCDFE5"/>
</svg>
