<svg width="610" height="1024" viewBox="0 0 610 1024" fill="none" xmlns="http://www.w3.org/2000/svg">
<rect width="610" height="1118" fill="#FAFBFC"/>
<g opacity="0.75">
<g opacity="0.75">
<rect x="6.17917" y="160.994" width="4.48634" height="4.48634" rx="2.12487" fill="#FBB6B6"/>
<rect x="24.1247" y="160.994" width="4.48634" height="4.48634" rx="2.12487" fill="#FBB6B6"/>
<rect x="42.0701" y="160.994" width="4.48634" height="4.48634" rx="2.12487" fill="#FBB6B6"/>
<rect x="60.0157" y="160.994" width="4.48634" height="4.48634" rx="2.12487" fill="#FBB6B6"/>
<rect x="77.9608" y="160.994" width="4.48634" height="4.48634" rx="2.12487" fill="#FBB6B6"/>
<rect x="95.9058" y="160.994" width="4.48634" height="4.48634" rx="2.12487" fill="#FBB6B6"/>
<rect x="6.17917" y="178.94" width="4.48634" height="4.48634" rx="2.12487" fill="#FBB6B6"/>
<rect x="24.1247" y="178.94" width="4.48634" height="4.48634" rx="2.12487" fill="#FBB6B6"/>
<rect x="42.0701" y="178.94" width="4.48634" height="4.48634" rx="2.12487" fill="#FBB6B6"/>
<rect x="60.0157" y="178.94" width="4.48634" height="4.48634" rx="2.12487" fill="#FBB6B6"/>
<rect x="77.9608" y="178.94" width="4.48634" height="4.48634" rx="2.12487" fill="#FBB6B6"/>
<rect x="95.9058" y="178.94" width="4.48634" height="4.48634" rx="2.12487" fill="#FBB6B6"/>
<rect x="6.17917" y="196.885" width="4.48634" height="4.48634" rx="2.12487" fill="#FBB6B6"/>
<rect x="24.1247" y="196.885" width="4.48634" height="4.48634" rx="2.12487" fill="#FBB6B6"/>
<rect x="42.0701" y="196.885" width="4.48634" height="4.48634" rx="2.12487" fill="#FBB6B6"/>
<rect x="60.0157" y="196.885" width="4.48634" height="4.48634" rx="2.12487" fill="#FBB6B6"/>
<rect x="77.9608" y="196.885" width="4.48634" height="4.48634" rx="2.12487" fill="#FBB6B6"/>
<rect x="95.9058" y="196.885" width="4.48634" height="4.48634" rx="2.12487" fill="#FBB6B6"/>
<rect x="6.17917" y="214.83" width="4.48634" height="4.48634" rx="2.12487" fill="#FBB6B6"/>
<rect x="24.1247" y="214.83" width="4.48634" height="4.48634" rx="2.12487" fill="#FBB6B6"/>
<rect x="42.0701" y="214.83" width="4.48634" height="4.48634" rx="2.12487" fill="#FBB6B6"/>
<rect x="60.0157" y="214.83" width="4.48634" height="4.48634" rx="2.12487" fill="#FBB6B6"/>
<rect x="77.9608" y="214.83" width="4.48634" height="4.48634" rx="2.12487" fill="#FBB6B6"/>
<rect x="95.9058" y="214.83" width="4.48634" height="4.48634" rx="2.12487" fill="#FBB6B6"/>
<rect x="6.17917" y="232.776" width="4.48634" height="4.48634" rx="2.12487" fill="#FBB6B6"/>
<rect x="24.1247" y="232.776" width="4.48634" height="4.48634" rx="2.12487" fill="#FBB6B6"/>
<rect x="42.0701" y="232.776" width="4.48634" height="4.48634" rx="2.12487" fill="#FBB6B6"/>
<rect x="60.0157" y="232.776" width="4.48634" height="4.48634" rx="2.12487" fill="#FBB6B6"/>
<rect x="77.9608" y="232.776" width="4.48634" height="4.48634" rx="2.12487" fill="#FBB6B6"/>
<rect x="95.9058" y="232.776" width="4.48634" height="4.48634" rx="2.12487" fill="#FBB6B6"/>
<rect x="6.17917" y="250.721" width="4.48634" height="4.48634" rx="2.12487" fill="#FBB6B6"/>
<rect x="24.1247" y="250.721" width="4.48634" height="4.48634" rx="2.12487" fill="#FBB6B6"/>
<rect x="42.0701" y="250.721" width="4.48634" height="4.48634" rx="2.12487" fill="#FBB6B6"/>
<rect x="60.0157" y="250.721" width="4.48634" height="4.48634" rx="2.12487" fill="#FBB6B6"/>
<rect x="77.9608" y="250.721" width="4.48634" height="4.48634" rx="2.12487" fill="#FBB6B6"/>
<rect x="95.9058" y="250.721" width="4.48634" height="4.48634" rx="2.12487" fill="#FBB6B6"/>
<rect x="6.17917" y="268.666" width="4.48634" height="4.48634" rx="2.12487" fill="#FBB6B6"/>
<rect x="6.17917" y="285.974" width="4.48634" height="4.48634" rx="2.12487" fill="#FBB6B6"/>
<rect x="6.17917" y="303.282" width="4.48634" height="4.48634" rx="2.12487" fill="#FBB6B6"/>
<rect x="6.17917" y="320.589" width="4.48634" height="4.48634" rx="2.12487" fill="#FBB6B6"/>
<rect x="24.1247" y="268.666" width="4.48634" height="4.48634" rx="2.12487" fill="#FBB6B6"/>
<rect x="24.1247" y="285.974" width="4.48634" height="4.48634" rx="2.12487" fill="#FBB6B6"/>
<rect x="24.1247" y="303.282" width="4.48634" height="4.48634" rx="2.12487" fill="#FBB6B6"/>
<rect x="24.1247" y="320.589" width="4.48634" height="4.48634" rx="2.12487" fill="#FBB6B6"/>
<rect x="42.0701" y="268.666" width="4.48634" height="4.48634" rx="2.12487" fill="#FBB6B6"/>
<rect x="42.0701" y="285.974" width="4.48634" height="4.48634" rx="2.12487" fill="#FBB6B6"/>
<rect x="42.0701" y="303.282" width="4.48634" height="4.48634" rx="2.12487" fill="#FBB6B6"/>
<rect x="42.0701" y="320.589" width="4.48634" height="4.48634" rx="2.12487" fill="#FBB6B6"/>
<rect x="60.0157" y="268.666" width="4.48634" height="4.48634" rx="2.12487" fill="#FBB6B6"/>
<rect x="60.0157" y="285.974" width="4.48634" height="4.48634" rx="2.12487" fill="#FBB6B6"/>
<rect x="60.0157" y="303.282" width="4.48634" height="4.48634" rx="2.12487" fill="#FBB6B6"/>
<rect x="60.0157" y="320.589" width="4.48634" height="4.48634" rx="2.12487" fill="#FBB6B6"/>
<rect x="77.9608" y="268.666" width="4.48634" height="4.48634" rx="2.12487" fill="#FBB6B6"/>
<rect x="77.9608" y="285.974" width="4.48634" height="4.48634" rx="2.12487" fill="#FBB6B6"/>
<rect x="77.9608" y="303.282" width="4.48634" height="4.48634" rx="2.12487" fill="#FBB6B6"/>
<rect x="77.9608" y="320.589" width="4.48634" height="4.48634" rx="2.12487" fill="#FBB6B6"/>
<rect x="95.9058" y="268.666" width="4.48634" height="4.48634" rx="2.12487" fill="#FBB6B6"/>
<rect x="95.9058" y="285.974" width="4.48634" height="4.48634" rx="2.12487" fill="#FBB6B6"/>
<rect x="95.9058" y="303.282" width="4.48634" height="4.48634" rx="2.12487" fill="#FBB6B6"/>
<rect x="95.9058" y="320.589" width="4.48634" height="4.48634" rx="2.12487" fill="#FBB6B6"/>
</g>
<path d="M183 858.771V858.771C231.244 830.629 290.9 830.629 339.144 858.771V858.771V858.771C387.388 886.913 447.045 886.913 495.288 858.771V858.771" stroke="#FBB6B6" stroke-linecap="round" stroke-linejoin="round"/>
<path d="M183 843.157V843.157C231.244 815.014 290.9 815.014 339.144 843.157V843.157V843.157C387.388 871.299 447.045 871.299 495.288 843.157V843.157" stroke="#FBB6B6" stroke-linecap="round" stroke-linejoin="round"/>
<path d="M183 827.542V827.542C231.244 799.4 290.9 799.4 339.144 827.542V827.542V827.542C387.388 855.684 447.045 855.684 495.288 827.542V827.542" stroke="#FBB6B6" stroke-linecap="round" stroke-linejoin="round"/>
<path d="M183 874.385V874.385C231.244 846.243 290.9 846.243 339.144 874.385V874.385V874.385C387.388 902.528 447.045 902.528 495.288 874.385V874.385" stroke="#FBB6B6" stroke-linecap="round" stroke-linejoin="round"/>
<path d="M183 890V890C231.244 861.857 290.9 861.857 339.144 890V890V890C387.388 918.142 447.045 918.142 495.288 890V890" stroke="#FBB6B6" stroke-linecap="round" stroke-linejoin="round"/>
<path d="M183 905.614V905.614C231.244 877.472 290.9 877.472 339.144 905.614V905.614V905.614C387.388 933.756 447.045 933.757 495.288 905.614V905.614" stroke="#FBB6B6" stroke-linecap="round" stroke-linejoin="round"/>
<circle cx="472.5" cy="396.5" r="33" stroke="#FBB6B6"/>
<path d="M326.476 184.616L326.476 247.836L271.726 216.226L326.476 184.616Z" stroke="#FBB6B6"/>
</g>
<path d="M-6.78586 691.133C-7.80081 724.266 -12.0072 980.677 -41.6045 1052.71C-71.6021 1125.69 -40.9279 1274.15 -40.9279 1274.15C0.183472 1280.63 16.8795 1273.42 16.8795 1273.42C16.8795 1273.42 73.2208 958.96 104.278 791.941L112.906 787.469C112.906 787.469 117.022 992.758 105.801 1069.82C94.5631 1147.1 119.029 1274.41 119.029 1274.41C154.519 1279.91 188.458 1274.41 188.458 1274.41C188.458 1274.41 196.047 1129.58 207.86 1012C214.356 947.346 222.6 708.327 222.064 692.507L-6.78586 691.133Z" fill="#96BED5"/>
<path d="M68.2137 370.578C58.9719 370.578 -28.7146 388.038 -28.6357 426.167C-28.5455 467.934 15.9096 605.503 12.2163 630.723C8.52296 655.944 -15.2327 689.297 -4.27676 694.084C25.2415 707.038 123.788 717.271 222.29 692.18C222.29 692.18 212.01 669.01 229.721 568.359C239.38 513.441 241.636 408.409 233.398 397.426C225.16 386.444 175.557 375.168 157.378 371.801C139.199 368.433 68.2137 370.578 68.2137 370.578Z" fill="#96BED5"/>
<path d="M71.1232 370.269C73.3166 382.913 97.5459 669.635 66.2683 812.301C66.2683 812.301 15.5205 819.228 -36.3945 799.747C-36.3945 799.747 -6.92131 620.417 -5.08311 590.55C-3.24491 560.683 -26.183 406.883 -12.3006 398.406C33.8066 370.269 71.1232 370.269 71.1232 370.269Z" fill="#E7F0FD"/>
<path d="M160.704 372.234C160.704 372.234 153.757 644.584 152.201 810.91C152.201 810.91 202.267 823.43 245.453 803.943C245.453 803.943 228.487 602.614 228.238 576.971C227.99 551.328 241.309 399.606 226.727 391.884C195.331 375.259 160.704 372.234 160.704 372.234Z" fill="#E7F0FD"/>
<path d="M271.498 647.118C215.044 617.06 179.453 375.552 217.739 388.398C224.308 390.595 243.593 398.485 256.815 409.597C287.551 435.448 318.147 540.008 326.965 572.105C377.499 574.696 462.496 594.301 475.51 597.776C489.116 601.403 486.787 653.285 472.414 653.533C465.868 653.668 304.552 661.373 271.498 647.118Z" fill="#E7F0FD"/>
<path d="M231.96 591.834C228.926 572.921 234.926 541.968 236.161 497.035" stroke="white" stroke-width="3.37133" stroke-miterlimit="10"/>
<path d="M472.561 651.247C466.211 651.247 461.064 640.089 461.064 626.325C461.064 612.561 466.211 601.403 472.561 601.403C478.911 601.403 484.058 612.561 484.058 626.325C484.058 640.089 478.911 651.247 472.561 651.247Z" fill="#D1E2FB"/>
<path d="M476.61 639.757C482.598 641.768 508.276 645.952 516.08 644.263C523.884 642.573 540.225 627.716 541.398 625.716C542.57 623.717 550.38 612.605 550.38 612.605C550.38 612.605 540.151 607.897 535.263 615.984C529.472 625.559 516.339 625.559 509.889 623.661C507.205 622.884 501.572 617.708 503.23 613.624C504.887 609.541 516.514 612.138 519.542 610.808C524.171 608.798 525.147 602.755 525.147 602.755C525.147 602.755 508.744 599.375 505.598 598.728C502.451 598.08 481.115 599.347 470.875 609.721C464.599 616.074 465.71 636.102 476.61 639.757Z" fill="#D49046"/>
<path d="M86.2332 536.642L189.532 565.567C194.614 566.99 197.58 572.259 196.155 577.335L152.43 733.127C151.005 738.204 145.73 741.166 140.647 739.743L37.3487 710.818C32.2661 709.395 29.301 704.126 30.7258 699.049L74.4507 543.257C75.8755 538.181 81.1507 535.219 86.2332 536.642Z" fill="#6464C8"/>
<path d="M-72.0421 626.967C-114.563 587.509 -65.8058 402.771 -1.66057 394.802C4.91409 393.985 18.7457 398.958 19.6761 440.213C20.5557 479.311 1.76775 558.751 -3.53822 580.339C36.7612 600.327 100.015 655.088 111.631 661.519C123.247 667.951 105.778 702.87 93.3337 697.3C86.714 694.343 -36.2649 654.271 -72.0421 626.967Z" fill="#E7F0FD"/>
<path d="M115.116 667.867C115.116 667.867 63.5392 616.497 -3.39148 580.26C-3.39148 580.26 10.2258 530.163 14.7819 491.938" stroke="white" stroke-width="3.37133" stroke-miterlimit="10"/>
<path d="M106.793 697.649C112.629 699.902 139.306 707.533 147.138 706.514C154.97 705.495 168.858 696.066 170.11 694.326C171.361 692.586 175.872 677.813 175.872 677.813C175.872 677.813 170.392 673.549 165.159 680.573C158.99 688.886 147.442 687.219 141.127 685.078C138.499 684.183 133.143 680.573 134.964 676.946C136.785 673.319 147.47 676.518 150.532 675.526C155.212 674.017 156.447 668.565 156.447 668.565C156.447 668.565 141.082 664.369 137.969 663.53C134.857 662.691 115.77 663.423 103.613 670.289C91.4561 677.154 93.2661 692.366 106.793 697.649Z" fill="#D49046"/>
<path d="M171.576 463.079H224.038C225.691 463.079 227.032 464.418 227.032 466.07V494.788C227.032 496.44 225.691 497.778 224.038 497.778H171.576C169.922 497.778 168.581 496.44 168.581 494.788V466.07C168.581 464.418 169.922 463.079 171.576 463.079Z" fill="white"/>
<path d="M194.311 450.576H201.303V466.673H194.311V450.576Z" fill="#96C3D2"/>
<path d="M207.263 469.866H219.933V485.05H207.263V469.866Z" fill="#D1E2FB"/>
<path d="M176.075 469.866H203.242V473.38H176.075V469.866Z" fill="#D1E2FB"/>
<path d="M176.075 475.701H203.242V479.215H176.075V475.701Z" fill="#D1E2FB"/>
<path d="M176.075 481.536H203.242V485.05H176.075V481.536Z" fill="#D1E2FB"/>
<path d="M176.075 487.477H219.933V490.992H176.075V487.477Z" fill="#D1E2FB"/>
<path d="M86.7309 310.417C86.7309 310.417 93.0857 340.182 71.1232 370.269C71.1232 370.269 109.077 389.665 160.704 372.234C160.704 372.234 130.289 361.77 143.292 311.656L86.7309 310.417Z" fill="#D49046"/>
<path d="M87.9601 310.445C87.9263 312.422 87.9263 314.066 87.9601 315.266C87.9601 315.266 90.2156 337.839 101.842 348.957C110.864 357.596 138.922 366.416 148.023 362.023C140.562 346.313 138.886 328.478 143.292 311.656L87.9601 310.445Z" fill="#CB7C2D"/>
<path d="M87.3004 314.618C87.3004 314.618 99.322 334.95 104.701 336.983C118.121 342.052 139.571 346.439 146.737 342.75C151.626 340.233 151.908 340.081 157.648 315.198C161.753 297.407 157.693 260.967 154.981 259.441C152.269 257.915 95.1325 254 92.2398 259.937C89.3472 265.873 87.0748 305.286 87.3004 314.618Z" fill="#D49046"/>
<path d="M87.667 301.062C87.667 301.062 98.3185 301.771 95.3356 283.602C92.6854 267.455 97.0272 264.138 118.668 270.238C136.278 275.194 162.216 274.253 171.801 259.745C177.237 251.511 174.158 249.399 165.373 243.975C154.395 237.217 132.669 224.742 105.457 230.458C83.7257 235.048 82.6148 253.279 82.6148 253.279C82.6148 253.279 69.5895 250.362 66.6631 263.98C62.9754 281.141 87.2216 314.905 87.2216 314.905L87.667 301.062Z" fill="#41465A"/>
<path d="M112.268 267.061C124.809 274.901 157.242 280.077 167.527 269.877" stroke="#41465A" stroke-width="1.68566" stroke-miterlimit="10"/>
<path d="M83.2744 253.978C83.2744 253.978 76.3953 247.974 69.2625 252.39" stroke="#41465A" stroke-width="1.68566" stroke-miterlimit="10"/>
<path d="M95.4709 289.77C97.6813 301.788 104.91 327.347 117.574 318.031C128.66 309.876 144.753 305.776 157.823 314.511C157.823 314.511 155.872 329.262 157.823 341.151C160.287 356.177 104.6 349.526 95.798 335.096C86.9961 320.667 88.8624 308.947 87.6107 301.073C86.3589 293.199 95.4709 289.77 95.4709 289.77Z" fill="#41465A"/>
<path d="M88.2985 301.101C88.2985 301.101 82.5978 294.461 77.3087 299.046C73.3617 302.47 87.2892 315.277 87.2892 315.277L88.2985 301.101Z" fill="#D49046"/>
<path d="M152.81 296.387C150.674 296.387 148.942 294.657 148.942 292.524C148.942 290.39 150.674 288.66 152.81 288.66C154.947 288.66 156.678 290.39 156.678 292.524C156.678 294.657 154.947 296.387 152.81 296.387Z" fill="#40465C"/>
<path d="M120.794 296.387C118.658 296.387 116.926 294.657 116.926 292.524C116.926 290.39 118.658 288.66 120.794 288.66C122.93 288.66 124.662 290.39 124.662 292.524C124.662 294.657 122.93 296.387 120.794 296.387Z" fill="#40465C"/>
<path d="M138.031 289.054L143.411 307.516H134.462" stroke="#40465C" stroke-width="2.70302" stroke-linecap="round" stroke-linejoin="round"/>
<path d="M137.93 323.967C137.93 323.967 129.788 325.927 126.173 318.02" stroke="white" stroke-width="1.70695" stroke-linecap="round" stroke-linejoin="round"/>
</svg>
