<svg width="1440" height="100" viewBox="0 0 1440 100" fill="none" xmlns="http://www.w3.org/2000/svg">
<path d="M134.84 57.14C133.547 57.14 132.353 56.84 131.26 56.24C130.18 55.6267 129.32 54.78 128.68 53.7C128.053 52.6067 127.74 51.38 127.74 50.02C127.74 48.66 128.053 47.44 128.68 46.36C129.32 45.28 130.18 44.44 131.26 43.84C132.353 43.2267 133.547 42.92 134.84 42.92C136.147 42.92 137.34 43.2267 138.42 43.84C139.513 44.44 140.373 45.28 141 46.36C141.627 47.44 141.94 48.66 141.94 50.02C141.94 51.38 141.627 52.6067 141 53.7C140.373 54.78 139.513 55.6267 138.42 56.24C137.34 56.84 136.147 57.14 134.84 57.14ZM134.84 55.16C135.76 55.16 136.58 54.9533 137.3 54.54C138.02 54.1133 138.58 53.5133 138.98 52.74C139.393 51.9533 139.6 51.0467 139.6 50.02C139.6 48.9933 139.393 48.0933 138.98 47.32C138.58 46.5467 138.02 45.9533 137.3 45.54C136.58 45.1267 135.76 44.92 134.84 44.92C133.92 44.92 133.1 45.1267 132.38 45.54C131.66 45.9533 131.093 46.5467 130.68 47.32C130.28 48.0933 130.08 48.9933 130.08 50.02C130.08 51.0467 130.28 51.9533 130.68 52.74C131.093 53.5133 131.66 54.1133 132.38 54.54C133.1 54.9533 133.92 55.16 134.84 55.16ZM154.064 54.16H148.244L147.244 57H144.864L149.844 43.08H152.484L157.464 57H155.064L154.064 54.16ZM153.424 52.3L151.164 45.84L148.884 52.3H153.424ZM168.569 49.86C169.316 49.9933 169.949 50.3867 170.469 51.04C170.989 51.6933 171.249 52.4333 171.249 53.26C171.249 53.9667 171.062 54.6067 170.689 55.18C170.329 55.74 169.802 56.1867 169.109 56.52C168.416 56.84 167.609 57 166.689 57H161.129V43.1H166.429C167.376 43.1 168.189 43.26 168.869 43.58C169.549 43.9 170.062 44.3333 170.409 44.88C170.756 45.4133 170.929 46.0133 170.929 46.68C170.929 47.48 170.716 48.1467 170.289 48.68C169.862 49.2133 169.289 49.6067 168.569 49.86ZM163.409 48.94H166.229C166.976 48.94 167.556 48.7733 167.969 48.44C168.396 48.0933 168.609 47.6 168.609 46.96C168.609 46.3333 168.396 45.8467 167.969 45.5C167.556 45.14 166.976 44.96 166.229 44.96H163.409V48.94ZM166.489 55.14C167.262 55.14 167.869 54.9533 168.309 54.58C168.749 54.2067 168.969 53.6867 168.969 53.02C168.969 52.34 168.736 51.8 168.269 51.4C167.802 51 167.182 50.8 166.409 50.8H163.409V55.14H166.489ZM177.507 42.2V57H175.227V42.2H177.507ZM186.78 57.18C185.74 57.18 184.8 56.9467 183.96 56.48C183.12 56 182.46 55.3333 181.98 54.48C181.5 53.6133 181.26 52.6133 181.26 51.48C181.26 50.36 181.507 49.3667 182 48.5C182.493 47.6333 183.167 46.9667 184.02 46.5C184.873 46.0333 185.827 45.8 186.88 45.8C187.933 45.8 188.887 46.0333 189.74 46.5C190.593 46.9667 191.267 47.6333 191.76 48.5C192.253 49.3667 192.5 50.36 192.5 51.48C192.5 52.6 192.247 53.5933 191.74 54.46C191.233 55.3267 190.54 56 189.66 56.48C188.793 56.9467 187.833 57.18 186.78 57.18ZM186.78 55.2C187.367 55.2 187.913 55.06 188.42 54.78C188.94 54.5 189.36 54.08 189.68 53.52C190 52.96 190.16 52.28 190.16 51.48C190.16 50.68 190.007 50.0067 189.7 49.46C189.393 48.9 188.987 48.48 188.48 48.2C187.973 47.92 187.427 47.78 186.84 47.78C186.253 47.78 185.707 47.92 185.2 48.2C184.707 48.48 184.313 48.9 184.02 49.46C183.727 50.0067 183.58 50.68 183.58 51.48C183.58 52.6667 183.88 53.5867 184.48 54.24C185.093 54.88 185.86 55.2 186.78 55.2ZM201.034 57.18C199.994 57.18 199.054 56.9467 198.214 56.48C197.374 56 196.714 55.3333 196.234 54.48C195.754 53.6133 195.514 52.6133 195.514 51.48C195.514 50.36 195.761 49.3667 196.254 48.5C196.747 47.6333 197.421 46.9667 198.274 46.5C199.127 46.0333 200.081 45.8 201.134 45.8C202.187 45.8 203.141 46.0333 203.994 46.5C204.847 46.9667 205.521 47.6333 206.014 48.5C206.507 49.3667 206.754 50.36 206.754 51.48C206.754 52.6 206.501 53.5933 205.994 54.46C205.487 55.3267 204.794 56 203.914 56.48C203.047 56.9467 202.087 57.18 201.034 57.18ZM201.034 55.2C201.621 55.2 202.167 55.06 202.674 54.78C203.194 54.5 203.614 54.08 203.934 53.52C204.254 52.96 204.414 52.28 204.414 51.48C204.414 50.68 204.261 50.0067 203.954 49.46C203.647 48.9 203.241 48.48 202.734 48.2C202.227 47.92 201.681 47.78 201.094 47.78C200.507 47.78 199.961 47.92 199.454 48.2C198.961 48.48 198.567 48.9 198.274 49.46C197.981 50.0067 197.834 50.68 197.834 51.48C197.834 52.6667 198.134 53.5867 198.734 54.24C199.347 54.88 200.114 55.2 201.034 55.2ZM209.748 51.44C209.748 50.3333 209.974 49.3533 210.428 48.5C210.894 47.6467 211.521 46.9867 212.308 46.52C213.108 46.04 213.994 45.8 214.968 45.8C215.688 45.8 216.394 45.96 217.088 46.28C217.794 46.5867 218.354 47 218.768 47.52V42.2H221.068V57H218.768V55.34C218.394 55.8733 217.874 56.3133 217.208 56.66C216.554 57.0067 215.801 57.18 214.948 57.18C213.988 57.18 213.108 56.94 212.308 56.46C211.521 55.9667 210.894 55.2867 210.428 54.42C209.974 53.54 209.748 52.5467 209.748 51.44ZM218.768 51.48C218.768 50.72 218.608 50.06 218.288 49.5C217.981 48.94 217.574 48.5133 217.068 48.22C216.561 47.9267 216.014 47.78 215.428 47.78C214.841 47.78 214.294 47.9267 213.788 48.22C213.281 48.5 212.868 48.92 212.548 49.48C212.241 50.0267 212.088 50.68 212.088 51.44C212.088 52.2 212.241 52.8667 212.548 53.44C212.868 54.0133 213.281 54.4533 213.788 54.76C214.308 55.0533 214.854 55.2 215.428 55.2C216.014 55.2 216.561 55.0533 217.068 54.76C217.574 54.4667 217.981 54.04 218.288 53.48C218.608 52.9067 218.768 52.24 218.768 51.48Z" fill="#4E5D78"/>
<circle cx="78" cy="50" r="25" fill="#F65555"/>
<path d="M67.516 55.098C66.592 55.098 65.7427 54.8833 64.968 54.454C64.2027 54.0247 63.5913 53.4273 63.134 52.662C62.686 51.8873 62.462 51.0193 62.462 50.058C62.462 49.0967 62.686 48.2333 63.134 47.468C63.5913 46.7027 64.2027 46.1053 64.968 45.676C65.7427 45.2467 66.592 45.032 67.516 45.032C68.44 45.032 69.2847 45.2467 70.05 45.676C70.8247 46.1053 71.4313 46.7027 71.87 47.468C72.318 48.2333 72.542 49.0967 72.542 50.058C72.542 51.0193 72.318 51.8873 71.87 52.662C71.422 53.4273 70.8153 54.0247 70.05 54.454C69.2847 54.8833 68.44 55.098 67.516 55.098ZM67.516 52.914C68.3 52.914 68.9253 52.6527 69.392 52.13C69.868 51.6073 70.106 50.9167 70.106 50.058C70.106 49.19 69.868 48.4993 69.392 47.986C68.9253 47.4633 68.3 47.202 67.516 47.202C66.7227 47.202 66.088 47.4587 65.612 47.972C65.1453 48.4853 64.912 49.1807 64.912 50.058C64.912 50.926 65.1453 51.6213 65.612 52.144C66.088 52.6573 66.7227 52.914 67.516 52.914ZM79.9919 53.264H76.3239L75.7359 55H73.2299L76.7859 45.172H79.5579L83.1139 55H80.5799L79.9919 53.264ZM79.3759 51.416L78.1579 47.818L76.9539 51.416H79.3759ZM90.1461 49.96C90.7155 50.0813 91.1728 50.366 91.5181 50.814C91.8635 51.2527 92.0361 51.7567 92.0361 52.326C92.0361 53.1473 91.7468 53.8007 91.1681 54.286C90.5988 54.762 89.8008 55 88.7741 55H84.1961V45.172H88.6201C89.6188 45.172 90.3981 45.4007 90.9581 45.858C91.5275 46.3153 91.8121 46.936 91.8121 47.72C91.8121 48.2987 91.6581 48.7793 91.3501 49.162C91.0515 49.5447 90.6501 49.8107 90.1461 49.96ZM86.5901 49.148H88.1581C88.5501 49.148 88.8488 49.064 89.0541 48.896C89.2688 48.7187 89.3761 48.462 89.3761 48.126C89.3761 47.79 89.2688 47.5333 89.0541 47.356C88.8488 47.1787 88.5501 47.09 88.1581 47.09H86.5901V49.148ZM88.3541 53.068C88.7555 53.068 89.0635 52.9793 89.2781 52.802C89.5021 52.6153 89.6141 52.3493 89.6141 52.004C89.6141 51.6587 89.4975 51.388 89.2641 51.192C89.0401 50.996 88.7275 50.898 88.3261 50.898H86.5901V53.068H88.3541Z" fill="white"/>
</svg>
