<svg width="50" height="50" viewBox="0 0 50 50" fill="none" xmlns="http://www.w3.org/2000/svg">
<path d="M11.7417 15.6194L25 2.36108L38.2583 15.6194C40.8806 18.2417 42.6663 21.5826 43.3897 25.2197C44.1132 28.8569 43.7419 32.6269 42.3227 36.053C40.9036 39.4791 38.5003 42.4074 35.4169 44.4677C32.3335 46.5279 28.7084 47.6276 25 47.6276C21.2916 47.6276 17.6665 46.5279 14.5831 44.4677C11.4997 42.4074 9.09644 39.4791 7.67729 36.053C6.25814 32.6269 5.88681 28.8569 6.61027 25.2197C7.33372 21.5826 9.11946 18.2417 11.7417 15.6194Z" fill="url(#paint0_linear)"/>
<path d="M25.0111 26.581C24.2472 26.581 23.545 26.4035 22.9046 26.0486C22.2719 25.6937 21.7665 25.1998 21.3884 24.5671C21.018 23.9267 20.8329 23.2091 20.8329 22.4144C20.8329 21.6196 21.018 20.9059 21.3884 20.2731C21.7665 19.6404 22.2719 19.1466 22.9046 18.7917C23.545 18.4367 24.2472 18.2593 25.0111 18.2593C25.775 18.2593 26.4733 18.4367 27.106 18.7917C27.7464 19.1466 28.248 19.6404 28.6106 20.2731C28.981 20.9059 29.1662 21.6196 29.1662 22.4144C29.1662 23.2091 28.981 23.9267 28.6106 24.5671C28.2403 25.1998 27.7387 25.6937 27.106 26.0486C26.4733 26.4035 25.775 26.581 25.0111 26.581ZM25.0111 24.7755C25.6592 24.7755 26.1762 24.5594 26.562 24.1273C26.9555 23.6952 27.1523 23.1242 27.1523 22.4144C27.1523 21.6968 26.9555 21.1258 26.562 20.7014C26.1762 20.2693 25.6592 20.0532 25.0111 20.0532C24.3552 20.0532 23.8305 20.2654 23.437 20.6898C23.0512 21.1142 22.8583 21.689 22.8583 22.4144C22.8583 23.1319 23.0512 23.7068 23.437 24.1389C23.8305 24.5633 24.3552 24.7755 25.0111 24.7755ZM22.6942 35.0648H19.6618L19.1757 36.5H17.104L20.0438 28.375H22.3354L25.2753 36.5H23.1804L22.6942 35.0648ZM22.185 33.537L21.178 30.5625L20.1827 33.537H22.185ZM31.089 32.3333C31.5597 32.4336 31.9377 32.669 32.2232 33.0394C32.5087 33.402 32.6515 33.8187 32.6515 34.2894C32.6515 34.9684 32.4123 35.5085 31.9339 35.9097C31.4632 36.3032 30.8035 36.5 29.9547 36.5H26.17V28.375H29.8274C30.653 28.375 31.2973 28.564 31.7603 28.9421C32.231 29.3202 32.4663 29.8333 32.4663 30.4815C32.4663 30.9599 32.339 31.3573 32.0843 31.6736C31.8374 31.99 31.5056 32.2099 31.089 32.3333ZM28.1492 31.662H29.4455C29.7695 31.662 30.0164 31.5926 30.1862 31.4537C30.3637 31.3071 30.4524 31.0949 30.4524 30.8171C30.4524 30.5394 30.3637 30.3272 30.1862 30.1806C30.0164 30.034 29.7695 29.9606 29.4455 29.9606H28.1492V31.662ZM29.6075 34.9028C29.9393 34.9028 30.1939 34.8295 30.3714 34.6829C30.5566 34.5285 30.6492 34.3086 30.6492 34.0231C30.6492 33.7377 30.5527 33.5139 30.3598 33.3519C30.1746 33.1898 29.9161 33.1088 29.5843 33.1088H28.1492V34.9028H29.6075Z" fill="white"/>
<defs>
<linearGradient id="paint0_linear" x1="13.75" y1="55.7756" x2="44.3334" y2="-13.3619" gradientUnits="userSpaceOnUse">
<stop stop-color="#F65555"/>
<stop offset="1" stop-color="#FBB6B6"/>
</linearGradient>
</defs>
</svg>
