<svg width="159" height="50" viewBox="0 0 159 50" fill="none" xmlns="http://www.w3.org/2000/svg">
<path d="M73.86 32.14C72.5533 32.14 71.3533 31.8333 70.26 31.22C69.1667 30.6067 68.3 29.76 67.66 28.68C67.02 27.5867 66.7 26.3533 66.7 24.98C66.7 23.62 67.02 22.4 67.66 21.32C68.3 20.2267 69.1667 19.3733 70.26 18.76C71.3533 18.1467 72.5533 17.84 73.86 17.84C75.18 17.84 76.38 18.1467 77.46 18.76C78.5533 19.3733 79.4133 20.2267 80.04 21.32C80.68 22.4 81 23.62 81 24.98C81 26.3533 80.68 27.5867 80.04 28.68C79.4133 29.76 78.5533 30.6067 77.46 31.22C76.3667 31.8333 75.1667 32.14 73.86 32.14ZM73.86 29.64C74.7 29.64 75.44 29.4533 76.08 29.08C76.72 28.6933 77.22 28.1467 77.58 27.44C77.94 26.7333 78.12 25.9133 78.12 24.98C78.12 24.0467 77.94 23.2333 77.58 22.54C77.22 21.8333 76.72 21.2933 76.08 20.92C75.44 20.5467 74.7 20.36 73.86 20.36C73.02 20.36 72.2733 20.5467 71.62 20.92C70.98 21.2933 70.48 21.8333 70.12 22.54C69.76 23.2333 69.58 24.0467 69.58 24.98C69.58 25.9133 69.76 26.7333 70.12 27.44C70.48 28.1467 70.98 28.6933 71.62 29.08C72.2733 29.4533 73.02 29.64 73.86 29.64ZM92.4431 29.34H86.8831L85.9631 32H83.0231L88.0431 18.02H91.3031L96.3231 32H93.3631L92.4431 29.34ZM91.6831 27.1L89.6631 21.26L87.6431 27.1H91.6831ZM106.92 24.84C107.706 24.9867 108.353 25.38 108.86 26.02C109.366 26.66 109.62 27.3933 109.62 28.22C109.62 28.9667 109.433 29.6267 109.06 30.2C108.7 30.76 108.173 31.2 107.48 31.52C106.786 31.84 105.966 32 105.02 32H98.9995V18.04H104.76C105.706 18.04 106.52 18.1933 107.2 18.5C107.893 18.8067 108.413 19.2333 108.76 19.78C109.12 20.3267 109.3 20.9467 109.3 21.64C109.3 22.4533 109.08 23.1333 108.64 23.68C108.213 24.2267 107.64 24.6133 106.92 24.84ZM101.8 23.8H104.36C105.026 23.8 105.54 23.6533 105.9 23.36C106.26 23.0533 106.44 22.62 106.44 22.06C106.44 21.5 106.26 21.0667 105.9 20.76C105.54 20.4533 105.026 20.3 104.36 20.3H101.8V23.8ZM104.62 29.72C105.3 29.72 105.826 29.56 106.2 29.24C106.586 28.92 106.78 28.4667 106.78 27.88C106.78 27.28 106.58 26.8133 106.18 26.48C105.78 26.1333 105.24 25.96 104.56 25.96H101.8V29.72H104.62ZM115.451 17.2V32H112.651V17.2H115.451ZM123.938 32.18C122.871 32.18 121.911 31.9467 121.058 31.48C120.204 31 119.531 30.3267 119.038 29.46C118.558 28.5933 118.318 27.5933 118.318 26.46C118.318 25.3267 118.564 24.3267 119.058 23.46C119.564 22.5933 120.251 21.9267 121.118 21.46C121.984 20.98 122.951 20.74 124.018 20.74C125.084 20.74 126.051 20.98 126.918 21.46C127.784 21.9267 128.464 22.5933 128.958 23.46C129.464 24.3267 129.718 25.3267 129.718 26.46C129.718 27.5933 129.458 28.5933 128.938 29.46C128.431 30.3267 127.738 31 126.858 31.48C125.991 31.9467 125.018 32.18 123.938 32.18ZM123.938 29.74C124.444 29.74 124.918 29.62 125.358 29.38C125.811 29.1267 126.171 28.7533 126.438 28.26C126.704 27.7667 126.838 27.1667 126.838 26.46C126.838 25.4067 126.558 24.6 125.998 24.04C125.451 23.4667 124.778 23.18 123.978 23.18C123.178 23.18 122.504 23.4667 121.958 24.04C121.424 24.6 121.158 25.4067 121.158 26.46C121.158 27.5133 121.418 28.3267 121.938 28.9C122.471 29.46 123.138 29.74 123.938 29.74ZM137.491 32.18C136.425 32.18 135.465 31.9467 134.611 31.48C133.758 31 133.085 30.3267 132.591 29.46C132.111 28.5933 131.871 27.5933 131.871 26.46C131.871 25.3267 132.118 24.3267 132.611 23.46C133.118 22.5933 133.805 21.9267 134.671 21.46C135.538 20.98 136.505 20.74 137.571 20.74C138.638 20.74 139.605 20.98 140.471 21.46C141.338 21.9267 142.018 22.5933 142.511 23.46C143.018 24.3267 143.271 25.3267 143.271 26.46C143.271 27.5933 143.011 28.5933 142.491 29.46C141.985 30.3267 141.291 31 140.411 31.48C139.545 31.9467 138.571 32.18 137.491 32.18ZM137.491 29.74C137.998 29.74 138.471 29.62 138.911 29.38C139.365 29.1267 139.725 28.7533 139.991 28.26C140.258 27.7667 140.391 27.1667 140.391 26.46C140.391 25.4067 140.111 24.6 139.551 24.04C139.005 23.4667 138.331 23.18 137.531 23.18C136.731 23.18 136.058 23.4667 135.511 24.04C134.978 24.6 134.711 25.4067 134.711 26.46C134.711 27.5133 134.971 28.3267 135.491 28.9C136.025 29.46 136.691 29.74 137.491 29.74ZM145.405 26.42C145.405 25.3 145.625 24.3067 146.065 23.44C146.519 22.5733 147.132 21.9067 147.905 21.44C148.679 20.9733 149.539 20.74 150.485 20.74C151.205 20.74 151.892 20.9 152.545 21.22C153.199 21.5267 153.719 21.94 154.105 22.46V17.2H156.945V32H154.105V30.36C153.759 30.9067 153.272 31.3467 152.645 31.68C152.019 32.0133 151.292 32.18 150.465 32.18C149.532 32.18 148.679 31.94 147.905 31.46C147.132 30.98 146.519 30.3067 146.065 29.44C145.625 28.56 145.405 27.5533 145.405 26.42ZM154.125 26.46C154.125 25.78 153.992 25.2 153.725 24.72C153.459 24.2267 153.099 23.8533 152.645 23.6C152.192 23.3333 151.705 23.2 151.185 23.2C150.665 23.2 150.185 23.3267 149.745 23.58C149.305 23.8333 148.945 24.2067 148.665 24.7C148.399 25.18 148.265 25.7533 148.265 26.42C148.265 27.0867 148.399 27.6733 148.665 28.18C148.945 28.6733 149.305 29.0533 149.745 29.32C150.199 29.5867 150.679 29.72 151.185 29.72C151.705 29.72 152.192 29.5933 152.645 29.34C153.099 29.0733 153.459 28.7 153.725 28.22C153.992 27.7267 154.125 27.14 154.125 26.46Z" fill="#4E5D78"/>
<path d="M11.7417 15.6197L25 2.36133L38.2583 15.6197C40.8806 18.2419 42.6663 21.5828 43.3897 25.22C44.1132 28.8571 43.7419 32.6271 42.3227 36.0532C40.9036 39.4793 38.5003 42.4076 35.4169 44.4679C32.3335 46.5282 28.7084 47.6278 25 47.6278C21.2916 47.6278 17.6665 46.5282 14.5831 44.4679C11.4997 42.4076 9.09644 39.4793 7.67729 36.0532C6.25814 32.6271 5.88681 28.8571 6.61027 25.22C7.33372 21.5828 9.11946 18.2419 11.7417 15.6197Z" fill="url(#paint0_linear)"/>
<path d="M25.0111 26.581C24.2472 26.581 23.545 26.4035 22.9046 26.0486C22.2719 25.6937 21.7665 25.1998 21.3884 24.5671C21.018 23.9267 20.8329 23.2091 20.8329 22.4144C20.8329 21.6196 21.018 20.9059 21.3884 20.2731C21.7665 19.6404 22.2719 19.1466 22.9046 18.7917C23.545 18.4367 24.2472 18.2593 25.0111 18.2593C25.775 18.2593 26.4733 18.4367 27.106 18.7917C27.7464 19.1466 28.248 19.6404 28.6106 20.2731C28.981 20.9059 29.1662 21.6196 29.1662 22.4144C29.1662 23.2091 28.981 23.9267 28.6106 24.5671C28.2403 25.1998 27.7387 25.6937 27.106 26.0486C26.4733 26.4035 25.775 26.581 25.0111 26.581ZM25.0111 24.7755C25.6592 24.7755 26.1762 24.5594 26.562 24.1273C26.9555 23.6952 27.1523 23.1242 27.1523 22.4144C27.1523 21.6968 26.9555 21.1258 26.562 20.7014C26.1762 20.2693 25.6592 20.0532 25.0111 20.0532C24.3552 20.0532 23.8305 20.2654 23.437 20.6898C23.0512 21.1142 22.8583 21.689 22.8583 22.4144C22.8583 23.1319 23.0512 23.7068 23.437 24.1389C23.8305 24.5633 24.3552 24.7755 25.0111 24.7755ZM22.6942 35.0648H19.6618L19.1757 36.5H17.104L20.0438 28.375H22.3354L25.2753 36.5H23.1804L22.6942 35.0648ZM22.185 33.537L21.178 30.5625L20.1827 33.537H22.185ZM31.089 32.3333C31.5597 32.4336 31.9377 32.669 32.2232 33.0394C32.5087 33.402 32.6515 33.8187 32.6515 34.2894C32.6515 34.9684 32.4123 35.5085 31.9339 35.9097C31.4632 36.3032 30.8035 36.5 29.9547 36.5H26.17V28.375H29.8274C30.653 28.375 31.2973 28.564 31.7603 28.9421C32.231 29.3202 32.4663 29.8333 32.4663 30.4815C32.4663 30.9599 32.339 31.3573 32.0843 31.6736C31.8374 31.99 31.5056 32.2099 31.089 32.3333ZM28.1492 31.662H29.4455C29.7695 31.662 30.0164 31.5926 30.1862 31.4537C30.3637 31.3071 30.4524 31.0949 30.4524 30.8171C30.4524 30.5394 30.3637 30.3272 30.1862 30.1806C30.0164 30.034 29.7695 29.9606 29.4455 29.9606H28.1492V31.662ZM29.6075 34.9028C29.9393 34.9028 30.1939 34.8295 30.3714 34.6829C30.5566 34.5285 30.6492 34.3086 30.6492 34.0231C30.6492 33.7377 30.5527 33.5139 30.3598 33.3519C30.1746 33.1898 29.9161 33.1088 29.5843 33.1088H28.1492V34.9028H29.6075Z" fill="white"/>
<defs>
<linearGradient id="paint0_linear" x1="13.75" y1="55.7758" x2="44.3334" y2="-13.3617" gradientUnits="userSpaceOnUse">
<stop stop-color="#F65555"/>
<stop offset="1" stop-color="#FBB6B6"/>
</linearGradient>
</defs>
</svg>
