<svg width="24" height="25" viewBox="0 0 24 25" fill="none" xmlns="http://www.w3.org/2000/svg">
<g clip-path="url(#clip0)">
<path d="M5.636 7.34577L12 0.981766L18.364 7.34577C19.6227 8.60444 20.4798 10.2081 20.8271 11.9539C21.1743 13.6997 20.9961 15.5093 20.3149 17.1539C19.6337 18.7984 18.4802 20.204 17.0001 21.1929C15.5201 22.1819 13.78 22.7097 12 22.7097C10.22 22.7097 8.47992 22.1819 6.99988 21.1929C5.51984 20.204 4.36629 18.7984 3.6851 17.1539C3.00391 15.5093 2.82567 13.6997 3.17293 11.9539C3.52019 10.2081 4.37734 8.60444 5.636 7.34577Z" fill="#FBB6B6"/>
</g>
<defs>
<clipPath id="clip0">
<rect width="24" height="24" fill="white" transform="translate(0 0.709763)"/>
</clipPath>
</defs>
</svg>
