<svg width="24" height="24" viewBox="0 0 24 24" fill="none" xmlns="http://www.w3.org/2000/svg">
<path d="M18.3281 9.89062V16.9219L19.7344 18.3281V21.8906C19.7344 23.0578 18.7922 24 17.625 24H6.375C5.20777 24 4.26562 23.0578 4.26562 21.8906V18.3281L5.67188 16.9219V9.89062L4.26562 8.48438V4.92188C4.26562 3.75464 5.20777 2.8125 6.375 2.8125H17.625C18.7922 2.8125 19.7344 3.75464 19.7344 4.92188V8.48438L18.3281 9.89062Z" fill="#FBB6B6"/>
<path d="M18.3281 9.89062V16.9219L19.7344 18.3281V21.8906C19.7344 23.0578 18.7922 24 17.625 24H12V2.8125H17.625C18.7922 2.8125 19.7344 3.75464 19.7344 4.92188V8.48438L18.3281 9.89062Z" fill="#FBB6B6"/>
<path d="M14.1094 5.625V2.10938C14.1094 1.71558 14.4187 1.40625 14.8125 1.40625L13.4062 0.703125H10.5938L9.1875 1.40625C9.5813 1.40625 9.89062 1.71558 9.89062 2.10938V5.625H7.07812V21.1875H16.9219V5.625H14.1094Z" fill="#FBB6B6"/>
<path d="M16.9219 5.625V21.1875H12V0.703125H13.4062L14.8125 1.40625C14.4187 1.40625 14.1094 1.71558 14.1094 2.10938V5.625H16.9219Z" fill="#FBB6B6"/>
<path d="M9.1875 0H14.8125V1.40625H9.1875V0Z" fill="#FBB6B6"/>
<path d="M12 0H14.8125V1.40625H12V0Z" fill="#FBB6B6"/>
<path d="M4.26562 8.48438H19.7344V18.3281H4.26562V8.48438Z" fill="#FBB6B6"/>
<path d="M15 12V14H13V16H11V14H9V12H11V10H13V12H15Z" fill="white"/>
<path d="M15 12V14H13V16H12V10H13V12H15Z" fill="white"/>
</svg>
