<svg width="24" height="24" viewBox="0 0 24 24" fill="none" xmlns="http://www.w3.org/2000/svg">
<g clip-path="url(#clip0)">
<path d="M11 8L9.42229 7.21115C9.14458 7.07229 8.83835 7 8.52786 7H7.82843C7.29799 7 6.78929 7.21071 6.41421 7.58579L5.58579 8.41421C5.21071 8.78929 5 9.29799 5 9.82843V14.9296C5 15.5983 5.3342 16.2228 5.8906 16.5937L9.75746 19.1716C10.4944 19.663 11.4668 19.611 12.1472 19.044L17 15" stroke="white" stroke-width="2" stroke-linecap="round"/>
<path d="M14.4551 12.9142C13.8517 12.1062 12.7412 11.8739 11.8645 12.3721L10.0092 13.4266C9.41314 13.7653 8.66428 13.6641 8.17953 13.1794C7.54621 12.546 7.5934 11.5056 8.28146 10.9323L12.4439 7.46356C12.8034 7.16403 13.2564 7 13.7243 7H14.5281C14.8386 7 15.1448 7.07229 15.4225 7.21115L17.8946 8.44721C18.5722 8.786 19.0002 9.47852 19.0002 10.2361V12.9796C19.0002 14.9037 16.5491 15.718 15.3978 14.1764L14.4551 12.9142Z" stroke="white" stroke-width="2" stroke-linecap="square"/>
<path d="M1 17V8" stroke="white" stroke-width="3" stroke-linecap="square"/>
<path d="M1 17V8" stroke="white" stroke-width="3" stroke-linecap="square"/>
<path d="M23 17V8" stroke="white" stroke-width="3" stroke-linecap="square"/>
</g>
<defs>
<clipPath id="clip0">
<rect width="24" height="24" fill="white"/>
</clipPath>
</defs>
</svg>
