<svg width="346" height="304" viewBox="0 0 346 304" fill="none" xmlns="http://www.w3.org/2000/svg">
<path d="M37.7969 253.092H319.679" stroke="#6464C8" stroke-width="0.329056" stroke-miterlimit="10"/>
<path d="M78.8901 256.154H56.8828L67.1493 253.273H89.1566L78.8901 256.154Z" fill="#E7F0FD"/>
<path d="M122.74 256.154H100.727L110.993 253.273H133L122.74 256.154Z" fill="#E7F0FD"/>
<path d="M166.581 256.154H144.574L154.834 253.273H176.848L166.581 256.154Z" fill="#E7F0FD"/>
<path d="M210.425 256.154H188.418L198.685 253.273H220.692L210.425 256.154Z" fill="#E7F0FD"/>
<path d="M254.272 256.154H232.258L242.524 253.273H264.532L254.272 256.154Z" fill="#E7F0FD"/>
<path d="M90.5502 259.034H68.543L78.8029 256.154H100.817L90.5502 259.034Z" fill="#E7F0FD"/>
<path d="M46.8393 259.034H24.832L35.092 256.154H57.1058L46.8393 259.034Z" fill="#E7F0FD"/>
<path d="M134.39 259.034H112.383L122.649 256.154H144.657L134.39 259.034Z" fill="#E7F0FD"/>
<path d="M178.244 259.034H156.23L166.497 256.154H188.504L178.244 259.034Z" fill="#E7F0FD"/>
<path d="M222.085 259.034H200.078L210.338 256.154H232.352L222.085 259.034Z" fill="#E7F0FD"/>
<path d="M265.929 259.034H243.922L254.188 256.154H276.196L265.929 259.034Z" fill="#E7F0FD"/>
<path d="M70.0033 264.861H47.9961L58.256 261.98H80.2633L70.0033 264.861Z" fill="#E7F0FD"/>
<path d="M113.847 264.861H91.8398L102.1 261.98H124.114L113.847 264.861Z" fill="#E7F0FD"/>
<path d="M157.701 264.861H135.688L145.954 261.98H167.961L157.701 264.861Z" fill="#E7F0FD"/>
<path d="M201.538 264.861H179.531L189.791 261.98H211.798L201.538 264.861Z" fill="#E7F0FD"/>
<path d="M245.386 264.861H223.379L233.639 261.98H255.653L245.386 264.861Z" fill="#E7F0FD"/>
<path d="M58.3627 261.915H36.3555L46.622 259.035H68.6292L58.3627 261.915Z" fill="#E7F0FD"/>
<path d="M102.213 261.915H80.1992L90.4658 259.035H112.473L102.213 261.915Z" fill="#E7F0FD"/>
<path d="M146.058 261.915H124.051L134.311 259.035H156.325L146.058 261.915Z" fill="#E7F0FD"/>
<path d="M189.898 261.915H167.891L178.157 259.035H200.164L189.898 261.915Z" fill="#E7F0FD"/>
<path d="M233.752 261.915H211.738L222.005 259.035H244.012L233.752 261.915Z" fill="#E7F0FD"/>
<path d="M297.757 256.154H275.75L286.01 253.273H308.024L297.757 256.154Z" fill="#E7F0FD"/>
<path d="M309.416 259.034H287.402L297.669 256.154H319.676L309.416 259.034Z" fill="#E7F0FD"/>
<path d="M288.873 264.863H266.859L277.126 261.982H299.133L288.873 264.863Z" fill="#E7F0FD"/>
<path d="M277.23 261.915H255.223L265.483 259.035H287.496L277.23 261.915Z" fill="#E7F0FD"/>
<path d="M95.1074 105.18H75.8681C73.6608 105.18 71.8711 103.354 71.8711 101.103V81.4759C71.8711 79.2242 73.6608 77.3984 75.8681 77.3984H95.1074C97.3147 77.3984 99.1044 79.2242 99.1044 81.4759V101.103C99.1044 103.354 97.3147 105.18 95.1074 105.18Z" fill="#E7F0FD"/>
<path d="M96.5175 103.772H77.2783C75.071 103.772 73.2812 101.946 73.2812 99.6944V80.0677C73.2812 77.816 75.071 75.9902 77.2783 75.9902H96.5175C98.7248 75.9902 100.515 77.816 100.515 80.0677V99.6944C100.515 101.946 98.7248 103.772 96.5175 103.772Z" stroke="#E5B21A" stroke-width="0.497139" stroke-miterlimit="10"/>
<path d="M87.5788 75.9902H86.2266V80.0779H87.5788V75.9902Z" fill="white" stroke="#E5B21A" stroke-width="0.497139" stroke-miterlimit="10"/>
<path d="M87.5788 99.6738H86.2266V103.761H87.5788V99.6738Z" fill="white" stroke="#E5B21A" stroke-width="0.497139" stroke-miterlimit="10"/>
<path d="M73.293 89.1811L73.293 90.5605L77.2999 90.5605L77.2999 89.1811L73.293 89.1811Z" stroke="#E5B21A" stroke-width="0.497139" stroke-miterlimit="10"/>
<path d="M96.5195 89.1928L96.5195 90.5723L100.526 90.5723L100.526 89.1928L96.5195 89.1928Z" fill="white" stroke="#E5B21A" stroke-width="0.497139" stroke-miterlimit="10"/>
<path d="M84.5169 84.3984L86.8335 89.7539L80.3906 95.5253" stroke="#E5B21A" stroke-width="0.497139" stroke-miterlimit="10"/>
<path d="M86.9016 90.5648C87.2745 90.5648 87.5767 90.2565 87.5767 89.8762C87.5767 89.4958 87.2745 89.1875 86.9016 89.1875C86.5288 89.1875 86.2266 89.4958 86.2266 89.8762C86.2266 90.2565 86.5288 90.5648 86.9016 90.5648Z" fill="white" stroke="#E5B21A" stroke-width="0.497139" stroke-miterlimit="10"/>
<path d="M150.074 35.0137V67.2379" stroke="#96BED5" stroke-width="0.497139" stroke-miterlimit="10"/>
<path d="M209.625 35.0137V67.2379" stroke="#96BED5" stroke-width="0.497139" stroke-miterlimit="10"/>
<path d="M269.16 35.0137V67.2379" stroke="#96BED5" stroke-width="0.497139" stroke-miterlimit="10"/>
<path d="M137.598 73.9935C137.598 69.1147 141.495 67.2383 146.298 67.2383H272.611C277.413 67.2383 281.311 69.3784 281.311 74.2674" stroke="#E5B21A" stroke-width="0.497139" stroke-miterlimit="10"/>
<path d="M205.273 73.5861H143.747C142.733 73.5861 141.918 72.7443 141.918 71.7198C141.918 70.6852 142.743 69.8535 143.747 69.8535H205.273C206.288 69.8535 207.103 70.6954 207.103 71.7198C207.113 72.7443 206.288 73.5861 205.273 73.5861Z" fill="#E7F0FD"/>
<path d="M275.285 73.5861H213.759C212.745 73.5861 211.93 72.7443 211.93 71.7198C211.93 70.6852 212.755 69.8535 213.759 69.8535H275.285C276.299 69.8535 277.115 70.6954 277.115 71.7198C277.115 72.7443 276.299 73.5861 275.285 73.5861Z" fill="#E7F0FD"/>
<path d="M255.338 119.828H231.426V124.545H255.338V119.828Z" fill="white" stroke="#E5B21A" stroke-width="0.497139" stroke-miterlimit="10"/>
<path d="M259.315 117.688H235.164V119.534H259.315V117.688Z" fill="#6464C8"/>
<path d="M257.069 114.959H232.918V117.373H257.069V114.959Z" fill="white" stroke="#96BED5" stroke-width="0.497139" stroke-miterlimit="10"/>
<path d="M252.762 111.896H231.465V114.645H252.762V111.896Z" fill="#E7F0FD"/>
<path d="M259.397 128.511H214.466L205.617 115.365H164.324V111.896H207.366L216.216 125.042H259.397V128.511Z" fill="white" stroke="#96BED5" stroke-width="0.497139" stroke-miterlimit="10"/>
<path d="M221.474 124.82C218.094 124.82 215.359 122.031 215.359 118.582V117.588H227.589V118.582C227.579 122.031 224.845 124.82 221.474 124.82Z" fill="#D1E2FB"/>
<path d="M217.3 117.596C217.3 117.596 214.655 119.797 213.134 117.991C212.04 116.683 216.375 116.683 216.375 116.683C216.375 116.683 214.088 114.817 214.814 114.482C216.594 113.65 217.638 116.44 217.638 116.44C217.638 116.44 215.182 111.764 217.31 110.962C219.06 110.303 219.06 115.121 219.06 115.121C219.06 115.121 219.428 113.163 220.422 113.295C221.406 113.417 220.7 115.496 220.7 115.496C220.7 115.496 221.565 114.898 221.625 116.257C221.625 116.257 221.794 111.104 223.912 111.591C225.672 111.997 223.325 115.527 223.325 115.527C223.325 115.527 224.687 113.792 225.891 114.33C227.094 114.867 224.807 116.47 224.807 116.47C224.807 116.47 228.078 113.356 229.261 114.188C230.166 114.827 227.869 116.389 227.869 116.389C227.869 116.389 229.51 115.922 229.878 116.744C230.245 117.565 227.581 117.606 227.581 117.606H217.3V117.596Z" fill="#91882A"/>
<path d="M218.695 117.597C218.695 117.597 218.785 113.154 220.425 113.286C222.066 113.418 219.779 117.597 219.779 117.597H218.695Z" fill="#CBC253"/>
<path d="M218.693 117.595C218.693 117.595 217.053 113.406 214.816 114.481C212.638 115.526 217.321 117.595 217.321 117.595H218.693Z" fill="#CBC253"/>
<path d="M222.07 117.596C222.07 117.596 223.542 113.823 225.888 114.178C228.235 114.533 222.995 117.596 222.995 117.596H222.07Z" fill="#CBC253"/>
<path d="M224.48 117.596C224.48 117.596 229.064 115.243 229.889 116.663C230.705 118.072 224.48 117.596 224.48 117.596Z" fill="#CBC253"/>
<path d="M176.348 87.9277H170.074V111.906H176.348V87.9277Z" fill="white" stroke="#96BED5" stroke-width="0.497139" stroke-miterlimit="10"/>
<path d="M174.649 96.1641H171.766V96.9248H174.649V96.1641Z" fill="#96BED5"/>
<path d="M174.649 98.1816H171.766V98.9424H174.649V98.1816Z" fill="#96BED5"/>
<path d="M174.649 100.211H171.766V100.972H174.649V100.211Z" fill="#96BED5"/>
<path d="M174.649 102.23H171.766V102.991H174.649V102.23Z" fill="#96BED5"/>
<path d="M173.205 109.197C173.985 109.197 174.617 108.552 174.617 107.757C174.617 106.961 173.985 106.316 173.205 106.316C172.425 106.316 171.793 106.961 171.793 107.757C171.793 108.552 172.425 109.197 173.205 109.197Z" fill="#96BED5"/>
<path d="M183.172 87.9277H176.898V111.906H183.172V87.9277Z" fill="white" stroke="#E5B21A" stroke-width="0.497139" stroke-miterlimit="10"/>
<path d="M181.477 96.1641H178.594V96.9248H181.477V96.1641Z" fill="#E5B21A"/>
<path d="M181.477 98.1816H178.594V98.9424H181.477V98.1816Z" fill="#E5B21A"/>
<path d="M181.477 100.211H178.594V100.972H181.477V100.211Z" fill="#E5B21A"/>
<path d="M181.477 102.229H178.594V102.989H181.477V102.229Z" fill="#E5B21A"/>
<path d="M180.037 109.197C180.817 109.197 181.449 108.552 181.449 107.757C181.449 106.961 180.817 106.316 180.037 106.316C179.257 106.316 178.625 106.961 178.625 107.757C178.625 108.552 179.257 109.197 180.037 109.197Z" fill="#E5B21A"/>
<path d="M190 87.9277H183.727V111.906H190V87.9277Z" fill="#E7F0FD" stroke="#96BED5" stroke-width="0.497139" stroke-miterlimit="10"/>
<path d="M188.297 96.0625H185.414V96.8232H188.297V96.0625Z" fill="white"/>
<path d="M188.297 98.082H185.414V98.8427H188.297V98.082Z" fill="white"/>
<path d="M188.297 100.109H185.414V100.87H188.297V100.109Z" fill="white"/>
<path d="M188.297 102.127H185.414V102.888H188.297V102.127Z" fill="white"/>
<path d="M186.853 109.095C187.633 109.095 188.265 108.451 188.265 107.655C188.265 106.86 187.633 106.215 186.853 106.215C186.074 106.215 185.441 106.86 185.441 107.655C185.441 108.451 186.074 109.095 186.853 109.095Z" fill="white"/>
<path d="M196.825 87.9277H190.551V111.906H196.825V87.9277Z" fill="white" stroke="#6464C8" stroke-width="0.497139" stroke-miterlimit="10"/>
<path d="M195.133 96.1641H192.25V96.9248H195.133V96.1641Z" fill="#6464C8"/>
<path d="M195.133 98.1816H192.25V98.9424H195.133V98.1816Z" fill="#6464C8"/>
<path d="M195.133 100.211H192.25V100.972H195.133V100.211Z" fill="#6464C8"/>
<path d="M195.133 102.229H192.25V102.989H195.133V102.229Z" fill="#6464C8"/>
<path d="M193.693 109.197C194.473 109.197 195.105 108.552 195.105 107.757C195.105 106.961 194.473 106.316 193.693 106.316C192.913 106.316 192.281 106.961 192.281 107.757C192.281 108.552 192.913 109.197 193.693 109.197Z" fill="#6464C8"/>
<path d="M298.959 232.851C299.765 234.971 300.351 237.293 300.481 239.687L299.983 239.717C299.894 238.135 299.606 236.583 299.178 235.102L295.579 233.033C297.17 232.749 298.144 233.155 298.731 233.713C298.452 232.911 298.134 232.13 297.796 231.38L291.572 228.398C294.445 228.104 296.205 229.148 297.199 230.122C296.792 229.301 296.364 228.54 295.937 227.82L288.032 225.73C290.965 224.959 293.401 225.183 294.982 226.319C294.962 226.298 294.952 226.278 294.933 226.248C294.296 225.294 293.67 224.432 293.083 223.681L285.119 222.779C288.609 221.156 291.114 222.048 292.437 222.87C291.632 221.886 290.975 221.166 290.607 220.781C288.649 219.543 282.723 215.719 283.319 215.202C283.995 214.614 287.217 213.873 290.687 220.141C290.926 220.375 292.029 221.521 293.411 223.296C292.407 221.085 291.582 217.94 292.984 215.019L294.982 225.446C295.092 225.609 295.211 225.781 295.32 225.943C295.688 226.491 296.066 227.089 296.434 227.728C295.509 225.325 294.942 222.028 296.623 219.34L297.518 229.696C297.756 230.163 297.985 230.65 298.214 231.147C297.786 228.864 298.333 226.947 299.904 224.665L298.959 232.851Z" fill="#D1E2FB"/>
<path d="M301.627 226.036C302.522 235.763 302.82 241.463 302.83 241.605L302.333 241.636C302.323 241.484 301.955 234.485 300.822 222.739V222.729C300.682 221.766 300.593 220.904 300.563 220.112C300.364 218.165 300.146 216.106 299.917 213.935C299.907 213.844 299.887 213.753 299.877 213.662C296.516 204.462 292.599 203.884 292.599 203.884C296.109 204.066 298.097 205.699 299.201 207.677C299.052 206.45 298.903 205.182 298.744 203.904C295.82 195.668 290.312 194.258 290.312 194.258C294.399 193.487 296.686 195.272 297.948 197.686C297.819 196.682 297.68 195.678 297.541 194.654C296.009 192.747 291.873 187.909 287.827 185.768C287.827 185.768 294.21 185.819 296.944 190.363C296.884 189.937 296.825 189.501 296.755 189.065C295.244 185.971 291.595 179.175 287.697 177.116C287.697 177.116 293.017 177.289 295.811 182.665C295.651 181.61 295.482 180.535 295.313 179.459C293.196 176.64 286.663 168.272 282.875 167.146C282.875 167.146 290.939 165.919 294.607 175.027C294.399 173.739 294.18 172.43 293.961 171.122C292.241 167.673 288.174 160.523 284.108 160.523C284.108 160.523 289.755 158.372 292.937 165.138C292.689 163.748 292.44 162.348 292.181 160.938C289.089 160.208 289.547 142.265 290.253 142.225C290.253 142.225 294.299 159.569 292.679 160.878C293.106 163.2 293.514 165.503 293.902 167.775C293.911 167.805 293.921 167.825 293.921 167.856C292.728 155.258 299.907 155.431 299.907 155.431C295.294 160.837 294.876 173.597 294.876 173.597C294.866 173.577 294.866 173.546 294.856 173.526C295.144 175.27 295.423 176.995 295.691 178.699C295.701 178.76 295.721 178.82 295.731 178.891C294.369 163.941 303.984 164.478 303.984 164.478C298.992 168.769 296.477 180.007 296.139 181.589C296.288 182.573 296.437 183.547 296.586 184.521C296.695 184.835 296.785 185.16 296.874 185.505C296.705 173.688 305.535 174.033 305.535 174.033C299.678 178.171 297.73 190.018 297.551 191.185C297.58 191.428 297.62 191.672 297.65 191.905C297.69 192.027 297.73 192.148 297.769 192.27C298.167 183.385 306.499 182.299 306.499 182.299C298.435 186.915 298.595 198.559 298.595 198.559C298.565 198.437 298.535 198.325 298.495 198.214C298.555 198.63 298.604 199.035 298.654 199.441C298.803 199.898 298.923 200.364 299.022 200.821C299.271 191.54 304.441 192.777 304.441 192.777C301.935 195.374 300.782 201.145 300.265 205.212C301.826 201.145 305.415 201.744 305.415 201.744C302.472 204.401 301.408 211.562 301.031 215.65C302.283 211.988 305.415 212.505 305.415 212.505C302.403 215.244 301.756 223.713 301.627 226.036Z" fill="#D1E2FB"/>
<path d="M312.441 212.596C312.331 213.073 312.212 213.55 312.103 214.016C314.857 208.671 319.47 208.864 319.47 208.864C314.429 212.363 311.884 217.15 310.601 220.65C310.472 221.238 310.343 221.816 310.223 222.374C310.144 222.749 310.064 223.115 309.985 223.48C312.659 217.191 317.78 217.404 317.78 217.404C312.311 221.197 309.776 226.512 308.613 230.062C308.613 230.062 308.613 230.062 308.613 230.073C307.489 235.601 306.753 239.506 306.744 239.566L306.256 239.475C306.266 239.445 306.505 238.126 306.932 235.945C306.763 233.967 306.246 229.413 305.023 227.79C305.023 227.79 307.191 228.308 307.658 231.34C307.559 227.983 307.131 221.928 305.302 219.422C305.302 219.422 308.722 220.974 308.702 227.162C308.851 226.452 309 225.731 309.16 224.991C309.199 221.776 309.09 212.353 306.565 208.752C306.565 208.752 310.9 210.821 310.492 218.834C310.601 218.357 310.701 217.881 310.81 217.394C310.86 214.949 310.929 204.431 308.225 200.577C308.225 200.577 313.097 202.9 312.033 212.14C312.292 211.044 312.56 209.959 312.828 208.884C312.52 205.983 311.526 196.824 311.148 195.881C310.651 194.643 314.022 199.268 313.445 206.46C313.872 204.806 314.31 203.214 314.737 201.723C314.469 199.228 313.713 192.3 313.425 191.57C313.027 190.586 315.712 194.268 315.255 200.009C315.632 198.771 316.01 197.635 316.368 196.621C316.845 192.98 318.217 184.338 320.365 184.784C321.767 185.078 318.536 192.858 316.975 196.428C316.487 197.757 315.98 199.329 315.463 201.054C316.647 198.467 318.734 195.779 322.274 195.84C322.274 195.84 318.108 197.189 314.31 205.172C314.042 206.176 313.773 207.22 313.505 208.275C314.956 204.888 317.611 201.175 322.274 201.256C322.274 201.246 317.173 202.9 312.441 212.596Z" fill="#D1E2FB"/>
<path d="M309.302 249.668H296.982C294.745 249.668 292.926 247.812 292.926 245.53V242.822C292.926 240.54 294.745 238.684 296.982 238.684H309.302C311.539 238.684 313.358 240.54 313.358 242.822V245.52C313.358 247.812 311.539 249.668 309.302 249.668Z" fill="#E5B21A"/>
<path d="M276.468 196.927L272.292 210.853C271.427 213.744 269.001 215.702 266.287 215.702H242.653C239.929 215.702 237.512 213.754 236.647 210.853L233.207 199.402C232.611 197.404 233.933 195.335 235.812 195.335H238.457C239.7 195.335 240.764 194.3 240.933 192.921L242.474 180.637C242.842 177.706 245.079 175.525 247.714 175.525H268.991C272.213 175.525 274.679 178.72 274.231 182.291L272.909 192.89C272.75 194.188 273.645 195.335 274.808 195.335H275.444C276.18 195.335 276.697 196.146 276.468 196.927Z" fill="#6464C8"/>
<path d="M256.097 215.316H252.637V241.587H256.097V215.316Z" fill="white" stroke="#6464C8" stroke-width="0.497139" stroke-miterlimit="10"/>
<path d="M263.807 245.085V243.868C263.807 242.61 262.386 241.586 260.636 241.586H248.297C246.547 241.586 245.125 242.61 245.125 243.868V245.085" stroke="#6464C6" stroke-width="0.596567" stroke-miterlimit="10"/>
<path d="M245.196 250.034C246.535 250.034 247.622 248.926 247.622 247.559C247.622 246.192 246.535 245.084 245.196 245.084C243.856 245.084 242.77 246.192 242.77 247.559C242.77 248.926 243.856 250.034 245.196 250.034Z" fill="white" stroke="#E3B03D" stroke-width="0.497139" stroke-miterlimit="10"/>
<path d="M263.77 250.034C265.11 250.034 266.196 248.926 266.196 247.559C266.196 246.192 265.11 245.084 263.77 245.084C262.43 245.084 261.344 246.192 261.344 247.559C261.344 248.926 262.43 250.034 263.77 250.034Z" fill="white" stroke="#E3B03D" stroke-width="0.497139" stroke-miterlimit="10"/>
<path d="M223.919 237.752C223.611 238.939 222.478 243.016 222.885 244.477C223.293 245.937 224.426 247.012 224.108 248.503C223.78 250.086 214.653 249.082 214.374 249.021C214.096 248.96 219.216 246.059 219.276 243.899C219.336 241.738 218.66 237.752 218.66 237.752H223.919Z" fill="#D28E46"/>
<path d="M212.925 250.156H224.2C224.468 250.156 224.687 249.933 224.687 249.659C224.687 249.385 224.468 249.162 224.2 249.162H212.925C212.656 249.162 212.438 249.385 212.438 249.659C212.438 249.933 212.656 250.156 212.925 250.156Z" fill="#94BCD3"/>
<path d="M221.001 249.233C221.001 249.233 219.818 247.762 218.147 247.326C216.318 246.849 215.433 247.103 214.448 247.61C213.494 248.107 212.957 249.162 212.957 249.162L221.001 249.233Z" fill="#CFE0F9"/>
<path d="M221.036 249.202C221.036 249.202 220.936 245.753 223.174 245.297C223.174 245.297 225.321 247.254 224.138 249.202H221.036Z" fill="#CFE0F9"/>
<path d="M223.922 237.752H218.672C218.672 237.752 218.801 238.513 218.94 239.557C220.849 239.74 222.818 239.091 223.653 238.766C223.763 238.35 223.862 237.995 223.922 237.752Z" fill="#C97C2D"/>
<path d="M236.287 214.31C233.384 214.31 230.411 214.279 226.484 214.219C226.961 217.667 227.468 221.948 227.389 225.467C227.319 228.774 226.653 229.22 226.673 230.62C226.723 232.861 225.251 233.602 225.728 235.204C226.524 237.892 223.919 237.75 223.919 237.75C223.919 237.75 220.498 238.389 217.913 237.75L215.268 210.009C214.513 207.433 217.844 204.319 221.145 202.818C226.822 200.221 248.358 190.312 251.172 199.369C251.918 201.783 249.511 214.33 236.287 214.31Z" fill="#C5D7F9"/>
<path d="M239.927 237.75C239.619 238.937 238.485 243.014 238.893 244.475C239.301 245.935 240.434 247.011 240.116 248.502C239.788 250.084 230.66 249.08 230.382 249.019C230.104 248.958 235.224 246.057 235.284 243.897C235.344 241.736 234.667 237.75 234.667 237.75H239.927Z" fill="#D28E46"/>
<path d="M228.929 250.156H240.204C240.472 250.156 240.691 249.933 240.691 249.659C240.691 249.385 240.472 249.162 240.204 249.162H228.929C228.66 249.162 228.441 249.385 228.441 249.659C228.441 249.933 228.66 250.156 228.929 250.156Z" fill="#94BCD3"/>
<path d="M237.005 249.233C237.005 249.233 235.821 247.762 234.151 247.326C232.322 246.849 231.437 247.103 230.452 247.61C229.498 248.107 228.961 249.162 228.961 249.162L237.005 249.233Z" fill="#CFE0F9"/>
<path d="M237.04 249.202C237.04 249.202 236.94 245.753 239.177 245.297C239.177 245.297 241.325 247.254 240.142 249.202H237.04Z" fill="#CFE0F9"/>
<path d="M239.922 237.75H234.672C234.672 237.75 234.801 238.511 234.94 239.555C236.849 239.738 238.818 239.089 239.653 238.764C239.763 238.348 239.862 237.993 239.922 237.75Z" fill="#C97C2D"/>
<path d="M250.306 214.311C247.403 214.311 244.43 214.28 240.502 214.219C240.98 217.668 241.487 221.948 241.407 225.468C241.338 228.774 241.666 229.221 241.686 230.621C241.735 232.862 241.258 233.603 241.735 235.205C242.531 237.893 239.926 237.751 239.926 237.751C239.926 237.751 236.505 238.39 233.92 237.751L229.287 210.01C228.531 207.434 229.874 204.32 233.175 202.819C238.852 200.222 259.672 188.081 263.102 201.703C263.719 204.147 263.53 214.331 250.306 214.311Z" fill="#CFE0F9"/>
<path d="M242.107 166.163C242.465 168.466 244.195 169.703 237.851 185.658C235.445 191.713 230.563 188.823 230.921 185.719C231.279 182.615 235.276 170.454 236.648 167.624C238.129 164.551 241.808 164.236 242.107 166.163Z" fill="#D1E2FB"/>
<path d="M235.584 188.255C230.99 190.588 213.073 189.239 213.024 188.062C212.964 186.693 228.833 183.62 232.213 183.245C236.25 182.788 238.328 186.855 235.584 188.255Z" fill="#E38E32"/>
<path d="M216.196 187.302C216.077 186.886 212.885 186.937 211.841 187.231C210.797 187.525 209.355 188.762 209.157 189.036C208.958 189.31 208.48 190.74 208.48 190.74C208.48 190.74 208.888 191.268 209.485 190.456C210.081 189.645 211.573 188.783 211.941 189.026C212.756 189.584 210.877 190 210.658 190.324C210.429 190.659 210.529 190.872 210.529 190.872C210.529 190.872 212.468 190.477 212.776 190.456C213.074 190.436 214.098 190.01 214.695 189.513C215.281 189.026 216.365 187.921 216.196 187.302Z" fill="#E38E32"/>
<path d="M262.884 203.956C265.778 207.415 259.633 191.795 258.48 187.859C257.933 185.993 259.176 178.771 260.508 172.878C261.85 166.914 259.742 164.764 256.103 163.841C252.047 162.806 246.807 163.08 245.574 163.253C241.657 163.78 240.712 164.257 238.912 165.241C238.017 165.727 238.067 175.242 237.799 177.747C237.54 180.252 238.833 181.763 240.364 182.798C240.801 183.092 241.716 184.654 241.696 188.346C241.676 192.028 241.149 194.016 239.698 196.095C239.698 196.095 254.662 194.107 262.884 203.956Z" fill="#E7F0FD"/>
<path d="M255.023 163.67L245.766 174.837L241.68 163.863" stroke="white" stroke-width="0.596567" stroke-miterlimit="10"/>
<path d="M259.487 165.503C261.167 167.086 263.305 170.321 267.958 186.875C269.718 193.153 265.691 192.971 264.1 190.293C262.509 187.615 255.768 175.464 255.112 172.37C253.968 167.005 258.095 164.185 259.487 165.503Z" fill="#D1E2FB"/>
<path d="M267.166 192.008C262.403 194.453 242.915 191.836 242.856 190.619C242.786 189.189 259.48 187.901 262.99 187.495C267.166 187.008 269.999 190.548 267.166 192.008Z" fill="#E38E32"/>
<path d="M245.509 190.861C245.529 191.297 242.486 192.291 241.403 192.352C240.319 192.413 238.569 191.713 238.29 191.52C238.012 191.328 237.117 190.131 237.117 190.131C237.117 190.131 237.336 189.492 238.151 190.07C238.967 190.648 240.657 190.973 240.925 190.618C241.522 189.827 239.613 190.05 239.295 189.806C238.976 189.563 238.996 189.33 238.996 189.33C238.996 189.33 240.955 189.066 241.253 188.985C241.542 188.904 242.645 188.975 243.371 189.248C244.097 189.522 245.469 190.212 245.509 190.861Z" fill="#E38E32"/>
<path d="M251.048 155.24C252.639 154.915 254.777 151.923 254.041 149.357C253.305 146.791 249.736 143.768 246.087 144.965C242.438 146.162 240.191 147.957 240.628 151.639C240.976 154.56 249.945 164.105 256.119 163.75C258.605 163.608 261.11 158.273 257.859 156.285C254.608 154.297 251.048 155.24 251.048 155.24Z" fill="#E5B21A"/>
<path d="M259.32 156.285C256.039 153.212 251.137 155.149 251.137 155.149" stroke="#E5B21A" stroke-width="0.397711" stroke-miterlimit="10"/>
<path d="M250.544 154.926C250.544 154.926 250.027 160.982 253.149 163.345L246.478 171.266L243.574 163.639C243.574 163.639 246.835 163.02 245.483 154.916H250.544V154.926Z" fill="#D49046"/>
<path d="M250.513 156.102C250.503 156.214 250.493 156.275 250.493 156.275C250.493 157.391 248.266 161.661 245.184 162.016C245.74 160.788 246.098 158.648 245.482 154.926H250.553C250.543 154.926 250.503 155.382 250.513 156.102Z" fill="#CB7C2D"/>
<path d="M250.507 155.422C250.497 155.483 250.497 155.524 250.497 155.524C250.586 156.355 247.335 159.672 244.77 159.976C243.616 160.108 241.906 156.721 241.618 155.574C241.21 153.901 241.18 152.247 241.16 151.639C241.131 150.665 241.19 148.221 243.944 148.221C246.718 148.221 248.269 154.448 250.318 153.191C250.357 153.099 250.705 152.369 251.59 152.947C252.256 153.383 251.262 154.966 250.507 155.422Z" fill="#D49046"/>
<path d="M243.841 153.211L243.562 155.412L244.109 156.071" stroke="#40465C" stroke-width="0.298283" stroke-miterlimit="10" stroke-linecap="round" stroke-linejoin="round"/>
<path d="M241.714 155.556C242.647 155.556 243.404 154.784 243.404 153.832C243.404 152.879 242.647 152.107 241.714 152.107C240.78 152.107 240.023 152.879 240.023 153.832C240.023 154.784 240.78 155.556 241.714 155.556Z" stroke="#6464C8" stroke-width="0.497139" stroke-miterlimit="10"/>
<path d="M246.225 155.554C247.159 155.554 247.916 154.782 247.916 153.83C247.916 152.877 247.159 152.105 246.225 152.105C245.292 152.105 244.535 152.877 244.535 153.83C244.535 154.782 245.292 155.554 246.225 155.554Z" stroke="#6464C8" stroke-width="0.497139" stroke-miterlimit="10"/>
<path d="M243.41 153.83H244.532" stroke="#6464C8" stroke-width="0.497139" stroke-miterlimit="10"/>
<path d="M247.902 153.74C247.902 153.74 250.617 152.036 251.78 152.949" stroke="#6464C8" stroke-width="0.497139" stroke-miterlimit="10"/>
<path d="M242.399 154.235C242.624 154.235 242.806 154.049 242.806 153.82C242.806 153.59 242.624 153.404 242.399 153.404C242.174 153.404 241.992 153.59 241.992 153.82C241.992 154.049 242.174 154.235 242.399 154.235Z" fill="#40465C"/>
<path d="M245.598 154.235C245.823 154.235 246.005 154.049 246.005 153.82C246.005 153.59 245.823 153.404 245.598 153.404C245.374 153.404 245.191 153.59 245.191 153.82C245.191 154.049 245.374 154.235 245.598 154.235Z" fill="#40465C"/>
<path d="M244.148 157.309C244.148 157.309 245.053 157.471 245.669 156.6" stroke="#40465C" stroke-width="0.298283" stroke-miterlimit="10" stroke-linecap="round" stroke-linejoin="round"/>
<path d="M234.725 182.107H205.225C204.241 182.107 203.356 181.468 203.028 180.525L197.002 163.16C196.624 162.085 197.41 160.959 198.533 160.959H228.272C229.117 160.959 229.863 161.497 230.151 162.308L236.256 179.906C236.624 180.981 235.849 182.107 234.725 182.107Z" fill="white"/>
<path d="M233.811 183.039H204.311C203.326 183.039 202.442 182.4 202.113 181.456L196.088 164.092C195.71 163.017 196.496 161.891 197.619 161.891H227.358C228.203 161.891 228.949 162.428 229.237 163.24L235.342 180.838C235.71 181.913 234.925 183.039 233.811 183.039Z" fill="#E7F0FD"/>
<path d="M234.725 182.015H205.225C204.241 182.015 203.356 181.376 203.028 180.433L197.002 163.068C196.624 161.993 197.41 160.867 198.533 160.867H228.272C229.117 160.867 229.863 161.405 230.151 162.216L236.256 179.814C236.624 180.889 235.849 182.015 234.725 182.015Z" stroke="#96BED5" stroke-width="0.497139" stroke-miterlimit="10"/>
<path d="M219.344 186.813H210.574L213.328 174.926H222.098L219.344 186.813Z" fill="white" stroke="#96BED5" stroke-width="0.497139" stroke-miterlimit="10"/>
<path d="M195.937 154.631C196.862 154.631 197.498 153.708 197.498 152.744V147.338C197.498 146.293 196.663 145.441 195.639 145.441H183.578C182.554 145.441 181.719 146.293 181.719 147.338V152.744C181.719 153.789 182.554 154.641 183.578 154.641H190.647C192.377 154.641 193.312 157.481 193.312 157.481C193.312 157.481 193.889 154.631 195.937 154.631Z" fill="white" stroke="#E5B21A" stroke-width="0.497139" stroke-miterlimit="10"/>
<path d="M186.157 150.706C186.541 150.706 186.852 150.389 186.852 149.997C186.852 149.605 186.541 149.287 186.157 149.287C185.772 149.287 185.461 149.605 185.461 149.997C185.461 150.389 185.772 150.706 186.157 150.706Z" fill="white" stroke="#E5B21A" stroke-width="0.497139" stroke-miterlimit="10"/>
<path d="M189.594 150.747C189.978 150.747 190.29 150.43 190.29 150.038C190.29 149.646 189.978 149.328 189.594 149.328C189.21 149.328 188.898 149.646 188.898 150.038C188.898 150.43 189.21 150.747 189.594 150.747Z" fill="white" stroke="#E5B21A" stroke-width="0.497139" stroke-miterlimit="10"/>
<path d="M193.043 150.747C193.427 150.747 193.739 150.43 193.739 150.038C193.739 149.646 193.427 149.328 193.043 149.328C192.659 149.328 192.348 149.646 192.348 150.038C192.348 150.43 192.659 150.747 193.043 150.747Z" fill="white" stroke="#E5B21A" stroke-width="0.497139" stroke-miterlimit="10"/>
<path d="M276.441 250.087H72.0772C69.3827 250.087 67.1953 247.856 67.1953 245.107V172.138C67.1953 169.39 69.3827 167.158 72.0772 167.158H168.84C172.36 167.158 175.8 168.284 178.654 170.384L196.71 183.6C199.574 185.7 203.004 186.825 206.523 186.825H276.431C279.126 186.825 281.313 189.057 281.313 191.806V245.117C281.323 247.856 279.136 250.087 276.441 250.087Z" fill="white" stroke="#6464C8" stroke-width="0.497139" stroke-miterlimit="10"/>
<path d="M166.524 251.242C166.524 251.242 168.244 254.884 167.061 256.202H151.898C151.898 256.202 151.988 253.646 155.637 253.25C158.918 252.885 160.907 251.242 160.907 251.242H166.524Z" fill="#41465A"/>
<path d="M151.778 257.124H167.239C167.378 257.124 167.498 257.002 167.498 256.86V256.475C167.498 256.333 167.378 256.211 167.239 256.211H151.778C151.639 256.211 151.52 256.333 151.52 256.475V256.86C151.52 257.002 151.639 257.124 151.778 257.124Z" fill="#6464C8"/>
<path d="M159.059 253.483L158.562 252.287C158.453 252.034 158.155 251.922 157.916 252.054C157.707 252.165 157.608 252.419 157.687 252.642L157.727 252.804" stroke="#6464C8" stroke-width="0.497139" stroke-miterlimit="10"/>
<path d="M156.901 254.161L156.573 252.945C156.494 252.681 156.215 252.529 155.967 252.62C155.738 252.701 155.599 252.924 155.629 253.239" stroke="#6464C8" stroke-width="0.497139" stroke-miterlimit="10"/>
<path d="M144.313 251.242C144.313 251.242 146.033 254.884 144.85 256.202H129.688C129.688 256.202 129.777 253.646 133.426 253.25C136.707 252.885 138.696 251.242 138.696 251.242H144.313Z" fill="#41465A"/>
<path d="M129.576 257.124H145.037C145.176 257.124 145.295 257.002 145.295 256.86V256.475C145.295 256.333 145.176 256.211 145.037 256.211H129.576C129.436 256.211 129.317 256.333 129.317 256.475V256.86C129.307 257.002 129.426 257.124 129.576 257.124Z" fill="#6464C8"/>
<path d="M136.856 253.483L136.359 252.287C136.249 252.034 135.951 251.922 135.713 252.054C135.504 252.165 135.405 252.419 135.484 252.642L135.524 252.804" stroke="#6464C8" stroke-width="0.497139" stroke-miterlimit="10"/>
<path d="M134.698 254.161L134.37 252.945C134.29 252.681 134.012 252.529 133.764 252.62C133.535 252.701 133.396 252.924 133.426 253.239" stroke="#6464C8" stroke-width="0.497139" stroke-miterlimit="10"/>
<path d="M162.798 171.629C162.937 176.153 163.494 211.146 167.451 220.985C171.458 230.945 167.362 251.211 167.362 251.211C161.863 252.093 159.636 251.109 159.636 251.109C159.636 251.109 152.11 208.184 147.954 185.393L146.8 184.784C146.8 184.784 146.253 212.809 147.755 223.328C149.256 233.876 145.985 251.251 145.985 251.251C141.242 252.002 136.708 251.251 136.708 251.251C136.708 251.251 135.694 231.483 134.113 215.436C133.248 206.612 132.144 173.982 132.214 171.832L162.798 171.629Z" fill="#96BED5"/>
<path d="M152.769 127.871C154.002 127.871 165.725 130.254 165.715 135.458C165.705 141.158 159.769 159.933 160.256 163.381C160.743 166.82 163.925 171.374 162.463 172.033C158.516 173.798 145.352 175.198 132.188 171.77C132.188 171.77 133.56 168.605 131.193 154.871C129.901 147.376 129.603 133.034 130.706 131.543C131.81 130.041 138.442 128.5 140.868 128.043C143.284 127.577 152.769 127.871 152.769 127.871Z" fill="#96BED5"/>
<path d="M152.381 127.832C152.092 129.556 148.851 168.698 153.027 188.173C153.027 188.173 159.808 189.116 166.748 186.458C166.748 186.458 162.811 161.983 162.562 157.906C162.313 153.828 165.386 132.833 163.526 131.676C157.372 127.832 152.381 127.832 152.381 127.832Z" fill="#E7F0FD"/>
<path d="M140.411 128.094C140.411 128.094 141.335 165.268 141.544 187.968C141.544 187.968 134.853 189.672 129.086 187.014C129.086 187.014 131.353 159.537 131.383 156.038C131.413 152.538 129.633 131.826 131.582 130.771C135.787 128.51 140.411 128.094 140.411 128.094Z" fill="#E7F0FD"/>
<path d="M125.602 165.614C133.149 161.516 137.901 128.541 132.791 130.296C131.916 130.6 129.331 131.676 127.571 133.187C123.464 136.717 119.378 150.988 118.195 155.369C111.443 155.724 100.079 158.402 98.3389 158.879C96.5194 159.376 96.8276 166.456 98.7565 166.496C99.6215 166.506 121.187 167.561 125.602 165.614Z" fill="#E7F0FD"/>
<path d="M130.885 158.067C131.293 155.491 130.487 151.261 130.328 145.125" stroke="white" stroke-width="0.596567" stroke-miterlimit="10"/>
<path d="M98.7286 166.173C99.5798 166.173 100.27 164.651 100.27 162.775C100.27 160.898 99.5798 159.377 98.7286 159.377C97.8775 159.377 97.1875 160.898 97.1875 162.775C97.1875 164.651 97.8775 166.173 98.7286 166.173Z" fill="#D1E2FB"/>
<path d="M98.1914 164.61C97.3959 164.884 93.9557 165.452 92.9117 165.218C91.8677 164.985 89.6803 162.956 89.5312 162.683C89.3721 162.409 88.3281 160.897 88.3281 160.897C88.3281 160.897 89.7002 160.258 90.3465 161.354C91.122 162.662 92.872 162.652 93.737 162.399C94.0949 162.297 94.8506 161.587 94.6219 161.029C94.4032 160.471 92.8421 160.826 92.4444 160.644C91.828 160.37 91.6987 159.548 91.6987 159.548C91.6987 159.548 93.8961 159.092 94.3137 159.001C94.7313 158.909 97.5848 159.082 98.9569 160.502C99.7921 161.384 99.643 164.113 98.1914 164.61Z" fill="#D49046"/>
<path d="M156.909 174.307L143.109 178.253C142.433 178.445 141.727 178.04 141.538 177.35L135.692 156.09C135.503 155.401 135.9 154.68 136.576 154.488L150.377 150.542C151.053 150.349 151.759 150.755 151.948 151.445L157.794 172.704C157.983 173.394 157.586 174.114 156.909 174.307Z" fill="#6464C8"/>
<path d="M171.526 162.865C177.214 157.479 170.691 132.264 162.121 131.179C161.246 131.067 159.396 131.747 159.267 137.376C159.148 142.711 161.663 153.554 162.369 156.506C156.98 159.234 148.529 166.709 146.978 167.582C145.417 168.464 147.763 173.221 149.424 172.471C150.309 172.065 166.744 166.598 171.526 162.865Z" fill="#E7F0FD"/>
<path d="M146.508 168.454C146.508 168.454 153.398 161.445 162.347 156.496C162.347 156.496 160.527 149.659 159.921 144.436" stroke="white" stroke-width="0.596567" stroke-miterlimit="10"/>
<path d="M147.621 172.51C146.846 172.825 143.276 173.859 142.232 173.717C141.188 173.575 139.329 172.287 139.16 172.054C138.991 171.821 138.395 169.802 138.395 169.802C138.395 169.802 139.13 169.224 139.826 170.178C140.652 171.314 142.193 171.08 143.038 170.796C143.386 170.675 144.102 170.178 143.863 169.691C143.614 169.194 142.193 169.63 141.785 169.498C141.159 169.295 140.99 168.545 140.99 168.545C140.99 168.545 143.048 167.966 143.455 167.855C143.863 167.743 146.418 167.845 148.049 168.778C149.67 169.721 149.431 171.79 147.621 172.51Z" fill="#D49046"/>
<path d="M138.962 145.235H131.952C131.734 145.235 131.555 145.052 131.555 144.829V140.904C131.555 140.681 131.734 140.498 131.952 140.498H138.962C139.181 140.498 139.36 140.681 139.36 140.904V144.829C139.36 145.052 139.181 145.235 138.962 145.235Z" fill="white"/>
<path d="M135.927 138.785H134.992V140.986H135.927V138.785Z" fill="#96C3D2"/>
<path d="M134.185 141.424H132.496V143.492H134.185V141.424Z" fill="#D1E2FB"/>
<path d="M138.356 141.424H134.727V141.901H138.356V141.424Z" fill="#D1E2FB"/>
<path d="M138.356 142.213H134.727V142.69H138.356V142.213Z" fill="#D1E2FB"/>
<path d="M138.356 143.016H134.727V143.492H138.356V143.016Z" fill="#D1E2FB"/>
<path d="M138.362 143.826H132.496V144.303H138.362V143.826Z" fill="#D1E2FB"/>
<path d="M150.309 119.656C150.309 119.656 149.464 123.724 152.397 127.821C152.397 127.821 147.326 130.469 140.426 128.085C140.426 128.085 144.492 126.655 142.752 119.819L150.309 119.656Z" fill="#D49046"/>
<path d="M150.139 119.666C150.139 119.94 150.139 120.163 150.139 120.325C150.139 120.325 149.841 123.409 148.28 124.92C147.067 126.097 143.328 127.304 142.105 126.705C142.901 125.021 143.428 122.547 142.742 119.828L150.139 119.666Z" fill="#CB7C2D"/>
<path d="M150.229 120.234C150.229 120.234 148.618 123.013 147.903 123.287C146.113 123.977 143.239 124.575 142.285 124.078C141.629 123.733 141.599 123.713 140.823 120.315C140.276 117.891 140.813 112.911 141.181 112.698C141.539 112.485 149.175 111.958 149.563 112.769C149.951 113.57 150.259 118.956 150.229 120.234Z" fill="#D49046"/>
<path d="M150.177 118.378C150.177 118.378 148.755 118.479 149.153 115.994C149.511 113.793 148.934 113.337 146.031 114.169C143.675 114.848 140.215 114.716 138.932 112.739C138.206 111.613 138.614 111.329 139.787 110.588C141.259 109.665 144.162 107.961 147.791 108.742C150.694 109.371 150.843 111.856 150.843 111.856C150.843 111.856 152.583 111.461 152.971 113.317C153.468 115.66 150.227 120.265 150.227 120.265L150.177 118.378Z" fill="#41465A"/>
<path d="M146.889 113.744C145.209 114.809 140.874 115.519 139.512 114.13" stroke="#41465A" stroke-width="0.298283" stroke-miterlimit="10"/>
<path d="M150.77 111.957C150.77 111.957 151.694 111.136 152.638 111.744" stroke="#41465A" stroke-width="0.298283" stroke-miterlimit="10"/>
<path d="M149.136 116.836C148.837 118.479 147.873 121.968 146.183 120.69C144.701 119.575 142.553 119.017 140.804 120.214C140.804 120.214 141.062 122.232 140.804 123.845C140.475 125.894 147.913 124.991 149.096 123.023C150.279 121.055 150.02 119.453 150.189 118.378C150.358 117.303 149.136 116.836 149.136 116.836Z" fill="#41465A"/>
<path d="M150.102 118.378C150.102 118.378 150.867 117.475 151.573 118.094C152.1 118.56 150.241 120.305 150.241 120.305L150.102 118.378Z" fill="#D49046"/>
<path d="M141.469 117.739C141.754 117.739 141.986 117.503 141.986 117.212C141.986 116.921 141.754 116.686 141.469 116.686C141.184 116.686 140.953 116.921 140.953 117.212C140.953 117.503 141.184 117.739 141.469 117.739Z" fill="#40465C"/>
<path d="M145.755 117.739C146.04 117.739 146.271 117.503 146.271 117.212C146.271 116.921 146.04 116.686 145.755 116.686C145.469 116.686 145.238 116.921 145.238 117.212C145.238 117.503 145.469 117.739 145.755 117.739Z" fill="#40465C"/>
<path d="M143.45 116.744L142.734 119.26H143.927" stroke="#40465C" stroke-width="0.478337" stroke-miterlimit="10" stroke-linecap="round" stroke-linejoin="round"/>
<path d="M143.457 121.512C143.457 121.512 144.54 121.776 145.027 120.701" stroke="white" stroke-width="0.3023" stroke-miterlimit="10" stroke-linecap="round" stroke-linejoin="round"/>
<path d="M60.1409 250.945C59.0472 251.006 57.6651 253.522 58.7688 257.122H59.3355C59.3355 257.122 59.4548 254.769 60.5187 254.739C61.7417 254.708 62.3382 257.122 63.4518 257.122C64.7245 257.122 68.9402 257.122 68.9402 257.122C68.9402 257.122 68.8607 255.905 67.419 255.713C64.297 255.297 63.9191 251.615 63.9191 251.615L60.1409 250.945Z" fill="#E5B21A"/>
<path d="M71.244 233.805C71.244 233.805 63.3096 246.037 63.9857 252.062C64.294 254.801 60.5754 252.772 59.7302 250.196C57.5726 243.623 57.8212 235.864 57.8212 235.864C57.8212 235.864 65.2882 235.296 71.244 233.805Z" fill="#D49046"/>
<path d="M71.2363 233.805C71.2363 233.805 70.9082 234.312 70.3912 235.174C67.4083 235.996 62.9241 237.02 57.8135 237.497C57.7936 236.472 57.8135 235.864 57.8135 235.864C57.8135 235.864 65.2806 235.296 71.2363 233.805Z" fill="#CB7C2D"/>
<path d="M37.0716 249.628C35.9878 249.476 34.1584 251.677 34.566 255.43L35.1228 255.542C35.1228 255.542 35.6796 253.25 36.7236 253.432C37.9267 253.635 38.0659 256.12 39.1596 256.343C40.4124 256.587 44.5486 256.992 44.5486 256.992C44.5486 256.992 44.6977 255.775 43.3156 255.309C40.3328 254.294 40.641 251.028 40.641 251.028L37.0716 249.628Z" fill="#E5B21A"/>
<path d="M50.1265 235.985C50.1265 235.985 41.0985 245.418 40.6312 251.463C40.4224 254.201 37.1512 251.503 36.8032 248.805C35.9083 241.939 37.6086 234.088 37.6086 234.088C37.6086 234.088 43.9123 236.005 50.1265 235.985Z" fill="#D49046"/>
<path d="M37.6055 234.088C37.6055 234.088 43.9191 236.005 50.1234 235.985C50.1234 235.985 49.5368 236.603 48.642 237.618C44.8637 237.344 41.0158 236.624 37.3867 235.204C37.516 234.494 37.6055 234.088 37.6055 234.088Z" fill="#CB7C2D"/>
<path d="M80.6289 196.743C80.6289 194.441 82.4285 192.574 84.6458 192.574C86.863 192.574 88.6627 194.441 88.6627 196.743V257.124" stroke="#E5B21A" stroke-width="0.795422" stroke-miterlimit="10"/>
<path d="M89.5066 257.125H87.7865C87.4385 257.125 87.1701 256.871 87.2596 256.618L87.6672 255.33C87.7468 255.086 88.0251 254.924 88.3533 254.924H88.9498C89.2779 254.924 89.5563 255.096 89.6359 255.33L90.0435 256.618C90.1131 256.871 89.8546 257.125 89.5066 257.125Z" fill="white" stroke="#E5B21A" stroke-width="0.795422" stroke-miterlimit="10"/>
<path d="M82.3627 187.128C82.4323 187.706 82.7902 188.254 83.5956 188.508C84.6893 188.863 88.0102 190.049 88.6266 192.068C89.0243 193.366 89.4419 194.36 89.4419 194.36C89.4419 194.36 88.5073 194.736 87.8113 193.955C86.6082 192.585 84.3512 192.504 83.5757 192.565C82.7902 192.626 80.6426 192.119 79.6085 189.228C78.5745 186.337 82.3627 187.128 82.3627 187.128Z" fill="#D49046"/>
<path d="M61.2918 148.321C66.8896 148.554 74.4461 152.125 77.3693 166.994C80.2925 181.864 84.4386 187.919 84.4386 187.919L79.9345 191.104C79.9345 191.104 71.7715 188.041 69.2162 184.136C69.2162 184.136 71.2943 194.37 73.7899 204.219C77.8167 220.133 74.2075 233.045 74.2075 233.045C74.2075 233.045 52.9598 239.567 35.9079 233.542C35.9079 233.542 31.2249 206.116 31.2149 198.082C31.1851 170.93 40.2231 147.439 61.2918 148.321Z" fill="#6464C8"/>
<path d="M62.3984 170.15C62.3984 170.15 62.4283 177.747 69.945 185.456" stroke="white" stroke-width="0.596567" stroke-miterlimit="10"/>
<g opacity="0.36">
<path opacity="0.36" d="M77.3165 188.952C77.8817 188.952 78.34 188.484 78.34 187.907C78.34 187.331 77.8817 186.863 77.3165 186.863C76.7512 186.863 76.293 187.331 76.293 187.907C76.293 188.484 76.7512 188.952 77.3165 188.952Z" fill="white"/>
<path opacity="0.36" d="M80.7149 185.614C81.2802 185.614 81.7384 185.146 81.7384 184.57C81.7384 183.993 81.2802 183.525 80.7149 183.525C80.1497 183.525 79.6914 183.993 79.6914 184.57C79.6914 185.146 80.1497 185.614 80.7149 185.614Z" fill="white"/>
<path opacity="0.36" d="M49.961 157.428C50.5263 157.428 50.9845 156.961 50.9845 156.384C50.9845 155.807 50.5263 155.34 49.961 155.34C49.3957 155.34 48.9375 155.807 48.9375 156.384C48.9375 156.961 49.3957 157.428 49.961 157.428Z" fill="white"/>
<path opacity="0.36" d="M57.2696 154.912C57.8349 154.912 58.2931 154.445 58.2931 153.868C58.2931 153.292 57.8349 152.824 57.2696 152.824C56.7043 152.824 56.2461 153.292 56.2461 153.868C56.2461 154.445 56.7043 154.912 57.2696 154.912Z" fill="white"/>
<path opacity="0.36" d="M56.6055 162.934C57.1708 162.934 57.629 162.466 57.629 161.89C57.629 161.313 57.1708 160.846 56.6055 160.846C56.0403 160.846 55.582 161.313 55.582 161.89C55.582 162.466 56.0403 162.934 56.6055 162.934Z" fill="white"/>
<path opacity="0.36" d="M54.1681 158.797C54.7333 158.797 55.1916 158.33 55.1916 157.753C55.1916 157.176 54.7333 156.709 54.1681 156.709C53.6028 156.709 53.1445 157.176 53.1445 157.753C53.1445 158.33 53.6028 158.797 54.1681 158.797Z" fill="white"/>
<path opacity="0.36" d="M53.8946 151.879C54.4598 151.879 54.9181 151.412 54.9181 150.835C54.9181 150.258 54.4598 149.791 53.8946 149.791C53.3293 149.791 52.8711 150.258 52.8711 150.835C52.8711 151.412 53.3293 151.879 53.8946 151.879Z" fill="white"/>
<path opacity="0.36" d="M49.2579 152.144C49.2579 152.722 48.8008 153.189 48.2344 153.189C47.6978 153.189 47.2606 152.773 47.2109 152.236C47.7177 151.881 48.2344 151.546 48.771 151.242C49.0691 151.435 49.2579 151.769 49.2579 152.144Z" fill="white"/>
<path opacity="0.36" d="M60.7384 150.641C61.3036 150.641 61.7619 150.173 61.7619 149.597C61.7619 149.02 61.3036 148.553 60.7384 148.553C60.1731 148.553 59.7148 149.02 59.7148 149.597C59.7148 150.173 60.1731 150.641 60.7384 150.641Z" fill="white"/>
<path opacity="0.36" d="M61.3985 158.483C61.9638 158.483 62.422 158.015 62.422 157.439C62.422 156.862 61.9638 156.395 61.3985 156.395C60.8332 156.395 60.375 156.862 60.375 157.439C60.375 158.015 60.8332 158.483 61.3985 158.483Z" fill="white"/>
<path opacity="0.36" d="M64.3829 154.233C64.9482 154.233 65.4064 153.765 65.4064 153.189C65.4064 152.612 64.9482 152.145 64.3829 152.145C63.8176 152.145 63.3594 152.612 63.3594 153.189C63.3594 153.765 63.8176 154.233 64.3829 154.233Z" fill="white"/>
<path opacity="0.36" d="M69.061 151.099C68.8722 151.343 68.584 151.495 68.2561 151.495C67.6897 151.495 67.2227 151.029 67.2227 150.451C67.2227 150.288 67.2624 150.126 67.332 149.984C67.9183 150.299 68.4946 150.664 69.061 151.099Z" fill="white"/>
<path opacity="0.36" d="M70.2462 156.696C70.8114 156.696 71.2697 156.228 71.2697 155.652C71.2697 155.075 70.8114 154.607 70.2462 154.607C69.6809 154.607 69.2227 155.075 69.2227 155.652C69.2227 156.228 69.6809 156.696 70.2462 156.696Z" fill="white"/>
<path opacity="0.36" d="M66.7735 159.852C67.3388 159.852 67.797 159.384 67.797 158.808C67.797 158.231 67.3388 157.764 66.7735 157.764C66.2082 157.764 65.75 158.231 65.75 158.808C65.75 159.384 66.2082 159.852 66.7735 159.852Z" fill="white"/>
<path opacity="0.36" d="M61.3985 165.268C61.9638 165.268 62.422 164.8 62.422 164.224C62.422 163.647 61.9638 163.18 61.3985 163.18C60.8332 163.18 60.375 163.647 60.375 164.224C60.375 164.8 60.8332 165.268 61.3985 165.268Z" fill="white"/>
<path opacity="0.36" d="M56.6055 169.953C57.1708 169.953 57.629 169.486 57.629 168.909C57.629 168.333 57.1708 167.865 56.6055 167.865C56.0403 167.865 55.582 168.333 55.582 168.909C55.582 169.486 56.0403 169.953 56.6055 169.953Z" fill="white"/>
<path opacity="0.36" d="M50.5977 164.223C51.163 164.223 51.6212 163.756 51.6212 163.179C51.6212 162.602 51.163 162.135 50.5977 162.135C50.0325 162.135 49.5742 162.602 49.5742 163.179C49.5742 163.756 50.0325 164.223 50.5977 164.223Z" fill="white"/>
<path opacity="0.36" d="M45.168 158.797C45.7333 158.797 46.1916 158.33 46.1916 157.753C46.1916 157.176 45.7333 156.709 45.168 156.709C44.6028 156.709 44.1445 157.176 44.1445 157.753C44.1445 158.33 44.6028 158.797 45.168 158.797Z" fill="white"/>
<path opacity="0.36" d="M44.5626 164.871C45.1278 164.871 45.5861 164.404 45.5861 163.827C45.5861 163.251 45.1278 162.783 44.5626 162.783C43.9973 162.783 43.5391 163.251 43.5391 163.827C43.5391 164.404 43.9973 164.871 44.5626 164.871Z" fill="white"/>
<path opacity="0.36" d="M48.2344 170.207C48.7997 170.207 49.2579 169.74 49.2579 169.163C49.2579 168.587 48.7997 168.119 48.2344 168.119C47.6692 168.119 47.2109 168.587 47.2109 169.163C47.2109 169.74 47.6692 170.207 48.2344 170.207Z" fill="white"/>
<path opacity="0.36" d="M66.4337 166.323C66.9989 166.323 67.4572 165.855 67.4572 165.278C67.4572 164.702 66.9989 164.234 66.4337 164.234C65.8684 164.234 65.4102 164.702 65.4102 165.278C65.4102 165.855 65.8684 166.323 66.4337 166.323Z" fill="white"/>
<path opacity="0.36" d="M71.2696 161.951C71.8349 161.951 72.2931 161.484 72.2931 160.907C72.2931 160.331 71.8349 159.863 71.2696 159.863C70.7043 159.863 70.2461 160.331 70.2461 160.907C70.2461 161.484 70.7043 161.951 71.2696 161.951Z" fill="white"/>
<path opacity="0.36" d="M76.8694 164.699C76.7005 164.811 76.5017 164.882 76.2931 164.882C75.7266 164.882 75.2695 164.415 75.2695 163.827C75.2695 163.25 75.7266 162.783 76.2931 162.783C76.3129 162.783 76.3328 162.783 76.3427 162.783C76.5315 163.391 76.7005 164.03 76.8694 164.699Z" fill="white"/>
<path opacity="0.36" d="M72.3048 169.162C72.87 169.162 73.3283 168.695 73.3283 168.118C73.3283 167.542 72.87 167.074 72.3048 167.074C71.7395 167.074 71.2812 167.542 71.2812 168.118C71.2812 168.695 71.7395 169.162 72.3048 169.162Z" fill="white"/>
<path opacity="0.36" d="M65.7501 172.307C66.3154 172.307 66.7736 171.84 66.7736 171.263C66.7736 170.686 66.3154 170.219 65.7501 170.219C65.1848 170.219 64.7266 170.686 64.7266 171.263C64.7266 171.84 65.1848 172.307 65.7501 172.307Z" fill="white"/>
<path opacity="0.36" d="M70.2462 174.914C70.8114 174.914 71.2697 174.447 71.2697 173.87C71.2697 173.294 70.8114 172.826 70.2462 172.826C69.6809 172.826 69.2227 173.294 69.2227 173.87C69.2227 174.447 69.6809 174.914 70.2462 174.914Z" fill="white"/>
<path opacity="0.36" d="M76.6016 172.307C77.1669 172.307 77.6252 171.84 77.6252 171.263C77.6252 170.686 77.1669 170.219 76.6016 170.219C76.0364 170.219 75.5781 170.686 75.5781 171.263C75.5781 171.84 76.0364 172.307 76.6016 172.307Z" fill="white"/>
<path opacity="0.36" d="M75.2579 177.176C75.8232 177.176 76.2814 176.709 76.2814 176.132C76.2814 175.555 75.8232 175.088 75.2579 175.088C74.6926 175.088 74.2344 175.555 74.2344 176.132C74.2344 176.709 74.6926 177.176 75.2579 177.176Z" fill="white"/>
<path opacity="0.36" d="M67.2032 178.221C67.7685 178.221 68.2267 177.754 68.2267 177.177C68.2267 176.6 67.7685 176.133 67.2032 176.133C66.6379 176.133 66.1797 176.6 66.1797 177.177C66.1797 177.754 66.6379 178.221 67.2032 178.221Z" fill="white"/>
<path opacity="0.36" d="M71.2696 181.649C71.8349 181.649 72.2931 181.181 72.2931 180.605C72.2931 180.028 71.8349 179.561 71.2696 179.561C70.7043 179.561 70.2461 180.028 70.2461 180.605C70.2461 181.181 70.7043 181.649 71.2696 181.649Z" fill="white"/>
<path opacity="0.36" d="M78.6524 180.604C79.2177 180.604 79.6759 180.136 79.6759 179.56C79.6759 178.983 79.2177 178.516 78.6524 178.516C78.0871 178.516 77.6289 178.983 77.6289 179.56C77.6289 180.136 78.0871 180.604 78.6524 180.604Z" fill="white"/>
<path opacity="0.36" d="M75.5743 183.942C76.1395 183.942 76.5978 183.474 76.5978 182.898C76.5978 182.321 76.1395 181.854 75.5743 181.854C75.009 181.854 74.5508 182.321 74.5508 182.898C74.5508 183.474 75.009 183.942 75.5743 183.942Z" fill="white"/>
<path opacity="0.36" d="M70.2462 185.188C70.8114 185.188 71.2697 184.72 71.2697 184.144C71.2697 183.567 70.8114 183.1 70.2462 183.1C69.6809 183.1 69.2227 183.567 69.2227 184.144C69.2227 184.72 69.6809 185.188 70.2462 185.188Z" fill="white"/>
<path opacity="0.36" d="M52.6485 174.407C53.2138 174.407 53.672 173.939 53.672 173.362C53.672 172.786 53.2138 172.318 52.6485 172.318C52.0832 172.318 51.625 172.786 51.625 173.362C51.625 173.939 52.0832 174.407 52.6485 174.407Z" fill="white"/>
<path opacity="0.36" d="M43.5391 171.262C44.1044 171.262 44.5626 170.795 44.5626 170.218C44.5626 169.641 44.1044 169.174 43.5391 169.174C42.9739 169.174 42.5156 169.641 42.5156 170.218C42.5156 170.795 42.9739 171.262 43.5391 171.262Z" fill="white"/>
<path opacity="0.36" d="M38.129 167.854C38.6943 167.854 39.1525 167.386 39.1525 166.81C39.1525 166.233 38.6943 165.766 38.129 165.766C37.5637 165.766 37.1055 166.233 37.1055 166.81C37.1055 167.386 37.5637 167.854 38.129 167.854Z" fill="white"/>
<path opacity="0.36" d="M40.7469 160.471C40.7469 161.049 40.2898 161.515 39.7234 161.515C39.4948 161.515 39.2861 161.444 39.1172 161.313C39.4749 160.704 39.8426 160.117 40.2202 159.549C40.5283 159.731 40.7469 160.076 40.7469 160.471Z" fill="white"/>
<path opacity="0.36" d="M59.7852 176.506C60.3505 176.506 60.8087 176.039 60.8087 175.462C60.8087 174.885 60.3505 174.418 59.7852 174.418C59.22 174.418 58.7617 174.885 58.7617 175.462C58.7617 176.039 59.22 176.506 59.7852 176.506Z" fill="white"/>
<path opacity="0.36" d="M55.211 180.887C55.7763 180.887 56.2345 180.42 56.2345 179.843C56.2345 179.266 55.7763 178.799 55.211 178.799C54.6458 178.799 54.1875 179.266 54.1875 179.843C54.1875 180.42 54.6458 180.887 55.211 180.887Z" fill="white"/>
<path opacity="0.36" d="M47.6251 178.506C48.1903 178.506 48.6486 178.039 48.6486 177.462C48.6486 176.885 48.1903 176.418 47.6251 176.418C47.0598 176.418 46.6016 176.885 46.6016 177.462C46.6016 178.039 47.0598 178.506 47.6251 178.506Z" fill="white"/>
<path opacity="0.36" d="M39.1563 175.452C39.7216 175.452 40.1798 174.984 40.1798 174.407C40.1798 173.831 39.7216 173.363 39.1563 173.363C38.591 173.363 38.1328 173.831 38.1328 174.407C38.1328 174.984 38.591 175.452 39.1563 175.452Z" fill="white"/>
<path opacity="0.36" d="M41.7657 181.934C42.331 181.934 42.7892 181.466 42.7892 180.89C42.7892 180.313 42.331 179.846 41.7657 179.846C41.2004 179.846 40.7422 180.313 40.7422 180.89C40.7422 181.466 41.2004 181.934 41.7657 181.934Z" fill="white"/>
<path opacity="0.36" d="M34.5001 179.832C35.0653 179.832 35.5236 179.365 35.5236 178.788C35.5236 178.212 35.0653 177.744 34.5001 177.744C33.9348 177.744 33.4766 178.212 33.4766 178.788C33.4766 179.365 33.9348 179.832 34.5001 179.832Z" fill="white"/>
<path opacity="0.36" d="M36.547 185.614C37.1122 185.614 37.5705 185.146 37.5705 184.57C37.5705 183.993 37.1122 183.525 36.547 183.525C35.9817 183.525 35.5234 183.993 35.5234 184.57C35.5234 185.146 35.9817 185.614 36.547 185.614Z" fill="white"/>
<path opacity="0.36" d="M47.6251 185.614C48.1903 185.614 48.6486 185.146 48.6486 184.57C48.6486 183.993 48.1903 183.525 47.6251 183.525C47.0598 183.525 46.6016 183.993 46.6016 184.57C46.6016 185.146 47.0598 185.614 47.6251 185.614Z" fill="white"/>
<path opacity="0.36" d="M41.7657 190.006C42.331 190.006 42.7892 189.539 42.7892 188.962C42.7892 188.385 42.331 187.918 41.7657 187.918C41.2004 187.918 40.7422 188.385 40.7422 188.962C40.7422 189.539 41.2004 190.006 41.7657 190.006Z" fill="white"/>
<path opacity="0.36" d="M53.6798 188.952C54.245 188.952 54.7033 188.484 54.7033 187.907C54.7033 187.331 54.245 186.863 53.6798 186.863C53.1145 186.863 52.6562 187.331 52.6562 187.907C52.6562 188.484 53.1145 188.952 53.6798 188.952Z" fill="white"/>
<path opacity="0.36" d="M61.8438 184.987C62.4091 184.987 62.8673 184.519 62.8673 183.943C62.8673 183.366 62.4091 182.898 61.8438 182.898C61.2786 182.898 60.8203 183.366 60.8203 183.943C60.8203 184.519 61.2786 184.987 61.8438 184.987Z" fill="white"/>
<path opacity="0.36" d="M67.2032 187.907C67.7685 187.907 68.2267 187.439 68.2267 186.862C68.2267 186.286 67.7685 185.818 67.2032 185.818C66.6379 185.818 66.1797 186.286 66.1797 186.862C66.1797 187.439 66.6379 187.907 67.2032 187.907Z" fill="white"/>
<path opacity="0.36" d="M59.6329 191.051C60.1982 191.051 60.6564 190.584 60.6564 190.007C60.6564 189.43 60.1982 188.963 59.6329 188.963C59.0676 188.963 58.6094 189.43 58.6094 190.007C58.6094 190.584 59.0676 191.051 59.6329 191.051Z" fill="white"/>
<path opacity="0.36" d="M48.9298 193.293C49.495 193.293 49.9533 192.826 49.9533 192.249C49.9533 191.673 49.495 191.205 48.9298 191.205C48.3645 191.205 47.9062 191.673 47.9062 192.249C47.9062 192.826 48.3645 193.293 48.9298 193.293Z" fill="white"/>
<path opacity="0.36" d="M54.7032 195.91C55.2685 195.91 55.7267 195.443 55.7267 194.866C55.7267 194.29 55.2685 193.822 54.7032 193.822C54.1379 193.822 53.6797 194.29 53.6797 194.866C53.6797 195.443 54.1379 195.91 54.7032 195.91Z" fill="white"/>
<path opacity="0.36" d="M44.1446 195.463C44.7099 195.463 45.1681 194.996 45.1681 194.419C45.1681 193.842 44.7099 193.375 44.1446 193.375C43.5793 193.375 43.1211 193.842 43.1211 194.419C43.1211 194.996 43.5793 195.463 44.1446 195.463Z" fill="white"/>
<path opacity="0.36" d="M37.0938 192.493C37.6591 192.493 38.1173 192.025 38.1173 191.448C38.1173 190.872 37.6591 190.404 37.0938 190.404C36.5286 190.404 36.0703 190.872 36.0703 191.448C36.0703 192.025 36.5286 192.493 37.0938 192.493Z" fill="white"/>
<path opacity="0.36" d="M33.0189 189.378C33.0189 189.956 32.5618 190.432 31.9954 190.432C31.8066 190.432 31.6277 190.381 31.4688 190.29C31.5085 189.662 31.5582 189.033 31.6079 188.415C31.7271 188.364 31.8563 188.344 31.9855 188.344C32.5519 188.334 33.0189 188.8 33.0189 189.378Z" fill="white"/>
<path opacity="0.36" d="M34.0157 198.01C34.581 198.01 35.0392 197.543 35.0392 196.966C35.0392 196.389 34.581 195.922 34.0157 195.922C33.4504 195.922 32.9922 196.389 32.9922 196.966C32.9922 197.543 33.4504 198.01 34.0157 198.01Z" fill="white"/>
<path opacity="0.36" d="M40.3673 200.729C40.9325 200.729 41.3908 200.261 41.3908 199.685C41.3908 199.108 40.9325 198.641 40.3673 198.641C39.802 198.641 39.3438 199.108 39.3438 199.685C39.3438 200.261 39.802 200.729 40.3673 200.729Z" fill="white"/>
<path opacity="0.36" d="M49.2579 201.276C49.8232 201.276 50.2814 200.808 50.2814 200.232C50.2814 199.655 49.8232 199.188 49.2579 199.188C48.6926 199.188 48.2344 199.655 48.2344 200.232C48.2344 200.808 48.6926 201.276 49.2579 201.276Z" fill="white"/>
<path opacity="0.36" d="M45.168 205.272C45.7333 205.272 46.1916 204.804 46.1916 204.228C46.1916 203.651 45.7333 203.184 45.168 203.184C44.6028 203.184 44.1445 203.651 44.1445 204.228C44.1445 204.804 44.6028 205.272 45.168 205.272Z" fill="white"/>
<path opacity="0.36" d="M64.7305 193.535C65.2958 193.535 65.7541 193.068 65.7541 192.491C65.7541 191.915 65.2958 191.447 64.7305 191.447C64.1653 191.447 63.707 191.915 63.707 192.491C63.707 193.068 64.1653 193.535 64.7305 193.535Z" fill="white"/>
<path opacity="0.36" d="M59.3399 200.313C59.9052 200.313 60.3634 199.845 60.3634 199.269C60.3634 198.692 59.9052 198.225 59.3399 198.225C58.7747 198.225 58.3164 198.692 58.3164 199.269C58.3164 199.845 58.7747 200.313 59.3399 200.313Z" fill="white"/>
<path opacity="0.36" d="M67.8048 198.811C68.37 198.811 68.8283 198.343 68.8283 197.767C68.8283 197.19 68.37 196.723 67.8048 196.723C67.2395 196.723 66.7812 197.19 66.7812 197.767C66.7812 198.343 67.2395 198.811 67.8048 198.811Z" fill="white"/>
<path opacity="0.36" d="M64.3829 204.897C64.9482 204.897 65.4064 204.429 65.4064 203.853C65.4064 203.276 64.9482 202.809 64.3829 202.809C63.8176 202.809 63.3594 203.276 63.3594 203.853C63.3594 204.429 63.8176 204.897 64.3829 204.897Z" fill="white"/>
<path opacity="0.36" d="M54.1759 205.272C54.7411 205.272 55.1994 204.804 55.1994 204.228C55.1994 203.651 54.7411 203.184 54.1759 203.184C53.6106 203.184 53.1523 203.651 53.1523 204.228C53.1523 204.804 53.6106 205.272 54.1759 205.272Z" fill="white"/>
<path opacity="0.36" d="M58.7618 209.664C59.3271 209.664 59.7853 209.197 59.7853 208.62C59.7853 208.044 59.3271 207.576 58.7618 207.576C58.1965 207.576 57.7383 208.044 57.7383 208.62C57.7383 209.197 58.1965 209.664 58.7618 209.664Z" fill="white"/>
<path opacity="0.36" d="M70.8008 204.897C71.3661 204.897 71.8243 204.429 71.8243 203.853C71.8243 203.276 71.3661 202.809 70.8008 202.809C70.2356 202.809 69.7773 203.276 69.7773 203.853C69.7773 204.429 70.2356 204.897 70.8008 204.897Z" fill="white"/>
<path opacity="0.36" d="M66.172 211.926C66.7372 211.926 67.1955 211.459 67.1955 210.882C67.1955 210.305 66.7372 209.838 66.172 209.838C65.6067 209.838 65.1484 210.305 65.1484 210.882C65.1484 211.459 65.6067 211.926 66.172 211.926Z" fill="white"/>
<path opacity="0.36" d="M49.2579 211.307C49.8232 211.307 50.2814 210.84 50.2814 210.263C50.2814 209.686 49.8232 209.219 49.2579 209.219C48.6926 209.219 48.2344 209.686 48.2344 210.263C48.2344 210.84 48.6926 211.307 49.2579 211.307Z" fill="white"/>
<path opacity="0.36" d="M39.711 207.33C40.2763 207.33 40.7345 206.863 40.7345 206.286C40.7345 205.71 40.2763 205.242 39.711 205.242C39.1457 205.242 38.6875 205.71 38.6875 206.286C38.6875 206.863 39.1457 207.33 39.711 207.33Z" fill="white"/>
<path opacity="0.36" d="M34.0157 205.272C34.581 205.272 35.0392 204.804 35.0392 204.228C35.0392 203.651 34.581 203.184 34.0157 203.184C33.4504 203.184 32.9922 203.651 32.9922 204.228C32.9922 204.804 33.4504 205.272 34.0157 205.272Z" fill="white"/>
<path opacity="0.36" d="M36.2383 212.969C36.8036 212.969 37.2618 212.502 37.2618 211.925C37.2618 211.348 36.8036 210.881 36.2383 210.881C35.6731 210.881 35.2148 211.348 35.2148 211.925C35.2148 212.502 35.6731 212.969 36.2383 212.969Z" fill="white"/>
<path opacity="0.36" d="M43.1095 216.065C43.6747 216.065 44.133 215.597 44.133 215.021C44.133 214.444 43.6747 213.977 43.1095 213.977C42.5442 213.977 42.0859 214.444 42.0859 215.021C42.0859 215.597 42.5442 216.065 43.1095 216.065Z" fill="white"/>
<path opacity="0.36" d="M54.1759 215.557C54.7411 215.557 55.1994 215.089 55.1994 214.513C55.1994 213.936 54.7411 213.469 54.1759 213.469C53.6106 213.469 53.1523 213.936 53.1523 214.513C53.1523 215.089 53.6106 215.557 54.1759 215.557Z" fill="white"/>
<path opacity="0.36" d="M49.5587 219.787C50.1239 219.787 50.5822 219.32 50.5822 218.743C50.5822 218.167 50.1239 217.699 49.5587 217.699C48.9934 217.699 48.5352 218.167 48.5352 218.743C48.5352 219.32 48.9934 219.787 49.5587 219.787Z" fill="white"/>
<path opacity="0.36" d="M38.6876 218.733C39.2529 218.733 39.7111 218.265 39.7111 217.689C39.7111 217.112 39.2529 216.645 38.6876 216.645C38.1223 216.645 37.6641 217.112 37.6641 217.689C37.6641 218.265 38.1223 218.733 38.6876 218.733Z" fill="white"/>
<path opacity="0.36" d="M35.5261 222.709C35.5261 223.286 35.069 223.753 34.5025 223.753C34.4429 223.753 34.3833 223.743 34.3137 223.732C34.2144 223.094 34.115 222.445 34.0156 221.776C34.1647 221.695 34.3237 221.654 34.5025 221.654C35.069 221.664 35.5261 222.131 35.5261 222.709Z" fill="white"/>
<path opacity="0.36" d="M43.1095 224.807C43.6747 224.807 44.133 224.34 44.133 223.763C44.133 223.186 43.6747 222.719 43.1095 222.719C42.5442 222.719 42.0859 223.186 42.0859 223.763C42.0859 224.34 42.5442 224.807 43.1095 224.807Z" fill="white"/>
<path opacity="0.36" d="M38.6876 228.51C39.2529 228.51 39.7111 228.043 39.7111 227.466C39.7111 226.889 39.2529 226.422 38.6876 226.422C38.1223 226.422 37.6641 226.889 37.6641 227.466C37.6641 228.043 38.1223 228.51 38.6876 228.51Z" fill="white"/>
<path opacity="0.36" d="M49.1055 226.936C49.6708 226.936 50.1291 226.468 50.1291 225.892C50.1291 225.315 49.6708 224.848 49.1055 224.848C48.5403 224.848 48.082 225.315 48.082 225.892C48.082 226.468 48.5403 226.936 49.1055 226.936Z" fill="white"/>
<path opacity="0.36" d="M44.1446 232.192C44.7099 232.192 45.1681 231.724 45.1681 231.148C45.1681 230.571 44.7099 230.104 44.1446 230.104C43.5793 230.104 43.1211 230.571 43.1211 231.148C43.1211 231.724 43.5793 232.192 44.1446 232.192Z" fill="white"/>
<path opacity="0.36" d="M53.1524 231.442C53.7177 231.442 54.1759 230.974 54.1759 230.398C54.1759 229.821 53.7177 229.354 53.1524 229.354C52.5871 229.354 52.1289 229.821 52.1289 230.398C52.1289 230.974 52.5871 231.442 53.1524 231.442Z" fill="white"/>
<path opacity="0.36" d="M61.3985 218.164C61.9638 218.164 62.422 217.697 62.422 217.12C62.422 216.544 61.9638 216.076 61.3985 216.076C60.8332 216.076 60.375 216.544 60.375 217.12C60.375 217.697 60.8332 218.164 61.3985 218.164Z" fill="white"/>
<path opacity="0.36" d="M56.2344 223.752C56.7997 223.752 57.258 223.285 57.258 222.708C57.258 222.132 56.7997 221.664 56.2344 221.664C55.6692 221.664 55.2109 222.132 55.2109 222.708C55.2109 223.285 55.6692 223.752 56.2344 223.752Z" fill="white"/>
<path opacity="0.36" d="M67.2032 220.536C67.7685 220.536 68.2267 220.068 68.2267 219.491C68.2267 218.915 67.7685 218.447 67.2032 218.447C66.6379 218.447 66.1797 218.915 66.1797 219.491C66.1797 220.068 66.6379 220.536 67.2032 220.536Z" fill="white"/>
<path opacity="0.36" d="M72.3048 214.512C72.87 214.512 73.3283 214.045 73.3283 213.468C73.3283 212.891 72.87 212.424 72.3048 212.424C71.7395 212.424 71.2812 212.891 71.2812 213.468C71.2812 214.045 71.7395 214.512 72.3048 214.512Z" fill="white"/>
<path opacity="0.36" d="M75.6704 221.188C75.6605 221.735 75.6406 222.263 75.6108 222.79C75.432 222.932 75.2133 223.013 74.9748 223.013C74.4084 223.013 73.9414 222.546 73.9414 221.969C73.9414 221.391 74.3985 220.925 74.9748 220.925C75.2431 220.914 75.4916 221.016 75.6704 221.188Z" fill="white"/>
<path opacity="0.36" d="M70.2462 226.936C70.8114 226.936 71.2697 226.468 71.2697 225.892C71.2697 225.315 70.8114 224.848 70.2462 224.848C69.6809 224.848 69.2227 225.315 69.2227 225.892C69.2227 226.468 69.6809 226.936 70.2462 226.936Z" fill="white"/>
<path opacity="0.36" d="M62.4259 226.936C62.9911 226.936 63.4494 226.468 63.4494 225.892C63.4494 225.315 62.9911 224.848 62.4259 224.848C61.8606 224.848 61.4023 225.315 61.4023 225.892C61.4023 226.468 61.8606 226.936 62.4259 226.936Z" fill="white"/>
<path opacity="0.36" d="M66.172 232.496C66.7372 232.496 67.1955 232.029 67.1955 231.452C67.1955 230.876 66.7372 230.408 66.172 230.408C65.6067 230.408 65.1484 230.876 65.1484 231.452C65.1484 232.029 65.6067 232.496 66.172 232.496Z" fill="white"/>
<path opacity="0.36" d="M58.7618 233.246C59.3271 233.246 59.7853 232.779 59.7853 232.202C59.7853 231.626 59.3271 231.158 58.7618 231.158C58.1965 231.158 57.7383 231.626 57.7383 232.202C57.7383 232.779 58.1965 233.246 58.7618 233.246Z" fill="white"/>
<path opacity="0.36" d="M37.1879 232.486C37.1879 233.063 36.7308 233.53 36.1545 233.53C36.065 233.53 35.9756 233.52 35.8961 233.499C35.8663 233.317 35.7471 232.648 35.5781 231.624C35.7471 231.513 35.9458 231.442 36.1545 231.442C36.7308 231.431 37.1879 231.908 37.1879 232.486Z" fill="white"/>
<path opacity="0.36" d="M49.922 235.276C50.4872 235.276 50.9455 234.808 50.9455 234.232C50.9455 233.655 50.4872 233.188 49.922 233.188C49.3567 233.188 48.8984 233.655 48.8984 234.232C48.8984 234.808 49.3567 235.276 49.922 235.276Z" fill="white"/>
</g>
<path d="M64.8275 137.163C65.5036 140.946 68.5461 143.685 67.0745 146.383C65.2152 149.791 58.2354 149.902 56.3363 148.3C52.7967 145.318 53.8606 137.639 57.6289 136.574C61.3972 135.509 64.8275 137.163 64.8275 137.163Z" fill="#D49046"/>
<path d="M67.78 142.745C68.045 142.698 68.1226 141.872 67.9534 140.901C67.7843 139.93 67.4323 139.182 67.1673 139.23C66.9023 139.278 66.8247 140.103 66.9938 141.074C67.163 142.045 67.515 142.793 67.78 142.745Z" stroke="#6464C8" stroke-width="0.397711" stroke-miterlimit="10"/>
<path d="M64.5586 141.949C64.8217 141.949 65.0351 141.731 65.0351 141.463C65.0351 141.194 64.8217 140.977 64.5586 140.977C64.2954 140.977 64.082 141.194 64.082 141.463C64.082 141.731 64.2954 141.949 64.5586 141.949Z" fill="#41465A"/>
<path d="M63.207 144.354C63.207 144.354 64.3505 145.226 66.3987 144.354" stroke="#41465A" stroke-width="0.397711" stroke-miterlimit="10" stroke-linecap="round" stroke-linejoin="round"/>
<path d="M61.4844 142.174L67.7284 140.846" stroke="#6464C8" stroke-width="0.397711" stroke-miterlimit="10" stroke-linecap="round" stroke-linejoin="round"/>
<path d="M60.7238 138.533C60.7238 138.533 66.5105 139.649 67.7135 137.052C68.9166 134.466 64.5318 133.766 64.5318 133.766C64.5318 133.766 64.6512 130.205 60.2863 130.195C56.1004 130.185 56.1103 133.614 55.6331 133.289C55.0166 132.883 53.7539 133.411 53.5252 134.222C53.5252 134.222 50.4827 132.995 48.9913 135.419C47.4999 137.843 49.3393 139.425 49.3393 139.425C49.3393 139.425 48.4743 139.659 48.6731 140.541C48.872 141.413 45.6108 142.651 46.8735 144.984C48.1362 147.327 51.0594 146.708 51.0594 146.708C51.0594 146.708 51.0395 149.568 54.1715 149.396C57.2935 149.224 58.2381 146.505 57.5421 144.923C56.8461 143.341 59.5406 145.156 61.2607 142.813C62.9907 140.49 60.7238 138.533 60.7238 138.533Z" fill="#E7F0FD"/>
<path d="M65.3407 141.951C65.3407 141.951 64.4869 142.761 64.0898 143.025" stroke="#41465A" stroke-width="0.397711" stroke-miterlimit="10" stroke-linecap="round" stroke-linejoin="round"/>
</svg>
